<svg width="70" height="70" viewBox="0 0 70 70" fill="none" xmlns="http://www.w3.org/2000/svg">
<path d="M22.4903 5.9491L1.26566 64.6621C0.23469 67.191 2.71169 69.7342 5.25978 68.7628L63.7782 47.7838L48.3901 23.9166L22.4903 5.9491Z" fill="#ECB880"/>
<path d="M8.51942 67.5938L5.26014 68.7627C2.71178 69.7347 0.234507 67.1905 1.26534 64.6626L22.4903 5.9491L25.3736 7.94923L5.36678 63.2955C4.45079 65.5417 6.30601 67.8016 8.51942 67.5938Z" fill="#E9A761"/>
<path d="M59.386 48.1299C58.9909 47.734 58.6505 47.2703 58.3831 46.7445C50.5867 31.4116 38.3779 19.1777 23.0765 11.3653C20.3923 9.99473 19.3249 6.70305 20.6926 4.01319C22.0603 1.32319 25.3452 0.253803 28.0297 1.62423C36.6166 6.00854 44.4259 11.694 51.2404 18.5226C58.055 25.3512 63.7288 33.1765 68.1041 41.781C69.4717 44.4709 68.4046 47.7626 65.7202 49.1332C63.5605 50.2359 61.0118 49.7592 59.386 48.1299Z" fill="#E9A761"/>
<path d="M64.4521 49.5939C62.6228 50.0122 60.702 49.4489 59.3854 48.1296C58.9903 47.7345 58.6499 47.2697 58.3833 46.7447C50.5865 31.4122 38.3779 19.1776 23.0767 11.3657C20.3917 9.99443 19.3253 6.70371 20.6924 4.01316C20.8374 3.72743 21.0041 3.46083 21.1901 3.21338C21.1914 5.20258 22.2797 7.11795 24.1705 8.08452C39.4716 15.8964 54.6879 30.045 62.4848 45.3776C62.6529 45.7084 63.6427 47.9095 64.4521 49.5939Z" fill="#E69642"/>
<path d="M33.1541 54.0727C37.2314 54.0727 40.5367 50.7674 40.5367 46.6901C40.5367 42.6128 37.2314 39.3075 33.1541 39.3075C29.0768 39.3075 25.7715 42.6128 25.7715 46.6901C25.7715 50.7674 29.0768 54.0727 33.1541 54.0727Z" fill="#DC4955"/>
<path d="M39.5605 50.3623C38.2864 52.5798 35.8938 54.0727 33.1541 54.0727C29.0772 54.0727 25.7715 50.767 25.7715 46.6901C25.7715 43.9504 27.2644 41.5579 29.4819 40.2837C28.8612 41.3651 28.5058 42.6188 28.5058 43.9559C28.5058 48.0327 31.8115 51.3384 35.8884 51.3384C37.2254 51.3384 38.4791 50.983 39.5605 50.3623Z" fill="#D82F3C"/>
<path d="M16.8851 54.0727C16.8851 58.1495 13.5793 61.4553 9.50251 61.4553C7.03754 61.4553 4.85558 60.2481 3.5144 58.3915L7.62268 46.932C8.22286 46.7735 8.85312 46.6901 9.50251 46.6901C13.5793 46.6901 16.8851 49.9958 16.8851 54.0727Z" fill="#DC4955"/>
<path d="M27.4121 23.5852C27.4121 27.6621 24.1063 30.9678 20.0295 30.9678C19.0451 30.9678 18.1073 30.7751 17.2487 30.4264C16.1345 29.9726 15.157 29.2548 14.3914 28.3511L18.743 16.3147C19.16 16.2409 19.5906 16.2026 20.0295 16.2026C20.8087 16.2026 21.5593 16.3229 22.2648 16.5485C25.2492 17.4946 27.4121 20.2877 27.4121 23.5852Z" fill="#DC4955"/>
<path d="M11.2906 46.9088L6.29645 60.7238C5.1918 60.192 4.24163 59.3922 3.52661 58.4079L7.68001 46.9184C8.26241 46.768 8.87353 46.6901 9.50242 46.6901C10.119 46.6901 10.7178 46.7653 11.2906 46.9088Z" fill="#D82F3C"/>
<path d="M22.2648 16.5485L17.2487 30.4264C16.1345 29.9725 15.157 29.2548 14.3914 28.3511L18.743 16.3147C19.16 16.2409 19.5906 16.2026 20.0295 16.2026C20.8087 16.2026 21.5593 16.3229 22.2648 16.5485Z" fill="#D82F3C"/>
<path d="M31.2214 28.1633C31.841 26.3797 33.8125 25.374 34.7901 24.9735C35.1149 24.8403 35.4855 24.9733 35.6525 25.2822C36.1613 26.2236 37.0757 28.2917 36.4542 30.081C35.8346 31.8646 33.863 32.8703 32.8855 33.2708C32.5606 33.404 32.19 33.271 32.0231 32.9621C31.5142 32.0207 30.5999 29.9526 31.2214 28.1633Z" fill="#B7E546"/>
<path d="M36.6554 29.0252C36.6362 29.3806 36.5733 29.7361 36.4544 30.0806C35.8348 31.8642 33.8631 32.8701 32.8857 33.2708C32.5609 33.404 32.1904 33.271 32.0233 32.9623C31.5142 32.021 30.5993 29.9532 31.2208 28.1639C31.3097 27.9068 31.4273 27.6662 31.5667 27.442C31.4751 29.0964 32.3189 30.7573 32.6961 31.4102C32.796 31.5832 33.006 31.658 33.1931 31.5878C33.9295 31.311 35.7473 30.5061 36.6554 29.0252Z" fill="#ABD641"/>
<path d="M43.0707 40.7487C41.9093 39.2825 42.1149 37.1008 42.2999 36.0672C42.3617 35.7216 42.673 35.4803 43.0231 35.5053C44.084 35.5813 46.2975 35.9183 47.4627 37.3894C48.6241 38.8557 48.4184 41.0374 48.2335 42.0709C48.1717 42.4165 47.8604 42.6578 47.5103 42.6328C46.4492 42.5567 44.2358 42.2197 43.0707 40.7487Z" fill="#B7E546"/>
<path d="M48.3609 41.0136C48.3359 41.4007 48.2953 41.7145 48.2338 42.0731C48.1709 42.4176 47.8592 42.6582 47.5105 42.6323C46.1166 42.5208 44.6458 42.1725 43.5526 41.2487C42.079 39.9949 41.9915 37.8342 42.3003 36.0672C42.3208 35.9551 42.3673 35.8539 42.4343 35.7692C42.4015 36.8314 42.5683 38.1289 43.3435 39.1077C44.8446 41.0026 48.082 41.0163 48.3609 41.0136Z" fill="#ABD641"/>
<path d="M16.3579 41.983C15.6454 40.1771 16.5726 38.0593 17.033 37.1866C17.1606 36.9447 17.4464 36.8316 17.7033 36.9258C18.638 37.2687 20.7981 38.2354 21.5136 40.0495C22.2261 41.8553 21.2989 43.9732 20.8386 44.8458C20.7109 45.0878 20.4251 45.2009 20.1682 45.1067C19.2335 44.7638 17.0734 43.7971 16.3579 41.983Z" fill="#B7E546"/>
<path d="M21.3814 43.599C21.2302 44.0324 21.0489 44.4469 20.8372 44.8472C20.7101 45.0865 20.4285 45.1986 20.1742 45.1097C18.6546 44.5344 17.0058 43.5725 16.3571 41.9831C16.152 41.4635 16.0823 40.918 16.1001 40.3849C16.1378 39.2594 16.5289 38.1516 17.0393 37.1748C17.0913 37.0832 17.1664 37.0107 17.2526 36.9629C16.9286 37.9554 16.7317 39.2105 17.1774 40.3425C18.0373 42.5203 20.9781 43.4773 21.3814 43.599Z" fill="#ABD641"/>
<path d="M69.0181 41.3163C64.594 32.6157 58.8569 24.703 51.9662 17.7983C45.0754 10.8932 37.1787 5.14421 28.496 0.711102C26.9546 -0.0756918 25.1995 -0.214867 23.5536 0.319961C21.9056 0.855472 20.565 2.00196 19.7786 3.54848C18.7624 5.54739 18.8827 7.83189 19.8976 9.65881L17.6261 15.9942C17.6256 15.9954 17.625 15.9965 17.6245 15.9976L16.6066 18.8373L6.65811 46.584C6.65784 46.5846 6.65757 46.5852 6.65729 46.5859L5.55018 49.674L0.307303 64.2967C-0.315296 65.8472 0.0223891 67.5499 1.19103 68.7457C2.36404 69.9506 4.07885 70.3107 5.61512 69.7246L25.1139 62.7305C25.647 62.5394 25.9241 61.9522 25.7328 61.4192C25.5416 60.8861 24.9546 60.6094 24.4215 60.8002L4.9135 67.7977C4.1092 68.1119 3.26157 67.9314 2.6577 67.3122C2.05438 66.6951 1.88896 65.8491 2.21502 65.0491C2.22063 65.0355 2.22582 65.0219 2.23074 65.0081L3.90454 60.3397C5.43164 61.7001 7.4233 62.4806 9.50233 62.4806C14.1385 62.4806 17.9103 58.7088 17.9103 54.0727C17.9103 49.4365 14.1385 45.6647 9.50233 45.6647C9.38913 45.6647 9.27634 45.6677 9.16355 45.6722L14.7401 30.119C16.2236 31.3229 18.0786 31.9932 20.0294 31.9932C24.6655 31.9932 28.4373 28.2214 28.4373 23.5853C28.4373 18.9717 24.7019 15.2156 20.0969 15.1789L21.4188 11.492C24.5855 13.5105 28.0958 15.1081 31.1383 17.3113C31.6072 17.6283 32.2448 17.5056 32.5621 17.0365C32.8795 16.5674 32.7564 15.9299 32.2875 15.6127C29.5034 13.7294 26.5613 11.9928 23.5431 10.4518C21.3659 9.34013 20.4972 6.66011 21.6068 4.47759C22.1446 3.4201 23.061 2.63605 24.1874 2.27006C25.3117 1.90503 26.5106 1.99977 27.5636 2.53734C36.0542 6.87243 43.7762 12.4943 50.5148 19.2468C57.2534 25.9992 62.8637 33.7371 67.1902 42.2459C68.2999 44.4284 67.4314 47.1083 65.2541 48.22C63.1067 49.3512 60.3502 48.4237 59.2973 46.2796C53.6909 35.254 45.9267 25.8896 36.2202 18.447C35.771 18.1026 35.1273 18.1874 34.7827 18.6369C34.438 19.0863 34.523 19.7299 34.9724 20.0746C45.0709 27.5604 52.3743 37.5847 58.4249 48.6036L28.9259 59.1847C28.3929 59.3758 28.1158 59.963 28.307 60.4961C28.4975 61.0343 29.0994 61.3053 29.6184 61.115L60.371 50.0843C62.1992 50.9927 64.3486 50.9858 66.1867 50.0465C69.3693 48.4214 70.6395 44.5052 69.0181 41.3163ZM9.50233 47.7154C13.0077 47.7154 15.8596 50.5671 15.8596 54.0727C15.8596 57.5782 13.0077 60.4299 9.50233 60.4299C7.64259 60.4299 5.87282 59.6065 4.67069 58.204L7.46364 50.4133L8.39671 47.811C8.75914 47.7474 9.12923 47.7154 9.50233 47.7154ZM20.0294 17.228C23.5347 17.228 26.3866 20.0798 26.3866 23.5853C26.3866 27.0908 23.5347 29.9425 20.0294 29.9425C18.3068 29.9425 16.6811 29.2533 15.4884 28.0342L18.2271 20.3941L19.3493 17.2638C19.5736 17.2401 19.8009 17.228 20.0294 17.228Z" fill="black"/>
<path d="M25.8012 45.4609C25.2394 45.4426 24.7641 45.8926 24.7489 46.4586C24.6125 51.173 28.4368 55.1057 33.1538 55.0979C37.79 55.0979 41.5618 51.3261 41.5618 46.6899C41.5618 42.0538 37.79 38.282 33.1538 38.282C30.6298 38.282 28.2618 39.4011 26.657 41.3525C26.2973 41.7898 26.3604 42.4361 26.7977 42.7958C27.2352 43.1557 27.8813 43.0927 28.241 42.6551C29.4546 41.1792 31.2453 40.3328 33.1538 40.3328C36.6592 40.3328 39.5111 43.1846 39.5111 46.6901C39.5111 50.1956 36.6592 53.0473 33.1538 53.0473C29.5867 53.0532 26.6945 50.0783 26.7991 46.5132C26.8141 45.9469 26.3673 45.4758 25.8012 45.4609Z" fill="black"/>
<path d="M32.3252 34.5022C32.4235 34.5022 32.5229 34.488 32.6205 34.4587C32.7754 34.4119 36.4269 33.2842 37.4226 30.4177C38.4138 27.5644 36.2941 24.3354 36.2034 24.1993C35.953 23.8241 35.4867 23.6569 35.0549 23.7862C34.9 23.8329 31.2485 24.9607 30.2528 27.8272C29.2617 30.6805 31.3813 33.9095 31.4721 34.0456C31.6658 34.3359 31.9887 34.5022 32.3252 34.5022ZM32.1899 28.4998C32.6005 27.3179 33.9363 26.4804 34.8942 26.0427C35.372 27.0114 35.9011 28.5484 35.4855 29.7446C35.075 30.9265 33.7391 31.7641 32.7812 32.2018C32.3034 31.2332 31.7743 29.6961 32.1899 28.4998Z" fill="black"/>
<path d="M45.0395 36.9532C45.5714 37.1482 46.1601 36.8747 46.3548 36.3428C46.5495 35.8109 46.2762 35.2221 45.7444 35.0274C44.1113 34.4296 42.4739 34.458 42.4046 34.4591C41.9535 34.4688 41.5618 34.7722 41.4396 35.2064C41.396 35.3612 40.3946 39.0222 42.2666 41.3856C44.0733 43.6224 47.4697 43.6741 48.1282 43.6793C48.5793 43.6697 48.971 43.3662 49.0932 42.932C49.1111 42.8683 49.5303 41.3531 49.3624 39.6738C49.306 39.1104 48.8032 38.6988 48.2401 38.7555C47.6765 38.8118 47.2654 39.3144 47.3218 39.8778C47.3849 40.5096 47.3372 41.1233 47.2724 41.5844C46.2086 41.4674 44.6502 41.0917 43.8742 40.1121C43.1078 39.1443 43.1155 37.59 43.2575 36.5565C43.7493 36.6095 44.4033 36.7204 45.0395 36.9532Z" fill="black"/>
<path d="M17.5405 35.7921C17.1059 35.6704 16.6432 35.8473 16.4003 36.2275C16.3142 36.3624 14.3014 39.5646 15.4039 42.3594C16.5013 45.1414 20.175 46.1971 20.3308 46.2407C20.7575 46.3621 21.2284 46.1877 21.471 45.8053C21.5572 45.6704 23.5699 42.4682 22.4674 39.6734C21.37 36.8914 17.6963 35.8357 17.5405 35.7921ZM20.1233 43.9845C19.2254 43.603 17.7925 42.8256 17.3116 41.6068C16.8618 40.4665 17.3155 38.9916 17.7482 38.0481C18.6461 38.4297 20.079 39.2071 20.5598 40.4259C21.0096 41.5662 20.556 43.0411 20.1233 43.9845Z" fill="black"/>
</svg>
