<svg width="220" height="200" viewBox="0 0 220 200" fill="none" xmlns="http://www.w3.org/2000/svg">
<g clip-path="url(#clip0_11_1354)">
<path d="M188.974 18.3901L5.23901 71.9228L10.1056 88.626L193.841 35.0933L188.974 18.3901Z" fill="#3F3D56"/>
<path d="M27.1903 148.647L0.109255 55.6991C-0.0915165 55.01 -0.0103102 54.2693 0.334997 53.6401C0.680304 53.0108 1.26143 52.5445 1.95054 52.3437L181.231 0.108739C181.92 -0.0913577 182.661 -0.00987627 183.29 0.335307C183.919 0.680491 184.385 1.26117 184.587 1.94988L208.578 84.2947L207.836 84.511L183.844 2.16622C183.7 1.67449 183.367 1.25995 182.918 1.01343C182.468 0.766908 181.94 0.708498 181.448 0.851005L2.16683 53.086C1.67461 53.2294 1.25952 53.5625 1.01287 54.012C0.766224 54.4615 0.70822 54.9905 0.851621 55.4827L27.9327 148.43L27.1903 148.647Z" fill="#3F3D56"/>
<path d="M168.898 84.6773C168.354 84.6768 167.825 84.5 167.389 84.1737C166.954 83.8473 166.637 83.3888 166.484 82.8668L161.942 67.2772C161.756 66.6373 161.832 65.9499 162.152 65.3659C162.473 64.7818 163.012 64.3487 163.651 64.1616L179.241 59.6194C179.881 59.4338 180.568 59.5096 181.152 59.8301C181.736 60.1507 182.17 60.6899 182.357 61.3294L186.899 76.919C187.084 77.5588 187.009 78.2462 186.688 78.8302C186.368 79.4143 185.829 79.8474 185.189 80.0345L169.599 84.5767C169.371 84.6433 169.135 84.6772 168.898 84.6773Z" fill="#1A73E9"/>
<path d="M26.7718 55.9866C26.7251 55.8264 26.6696 55.6689 26.6055 55.5149C26.1696 54.4569 25.3582 53.5974 24.327 53.1014C23.2959 52.6054 22.1178 52.508 21.0192 52.8279C19.9206 53.1477 18.9789 53.8623 18.3752 54.8342C17.7714 55.8062 17.5482 56.967 17.7483 58.0936C17.7764 58.258 17.8138 58.4206 17.8604 58.5808C18.1427 59.5444 18.7296 60.3907 19.5332 60.9929C20.3368 61.5951 21.3138 61.9207 22.318 61.9211C22.7564 61.9221 23.1927 61.8596 23.6132 61.7355C24.7935 61.3907 25.7889 60.5918 26.381 59.514C26.9731 58.4363 27.1137 57.1678 26.7718 55.9866ZM23.3967 60.9932C22.4124 61.2789 21.3549 61.1626 20.4562 60.6698C19.5575 60.1769 18.891 59.3478 18.6027 58.3643C18.5574 58.204 18.5212 58.0414 18.4943 57.8771C18.3493 56.9489 18.5474 55.9996 19.0514 55.2068C19.5555 54.414 20.3311 53.832 21.2331 53.5695C22.1352 53.3071 23.102 53.3821 23.9527 53.7807C24.8035 54.1793 25.4799 54.8741 25.8555 55.7353C25.9255 55.8865 25.9837 56.0429 26.0295 56.2031C26.3148 57.1874 26.1978 58.2447 25.7042 59.1429C25.2105 60.041 24.3806 60.7065 23.3967 60.9933V60.9932Z" fill="#1A73E9"/>
<path d="M15.3928 59.2998C15.1454 58.4501 15.1692 57.5444 15.4608 56.7089C15.7524 55.8733 16.2974 55.1496 17.0198 54.6384C16.343 54.6054 15.6681 54.7346 15.0514 55.0153C14.4346 55.2959 13.8938 55.7199 13.4741 56.2519C13.0544 56.7839 12.7679 57.4084 12.6384 58.0736C12.5089 58.7387 12.5403 59.4251 12.7298 60.0757C12.9194 60.7263 13.2616 61.3221 13.7281 61.8136C14.1946 62.3051 14.7717 62.6781 15.4115 62.9013C16.0513 63.1246 16.7351 63.1918 17.4061 63.0973C18.0771 63.0027 18.7158 62.7492 19.269 62.3579C18.3851 62.3147 17.5366 61.9969 16.8418 61.4488C16.147 60.9006 15.6405 60.1494 15.3928 59.2998Z" fill="#1A73E9"/>
<path d="M135.577 78.4605C135.495 78.1646 135.355 77.8879 135.165 77.6461C134.976 77.4043 134.741 77.2022 134.473 77.0514C134.206 76.9006 133.911 76.804 133.606 76.7671C133.302 76.7303 132.992 76.7539 132.697 76.8367L107.029 84.0161L104.265 84.7893H121.624L124.388 84.0161L133.957 81.3407C134.553 81.1732 135.059 80.7757 135.363 80.2357C135.666 79.6957 135.743 79.0572 135.577 78.4605Z" fill="#CCCCCC"/>
<path d="M117.418 73.0982C117.25 72.5015 116.853 71.9956 116.313 71.6918C115.773 71.388 115.134 71.3112 114.537 71.4783L76.0228 82.2494C75.4846 82.4018 75.0186 82.7416 74.7088 83.2073C74.399 83.6731 74.2659 84.2342 74.3333 84.7894H84.3041L87.0721 84.0162L115.798 75.9823C116.395 75.8142 116.901 75.4161 117.204 74.8753C117.508 74.3346 117.585 73.6954 117.418 73.0982Z" fill="#CCCCCC"/>
<path d="M216.571 84.0154H29.8352C29.1177 84.0162 28.4298 84.3015 27.9225 84.8089C27.4151 85.3163 27.1297 86.0041 27.1289 86.7217V197.294C27.1297 198.011 27.4151 198.699 27.9224 199.207C28.4298 199.714 29.1177 199.999 29.8352 200H216.571C217.288 199.999 217.976 199.714 218.484 199.207C218.991 198.699 219.276 198.011 219.277 197.294V86.7217C219.276 86.0042 218.991 85.3163 218.483 84.8089C217.976 84.3016 217.288 84.0162 216.571 84.0154ZM218.504 197.294C218.504 197.806 218.3 198.298 217.937 198.66C217.575 199.023 217.083 199.227 216.571 199.227H29.8352C29.3226 199.227 28.831 199.023 28.4685 198.66C28.106 198.298 27.9023 197.806 27.9021 197.294V86.7217C27.9024 86.209 28.1061 85.7175 28.4686 85.355C28.831 84.9925 29.3226 84.7888 29.8352 84.7886H216.571C217.083 84.7888 217.575 84.9925 217.937 85.355C218.3 85.7175 218.504 86.209 218.504 86.7217V197.294Z" fill="#3F3D56"/>
<path d="M48.0046 99.0942C47.087 99.0942 46.1901 98.8221 45.4271 98.3124C44.6642 97.8026 44.0695 97.078 43.7184 96.2303C43.3672 95.3825 43.2754 94.4497 43.4544 93.5498C43.6334 92.6498 44.0753 91.8231 44.7241 91.1743C45.3729 90.5255 46.1996 90.0836 47.0995 89.9046C47.9995 89.7256 48.9323 89.8175 49.78 90.1686C50.6278 90.5198 51.3524 91.1144 51.8621 91.8773C52.3719 92.6403 52.644 93.5373 52.644 94.4548C52.6426 95.6849 52.1534 96.8641 51.2836 97.7338C50.4139 98.6036 49.2346 99.0928 48.0046 99.0942ZM48.0046 90.5887C47.24 90.5887 46.4925 90.8154 45.8567 91.2403C45.2209 91.6651 44.7254 92.2689 44.4328 92.9753C44.1401 93.6818 44.0636 94.4591 44.2128 95.2091C44.3619 95.9591 44.7302 96.6479 45.2708 97.1886C45.8115 97.7293 46.5004 98.0975 47.2504 98.2467C48.0003 98.3959 48.7777 98.3193 49.4841 98.0267C50.1906 97.7341 50.7944 97.2386 51.2192 96.6028C51.644 95.967 51.8708 95.2195 51.8708 94.4548C51.8696 93.4298 51.4619 92.4471 50.7371 91.7223C50.0123 90.9975 49.0296 90.5898 48.0046 90.5887Z" fill="#1A73E9"/>
<path d="M40.7935 94.4547C40.7937 93.5697 41.0698 92.7069 41.5835 91.9862C42.0972 91.2656 42.8229 90.7232 43.6595 90.4345C43.0189 90.2135 42.3348 90.1488 41.6642 90.2457C40.9935 90.3426 40.3558 90.5984 39.804 90.9918C39.2522 91.3851 38.8024 91.9046 38.492 92.5069C38.1817 93.1093 38.0198 93.7771 38.0198 94.4547C38.0198 95.1324 38.1817 95.8002 38.492 96.4025C38.8024 97.0049 39.2522 97.5244 39.804 97.9177C40.3558 98.311 40.9935 98.5668 41.6642 98.6638C42.3348 98.7607 43.0189 98.696 43.6595 98.475C42.8229 98.1863 42.0972 97.6438 41.5835 96.9232C41.0698 96.2026 40.7937 95.3397 40.7935 94.4547Z" fill="#1A73E9"/>
<path d="M66.8111 149.268C65.8886 149.267 65.0041 148.9 64.3518 148.248C63.6995 147.596 63.3326 146.711 63.3315 145.789V135.35C63.3315 134.427 63.6981 133.542 64.3507 132.89C65.0032 132.237 65.8883 131.871 66.8111 131.871C67.7339 131.871 68.6189 132.237 69.2715 132.89C69.924 133.542 70.2906 134.427 70.2906 135.35V145.789C70.2896 146.711 69.9226 147.596 69.2703 148.248C68.618 148.9 67.7336 149.267 66.8111 149.268Z" fill="#1A73E9"/>
<path d="M76.0899 149.268C75.1674 149.267 74.283 148.9 73.6306 148.248C72.9783 147.596 72.6114 146.711 72.6104 145.789V135.35C72.6104 134.427 72.9769 133.542 73.6295 132.89C74.282 132.237 75.167 131.871 76.0899 131.871C77.0127 131.871 77.8977 132.237 78.5503 132.89C79.2028 133.542 79.5694 134.427 79.5694 135.35V145.789C79.5684 146.711 79.2014 147.596 78.5491 148.248C77.8968 148.9 77.0124 149.267 76.0899 149.268Z" fill="#1A73E9"/>
<path d="M85.3687 149.268C84.4462 149.267 83.5618 148.9 82.9095 148.248C82.2572 147.596 81.8902 146.711 81.8892 145.789V135.35C81.8892 134.427 82.2558 133.542 82.9083 132.89C83.5608 132.237 84.4459 131.871 85.3687 131.871C86.2915 131.871 87.1766 132.237 87.8291 132.89C88.4817 133.542 88.8483 134.427 88.8483 135.35V145.789C88.8472 146.711 88.4803 147.596 87.828 148.248C87.1756 148.9 86.2912 149.267 85.3687 149.268Z" fill="#1A73E9"/>
<path d="M99.6734 149.268C98.7509 149.267 97.8665 148.9 97.2142 148.248C96.5619 147.596 96.1949 146.711 96.1938 145.789V135.35C96.1938 134.427 96.5604 133.542 97.213 132.89C97.8655 132.237 98.7506 131.871 99.6734 131.871C100.596 131.871 101.481 132.237 102.134 132.89C102.786 133.542 103.153 134.427 103.153 135.35V145.789C103.152 146.711 102.785 147.596 102.133 148.248C101.48 148.9 100.596 149.267 99.6734 149.268Z" fill="#1A73E9"/>
<path d="M108.952 149.268C108.03 149.267 107.145 148.9 106.493 148.248C105.841 147.596 105.474 146.711 105.473 145.789V135.35C105.473 134.427 105.839 133.542 106.492 132.89C107.144 132.237 108.029 131.871 108.952 131.871C109.875 131.871 110.76 132.237 111.413 132.89C112.065 133.542 112.432 134.427 112.432 135.35V145.789C112.431 146.711 112.064 147.596 111.411 148.248C110.759 148.9 109.875 149.267 108.952 149.268Z" fill="#1A73E9"/>
<path d="M118.231 149.268C117.308 149.267 116.424 148.9 115.772 148.248C115.119 147.596 114.753 146.711 114.751 145.789V135.35C114.751 134.427 115.118 133.542 115.771 132.89C116.423 132.237 117.308 131.871 118.231 131.871C119.154 131.871 120.039 132.237 120.691 132.89C121.344 133.542 121.711 134.427 121.711 135.35V145.789C121.709 146.711 121.343 147.596 120.69 148.248C120.038 148.9 119.154 149.267 118.231 149.268Z" fill="#1A73E9"/>
<path d="M132.536 149.268C131.613 149.267 130.729 148.9 130.076 148.248C129.424 147.596 129.057 146.711 129.056 145.789V135.35C129.056 134.427 129.423 133.542 130.075 132.89C130.728 132.237 131.613 131.871 132.536 131.871C133.459 131.871 134.344 132.237 134.996 132.89C135.649 133.542 136.015 134.427 136.015 135.35V145.789C136.014 146.711 135.647 147.596 134.995 148.248C134.343 148.9 133.458 149.267 132.536 149.268Z" fill="#1A73E9"/>
<path d="M141.814 149.268C140.892 149.267 140.008 148.9 139.355 148.248C138.703 147.596 138.336 146.711 138.335 145.789V135.35C138.335 134.427 138.702 133.542 139.354 132.89C140.007 132.237 140.892 131.871 141.814 131.871C142.737 131.871 143.622 132.237 144.275 132.89C144.927 133.542 145.294 134.427 145.294 135.35V145.789C145.293 146.711 144.926 147.596 144.274 148.248C143.621 148.9 142.737 149.267 141.814 149.268Z" fill="#1A73E9"/>
<path d="M151.093 149.268C150.171 149.267 149.286 148.9 148.634 148.248C147.982 147.596 147.615 146.711 147.614 145.789V135.35C147.614 134.427 147.98 133.542 148.633 132.89C149.285 132.237 150.17 131.871 151.093 131.871C152.016 131.871 152.901 132.237 153.554 132.89C154.206 133.542 154.573 134.427 154.573 135.35V145.789C154.572 146.711 154.205 147.596 153.553 148.248C152.9 148.9 152.016 149.267 151.093 149.268Z" fill="#1A73E9"/>
<path d="M165.398 149.268C164.475 149.267 163.591 148.9 162.939 148.248C162.286 147.596 161.92 146.711 161.918 145.789V135.35C161.918 134.427 162.285 133.542 162.938 132.89C163.59 132.237 164.475 131.871 165.398 131.871C166.321 131.871 167.206 132.237 167.858 132.89C168.511 133.542 168.878 134.427 168.878 135.35V145.789C168.876 146.711 168.51 147.596 167.857 148.248C167.205 148.9 166.321 149.267 165.398 149.268Z" fill="#1A73E9"/>
<path d="M174.677 149.268C173.754 149.267 172.87 148.9 172.218 148.248C171.565 147.596 171.198 146.711 171.197 145.789V135.35C171.197 134.427 171.564 133.542 172.216 132.89C172.869 132.237 173.754 131.871 174.677 131.871C175.6 131.871 176.485 132.237 177.137 132.89C177.79 133.542 178.156 134.427 178.156 135.35V145.789C178.155 146.711 177.788 147.596 177.136 148.248C176.484 148.9 175.599 149.267 174.677 149.268Z" fill="#1A73E9"/>
<path d="M183.956 149.268C183.033 149.267 182.149 148.9 181.496 148.248C180.844 147.596 180.477 146.711 180.476 145.789V135.35C180.476 134.427 180.843 133.542 181.495 132.89C182.148 132.237 183.033 131.871 183.956 131.871C184.878 131.871 185.763 132.237 186.416 132.89C187.069 133.542 187.435 134.427 187.435 135.35V145.789C187.434 146.711 187.067 147.596 186.415 148.248C185.763 148.9 184.878 149.267 183.956 149.268Z" fill="#1A73E9"/>
<path d="M90.4017 187.995H40.358C39.7379 187.995 39.1433 187.748 38.7048 187.31C38.2663 186.871 38.02 186.277 38.02 185.657C38.02 185.036 38.2663 184.442 38.7048 184.003C39.1433 183.565 39.7379 183.319 40.358 183.319H90.4017C91.0218 183.319 91.6164 183.565 92.0549 184.003C92.4934 184.442 92.7397 185.036 92.7397 185.657C92.7397 186.277 92.4934 186.871 92.0549 187.31C91.6164 187.748 91.0218 187.995 90.4017 187.995Z" fill="#E6E6E6"/>
<path d="M74.357 177.943H56.4025C55.7824 177.943 55.1877 177.696 54.7492 177.258C54.3108 176.819 54.0645 176.225 54.0645 175.605C54.0645 174.984 54.3108 174.39 54.7492 173.951C55.1877 173.513 55.7824 173.267 56.4025 173.267H74.357C74.9771 173.267 75.5718 173.513 76.0102 173.951C76.4487 174.39 76.695 174.984 76.695 175.605C76.695 176.225 76.4487 176.819 76.0102 177.258C75.5718 177.696 74.9771 177.943 74.357 177.943Z" fill="#E6E6E6"/>
<path d="M218.364 107.127H27.7629V107.901H218.364V107.127Z" fill="#3F3D56"/>
</g>
<defs>
<clipPath id="clip0_11_1354">
<rect width="219.277" height="200" fill="white"/>
</clipPath>
</defs>
</svg>
