<svg width="9" height="15" viewBox="0 0 9 15" fill="none" xmlns="http://www.w3.org/2000/svg">
<path d="M0.336811 1.89474C0.141244 1.68045 0.0325956 1.3985 0.0434604 1.10526C0.0434605 0.812031 0.152109 0.541353 0.358541 0.327068C0.554108 0.12406 0.825729 -2.46953e-08 1.10821 0C1.3907 2.46961e-08 1.66232 0.101504 1.86875 0.304512L8.01825 6.68797C8.11604 6.78947 8.19209 6.91353 8.24641 7.04887C8.30074 7.18421 8.33333 7.33083 8.33333 7.47744C8.33333 7.62406 8.30074 7.77068 8.24641 7.91729C8.19209 8.05263 8.11604 8.17669 8.01825 8.2782L1.86875 14.6617C1.77097 14.7632 1.65146 14.8534 1.52108 14.9098C1.37983 14.9662 1.23859 15 1.09735 15C0.956106 15 0.803998 14.9774 0.67362 14.9211C0.543242 14.8647 0.423729 14.7744 0.31508 14.6729C0.217297 14.5714 0.141243 14.4361 0.0869186 14.3008C0.0217296 14.1654 -1.38036e-08 14.0188 0 13.8609C1.28176e-08 13.7143 0.0325945 13.5677 0.0869187 13.4323C0.141243 13.297 0.228162 13.1729 0.33681 13.0602L5.71491 7.47744L4.69361 6.42857L0.336811 1.89474Z" fill="black"/>
</svg>
