<svg width="212" height="200" viewBox="0 0 212 200" fill="none" xmlns="http://www.w3.org/2000/svg">
<g clip-path="url(#clip0_11_809)">
<path d="M211.582 198.946H68.8031V199.561H211.582V198.946Z" fill="#3F3D56"/>
<path d="M184.936 94.227C185.211 94.55 185.415 94.927 185.535 95.3338C185.654 95.7405 185.688 96.1679 185.632 96.5883C185.576 97.0087 185.432 97.4126 185.211 97.774C184.989 98.1354 184.693 98.4462 184.344 98.6862L169.567 108.831L163.061 113.169C162.691 113.415 162.243 113.516 161.804 113.45C161.364 113.384 160.965 113.157 160.684 112.813C160.52 112.613 160.401 112.379 160.337 112.129C160.272 111.878 160.262 111.616 160.308 111.361C160.355 111.106 160.456 110.865 160.604 110.653C160.753 110.441 160.946 110.264 161.17 110.134L167.472 106.474L178.471 95.9994L171.4 88.405L176.638 84.4769L184.936 94.227Z" fill="#A0616A"/>
<path d="M150.189 189.751H146.574L144.427 159.897L153.593 159.635L150.189 189.751Z" fill="#A0616A"/>
<path d="M150.45 199.44C149.487 199.88 148.679 196.316 147.866 197.115C145.592 199.35 142.11 199.836 139.075 198.861L140.137 198.849C139.954 198.79 139.785 198.695 139.64 198.568C139.494 198.442 139.376 198.288 139.293 198.115C139.209 197.941 139.161 197.753 139.152 197.561C139.143 197.369 139.174 197.177 139.241 196.996C139.322 196.781 139.454 196.588 139.626 196.435C139.798 196.282 140.004 196.172 140.228 196.117L142.646 195.512L146.443 188.834L150.319 188.572C151.184 189.674 151.787 190.957 152.083 192.326C152.38 193.694 152.363 195.112 152.032 196.473C151.681 197.909 151.137 199.126 150.45 199.44Z" fill="#2F2E41"/>
<path d="M174.255 189.751H170.641L168.494 159.897L177.922 158.064L174.255 189.751Z" fill="#A0616A"/>
<path d="M174.517 199.44C173.553 199.88 172.746 196.316 171.933 197.115C169.659 199.35 166.177 199.836 163.142 198.861L164.204 198.849C164.021 198.79 163.852 198.695 163.706 198.568C163.561 198.442 163.443 198.288 163.359 198.115C163.276 197.941 163.228 197.753 163.219 197.561C163.21 197.369 163.241 197.177 163.308 196.996C163.389 196.781 163.521 196.588 163.693 196.435C163.865 196.282 164.071 196.172 164.294 196.117L166.713 195.512L170.51 188.834L174.648 188.31L174.753 188.481C175.553 189.771 176.069 191.216 176.266 192.72C176.463 194.225 176.337 195.754 175.896 197.206C175.552 198.309 175.084 199.182 174.517 199.44Z" fill="#2F2E41"/>
<path d="M178.354 85.1521C175.03 85.6146 172.728 87.4349 171.791 91.0663L165.681 79.7853C165.319 79.0684 165.227 78.245 165.423 77.4658C165.618 76.6867 166.088 76.0042 166.746 75.5432C167.444 75.054 168.303 74.8502 169.146 74.9737C169.99 75.0972 170.754 75.5385 171.283 76.2074L178.354 85.1521Z" fill="#52CC6D"/>
<path d="M184.756 156.754C169.901 163.327 154.697 164.136 139.19 159.897C144.853 137.934 151.539 118.074 151.498 101.761L166.687 100.451L169.025 104.159C174.574 112.955 178.404 122.724 180.312 132.948L184.756 156.754Z" fill="#2F2E41"/>
<path d="M159.878 67.9787C164.217 67.9787 167.734 64.4613 167.734 60.1224C167.734 55.7835 164.217 52.2662 159.878 52.2662C155.539 52.2662 152.022 55.7835 152.022 60.1224C152.022 64.4613 155.539 67.9787 159.878 67.9787Z" fill="#A0616A"/>
<path d="M168.52 74.0017L158.831 74.5255L157.259 65.8835L165.115 64.5743L168.52 74.0017Z" fill="#A0616A"/>
<path d="M167.472 101.761L156.857 102.06L151.498 102.808C148.867 94.1184 146.653 85.4485 152.022 78.1919L158.307 71.9069L167.734 71.645L167.859 71.7164C169.356 72.5742 170.517 73.9164 171.149 75.5218C171.781 77.1273 171.848 78.9003 171.337 80.5486C168.998 88.1511 167.495 95.3302 167.472 101.761Z" fill="#52CC6D"/>
<path d="M151.236 126.115L150.578 135.114C150.542 135.596 150.334 136.049 149.991 136.39C149.649 136.73 149.194 136.936 148.712 136.968C148.434 136.986 148.155 136.947 147.894 136.852C147.632 136.756 147.393 136.608 147.192 136.415C146.991 136.222 146.832 135.99 146.726 135.733C146.62 135.475 146.568 135.198 146.575 134.92L146.784 126.115L153.331 101.237L153.593 86.0481L160.926 85.7862L160.402 103.332L151.236 126.115Z" fill="#A0616A"/>
<path d="M161.711 87.0955C158.602 85.8314 155.699 86.2547 153.069 88.9286L153.43 76.1045C153.475 75.3025 153.808 74.5437 154.367 73.9672C154.926 73.3907 155.675 73.0351 156.475 72.9655C157.324 72.8917 158.17 73.1454 158.838 73.6746C159.507 74.2039 159.947 74.9688 160.07 75.8124L161.711 87.0955Z" fill="#52CC6D"/>
<path d="M176.507 95.0828H152.415C158.035 80.2 159.847 66.3546 152.415 54.4921C152.542 50.9292 157.112 47.8404 160.661 48.1817C164.852 48.5847 170.484 51.6647 171.27 55.8015L176.507 95.0828Z" fill="#2F2E41"/>
<path d="M99.7253 47.5275H98.6264V17.4234C98.6264 15.1353 98.1758 12.8697 97.3001 10.7558C96.4245 8.64184 95.1411 6.7211 93.5232 5.10318C91.9053 3.48527 89.9845 2.20187 87.8706 1.32626C85.7567 0.450657 83.491 -6.85674e-06 81.203 0H17.4235C15.1354 -5.05232e-06 12.8698 0.450662 10.7558 1.32627C8.64193 2.20188 6.72118 3.48527 5.10327 5.10319C3.48535 6.72111 2.20195 8.64185 1.32634 10.7558C0.450727 12.8697 5.8509e-05 15.1353 6.10352e-05 17.4234V182.577C5.92307e-05 184.865 0.450727 187.13 1.32634 189.244C2.20195 191.358 3.48535 193.279 5.10327 194.897C6.72118 196.515 8.64193 197.798 10.7558 198.674C12.8698 199.549 15.1354 200 17.4235 200H81.203C83.491 200 85.7567 199.549 87.8706 198.674C89.9845 197.798 91.9053 196.515 93.5232 194.897C95.1411 193.279 96.4245 191.358 97.3001 189.244C98.1758 187.13 98.6264 184.865 98.6264 182.577V68.956H99.7253V47.5275Z" fill="#3F3D56"/>
<path d="M80.3438 5.31402L72.1 5.35978C72.4842 6.28715 72.6346 7.29478 72.5377 8.29392C72.4408 9.29305 72.0997 10.253 71.5444 11.0893C70.9891 11.9255 70.2367 12.6124 69.3534 13.0894C68.4701 13.5663 67.4831 13.8187 66.4793 13.8244L30.2984 14.0252C29.2946 14.0307 28.3048 13.7893 27.4163 13.3221C26.5278 12.855 25.7678 12.1766 25.2032 11.3465C24.6387 10.5165 24.287 9.56035 24.179 8.56234C24.071 7.56434 24.2101 6.55511 24.5841 5.62353L16.8843 5.66627C15.1923 5.67566 13.5187 6.01822 11.9591 6.67439C10.3995 7.33056 8.98446 8.2875 7.79468 9.49055C6.6049 10.6936 5.66374 12.1192 5.02492 13.686C4.38609 15.2528 4.06213 16.9301 4.07152 18.6221L4.97795 181.919C4.98734 183.611 5.3299 185.285 5.98608 186.844C6.64225 188.404 7.59919 189.819 8.80225 191.009C10.0053 192.199 11.4309 193.14 12.9977 193.779C14.5645 194.417 16.2418 194.741 17.9338 194.732L81.3933 194.38C83.0853 194.37 84.7589 194.028 86.3185 193.372C87.8781 192.715 89.2932 191.758 90.4829 190.555C91.6727 189.352 92.6139 187.927 93.2527 186.36C93.8915 184.793 94.2155 183.116 94.2061 181.424L93.2997 18.1268C93.2903 16.4348 92.9477 14.7612 92.2915 13.2016C91.6354 11.642 90.6784 10.2269 89.4754 9.03716C88.2723 7.84739 86.8467 6.90622 85.2799 6.26741C83.7131 5.62859 82.0358 5.30463 80.3438 5.31402Z" fill="white"/>
<path d="M30.442 38.6857H26.653C26.5198 38.6857 26.392 38.7386 26.2978 38.8328C26.2036 38.927 26.1506 39.0548 26.1506 39.188V40.8511C26.1506 40.9844 26.2036 41.1121 26.2978 41.2064C26.392 41.3006 26.5198 41.3535 26.653 41.3535H27.2809V43.8454H29.8141V41.3535H30.442C30.5753 41.3535 30.703 41.3006 30.7972 41.2064C30.8914 41.1121 30.9444 40.9844 30.9444 40.8511V39.188C30.9444 39.0548 30.8914 38.927 30.7972 38.8328C30.703 38.7386 30.5753 38.6857 30.442 38.6857Z" fill="#E6E6E6"/>
<path d="M34.2371 53.9066C31.9166 50.511 30.7303 46.4682 30.8481 42.3571C30.8503 42.2623 30.8195 42.1696 30.761 42.0949C30.7026 42.0201 30.62 41.9679 30.5275 41.9471V41.2285H26.5257V41.9372H26.4706C26.3617 41.9373 26.2573 41.9807 26.1804 42.0578C26.1035 42.1349 26.0604 42.2394 26.0605 42.3483C26.0605 42.3583 26.0609 42.3682 26.0616 42.3782C26.3769 46.7729 25.3123 50.7139 22.868 54.2013C22.7273 54.4017 22.6554 54.6424 22.6632 54.8871L23.1007 68.4223C23.1112 68.7242 23.238 69.0104 23.4544 69.2211C23.6709 69.4318 23.9603 69.5508 24.2624 69.5532H33.3137C33.6192 69.5507 33.9117 69.429 34.1288 69.2141C34.3459 68.9991 34.4706 68.7079 34.4761 68.4024L34.6447 55.2608C34.6497 54.7784 34.5075 54.306 34.2371 53.9066Z" fill="#E6E6E6"/>
<path d="M32.8042 58.4026H24.9258C24.8092 58.4026 24.6939 58.4278 24.588 58.4765C24.482 58.5252 24.3878 58.5963 24.3119 58.6848C24.236 58.7733 24.1801 58.8772 24.148 58.9893C24.116 59.1014 24.1086 59.2192 24.1264 59.3344L25.3169 67.073H32.1532L33.5993 59.3605C33.6212 59.2437 33.6171 59.1235 33.5872 59.0085C33.5574 58.8934 33.5026 58.7863 33.4267 58.6949C33.3508 58.6034 33.2557 58.5298 33.1481 58.4793C33.0405 58.4288 32.9231 58.4026 32.8042 58.4026Z" fill="white"/>
<path d="M72.6212 79.2323H68.8322C68.699 79.2323 68.5712 79.2852 68.477 79.3794C68.3828 79.4736 68.3298 79.6014 68.3298 79.7346V81.3978C68.3298 81.531 68.3828 81.6588 68.477 81.753C68.5712 81.8472 68.699 81.9001 68.8322 81.9001H69.4601V84.392H71.9933V81.9001H72.6212C72.7545 81.9001 72.8822 81.8472 72.9764 81.753C73.0707 81.6588 73.1236 81.531 73.1236 81.3978V79.7346C73.1236 79.6014 73.0706 79.4736 72.9764 79.3794C72.8822 79.2852 72.7545 79.2323 72.6212 79.2323Z" fill="#E6E6E6"/>
<path d="M76.4163 94.4531C74.0957 91.0576 72.9095 87.0147 73.0273 82.9036C73.0294 82.8088 72.9987 82.7161 72.9402 82.6414C72.8817 82.5667 72.7992 82.5145 72.7067 82.4937V81.775H68.7049V82.4837H68.6498C68.5959 82.4837 68.5425 82.4944 68.4927 82.5151C68.4429 82.5358 68.3977 82.5661 68.3596 82.6043C68.3215 82.6425 68.2913 82.6878 68.2708 82.7376C68.2502 82.7875 68.2396 82.8409 68.2397 82.8948C68.2397 82.9048 68.2401 82.9147 68.2408 82.9247C68.5561 87.3194 67.4915 91.2604 65.0472 94.7478C64.9065 94.9483 64.8346 95.1889 64.8424 95.4336L65.2799 108.969C65.2904 109.271 65.4172 109.557 65.6336 109.768C65.8501 109.978 66.1395 110.097 66.4416 110.1H75.4929C75.7984 110.097 76.0909 109.976 76.308 109.761C76.5251 109.546 76.6497 109.254 76.6553 108.949L76.8239 95.8073C76.8289 95.325 76.6867 94.8526 76.4163 94.4531Z" fill="#E6E6E6"/>
<path d="M74.9834 98.949H67.105C66.9884 98.949 66.8731 98.9742 66.7672 99.0229C66.6612 99.0716 66.567 99.1426 66.4911 99.2312C66.4152 99.3197 66.3593 99.4236 66.3272 99.5357C66.2952 99.6478 66.2878 99.7656 66.3055 99.8808L67.4961 107.619H74.3324L75.7785 99.9069C75.8004 99.7901 75.7963 99.6699 75.7664 99.5548C75.7366 99.4398 75.6818 99.3327 75.6059 99.2413C75.53 99.1498 75.4348 99.0762 75.3273 99.0257C75.2197 98.9752 75.1023 98.949 74.9834 98.949H74.9834Z" fill="white"/>
<path d="M25.1152 136.553H23.3179C23.2547 136.553 23.1941 136.578 23.1494 136.623C23.1047 136.667 23.0796 136.728 23.0796 136.791V137.58C23.0796 137.643 23.1047 137.704 23.1494 137.749C23.1941 137.793 23.2547 137.818 23.3179 137.818H23.6157V139.001H24.8174V137.818H25.1152C25.1784 137.818 25.239 137.793 25.2837 137.749C25.3284 137.704 25.3535 137.643 25.3535 137.58V136.791C25.3535 136.728 25.3284 136.667 25.2837 136.623C25.239 136.578 25.1784 136.553 25.1152 136.553Z" fill="#E6E6E6"/>
<path d="M26.9154 143.773C25.8146 142.162 25.2519 140.245 25.3078 138.295C25.3088 138.25 25.2942 138.206 25.2665 138.17C25.2388 138.135 25.1996 138.11 25.1557 138.1V137.759H23.2575V138.095H23.2314C23.2058 138.095 23.1805 138.1 23.1568 138.11C23.1332 138.12 23.1118 138.134 23.0937 138.153C23.0756 138.171 23.0613 138.192 23.0516 138.216C23.0418 138.239 23.0368 138.265 23.0368 138.29C23.0368 138.295 23.037 138.3 23.0374 138.304C23.2126 140.294 22.6757 142.282 21.5225 143.913C21.4557 144.008 21.4217 144.122 21.4253 144.238L21.6329 150.658C21.6378 150.802 21.698 150.937 21.8006 151.037C21.9033 151.137 22.0406 151.194 22.1839 151.195H26.4773C26.6223 151.194 26.761 151.136 26.864 151.034C26.967 150.932 27.0261 150.794 27.0287 150.649L27.1087 144.415C27.1111 144.187 27.0436 143.962 26.9154 143.773Z" fill="#E6E6E6"/>
<path d="M26.2973 146.133H22.2007V148.181H26.2973V146.133Z" fill="white"/>
<path d="M33.4816 136.553H31.6843C31.6211 136.553 31.5605 136.578 31.5158 136.623C31.4712 136.667 31.446 136.728 31.446 136.791V137.58C31.446 137.643 31.4712 137.704 31.5158 137.749C31.5605 137.793 31.6211 137.818 31.6843 137.818H31.9822V139.001H33.1838V137.818H33.4816C33.5448 137.818 33.6055 137.793 33.6501 137.749C33.6948 137.704 33.7199 137.643 33.7199 137.58V136.791C33.7199 136.728 33.6948 136.667 33.6501 136.623C33.6055 136.578 33.5448 136.553 33.4816 136.553Z" fill="#E6E6E6"/>
<path d="M35.2818 143.773C34.1811 142.162 33.6184 140.245 33.6743 138.295C33.6753 138.25 33.6607 138.206 33.633 138.17C33.6052 138.135 33.5661 138.11 33.5222 138.1V137.759H31.624V138.095H31.5978C31.5722 138.095 31.5469 138.1 31.5233 138.11C31.4997 138.12 31.4782 138.134 31.4602 138.153C31.4421 138.171 31.4278 138.192 31.418 138.216C31.4083 138.239 31.4033 138.265 31.4033 138.29C31.4033 138.295 31.4035 138.3 31.4038 138.304C31.579 140.294 31.0422 142.282 29.8889 143.913C29.8222 144.008 29.7881 144.122 29.7918 144.238L29.9993 150.658C30.0043 150.802 30.0644 150.937 30.1671 151.037C30.2698 151.137 30.4071 151.194 30.5504 151.195H34.8438C34.9887 151.194 35.1275 151.136 35.2305 151.034C35.3335 150.932 35.3926 150.794 35.3952 150.649L35.4752 144.415C35.4775 144.187 35.4101 143.962 35.2818 143.773Z" fill="#E6E6E6"/>
<path d="M34.6638 146.133H30.5671V148.181H34.6638V146.133Z" fill="white"/>
<path d="M41.8481 136.553H40.0508C39.9876 136.553 39.927 136.578 39.8823 136.623C39.8376 136.667 39.8125 136.728 39.8125 136.791V137.58C39.8125 137.643 39.8376 137.704 39.8823 137.749C39.927 137.793 39.9876 137.818 40.0508 137.818H40.3486V139.001H41.5503V137.818H41.8481C41.9113 137.818 41.9719 137.793 42.0166 137.749C42.0613 137.704 42.0864 137.643 42.0864 137.58V136.791C42.0864 136.728 42.0613 136.667 42.0166 136.623C41.9719 136.578 41.9113 136.553 41.8481 136.553Z" fill="#E6E6E6"/>
<path d="M43.6485 143.773C42.5478 142.162 41.9851 140.245 42.041 138.295C42.042 138.25 42.0274 138.206 41.9996 138.17C41.9719 138.135 41.9328 138.11 41.8889 138.1V137.759H39.9907V138.095H39.9645C39.9389 138.095 39.9136 138.1 39.89 138.11C39.8664 138.12 39.8449 138.134 39.8269 138.153C39.8088 138.171 39.7945 138.192 39.7847 138.216C39.775 138.239 39.77 138.265 39.77 138.29C39.77 138.295 39.7702 138.3 39.7705 138.304C39.9457 140.294 39.4089 142.282 38.2556 143.913C38.1889 144.008 38.1548 144.122 38.1585 144.238L38.366 150.658C38.371 150.802 38.4311 150.937 38.5338 151.037C38.6365 151.137 38.7738 151.194 38.9171 151.195H43.2105C43.3554 151.194 43.4942 151.136 43.5971 151.034C43.7001 150.932 43.7592 150.794 43.7619 150.649L43.8419 144.415C43.8442 144.187 43.7768 143.962 43.6485 143.773Z" fill="#E6E6E6"/>
<path d="M43.0305 146.133H38.9338V148.181H43.0305V146.133Z" fill="white"/>
<path d="M66.0387 120.867H62.2497C62.1837 120.867 62.1184 120.88 62.0574 120.905C61.9965 120.931 61.9411 120.968 61.8945 121.014C61.8478 121.061 61.8108 121.116 61.7856 121.177C61.7603 121.238 61.7473 121.304 61.7473 121.37V123.033C61.7473 123.166 61.8002 123.294 61.8945 123.388C61.9887 123.482 62.1164 123.535 62.2497 123.535H62.8776V126.027H65.4108V123.535H66.0387C66.1719 123.535 66.2997 123.482 66.3939 123.388C66.4881 123.294 66.5411 123.166 66.5411 123.033V121.37C66.5411 121.304 66.5281 121.238 66.5028 121.177C66.4776 121.116 66.4406 121.061 66.3939 121.014C66.3473 120.968 66.2919 120.931 66.2309 120.905C66.17 120.88 66.1047 120.867 66.0387 120.867Z" fill="#E6E6E6"/>
<path d="M69.834 136.088C67.5135 132.693 66.3272 128.65 66.4451 124.539C66.4472 124.444 66.4164 124.351 66.3579 124.276C66.2995 124.202 66.217 124.149 66.1244 124.129V123.41H62.1227V124.119H62.0675C62.0136 124.119 61.9602 124.129 61.9104 124.15C61.8606 124.171 61.8154 124.201 61.7773 124.239C61.7393 124.277 61.7091 124.323 61.6885 124.373C61.6679 124.422 61.6574 124.476 61.6574 124.53C61.6575 124.54 61.6578 124.55 61.6586 124.56C61.9738 128.954 60.9093 132.895 58.4649 136.383C58.3242 136.583 58.2524 136.824 58.2601 137.069L58.6977 150.604C58.7082 150.906 58.8349 151.192 59.0513 151.403C59.2678 151.613 59.5573 151.732 59.8593 151.735H68.9106C69.2162 151.732 69.5086 151.611 69.7258 151.396C69.9429 151.181 70.0675 150.889 70.073 150.584L70.2416 137.442C70.2466 136.96 70.1044 136.488 69.834 136.088Z" fill="#E6E6E6"/>
<path d="M68.4009 140.584H60.5225C60.4059 140.584 60.2906 140.609 60.1847 140.658C60.0787 140.707 59.9845 140.778 59.9086 140.866C59.8327 140.955 59.7768 141.059 59.7447 141.171C59.7127 141.283 59.7053 141.401 59.723 141.516L60.9136 149.254H67.7498L69.1959 141.542C69.2178 141.425 69.2137 141.305 69.1839 141.19C69.1541 141.075 69.0992 140.968 69.0233 140.876C68.9474 140.785 68.8523 140.711 68.7447 140.661C68.6372 140.61 68.5198 140.584 68.4009 140.584Z" fill="white"/>
<path d="M68.1073 71.2957H45.521C47.1001 62.7583 46.7368 52.449 45.521 41.3621H68.1073C66.9238 52.449 66.5702 62.7583 68.1073 71.2957Z" fill="#E6E6E6"/>
<path d="M56.9503 60.9549C59.9561 60.9549 62.3928 58.5182 62.3928 55.5124C62.3928 52.5066 59.9561 50.0699 56.9503 50.0699C53.9445 50.0699 51.5078 52.5066 51.5078 55.5124C51.5078 58.5182 53.9445 60.9549 56.9503 60.9549Z" fill="white"/>
<path d="M47.4259 111.026H24.8396C26.4187 102.488 26.0554 92.1791 24.8396 81.0922H47.4259C46.2424 92.1791 45.8888 102.488 47.4259 111.026Z" fill="#E6E6E6"/>
<path d="M36.2687 100.685C39.2745 100.685 41.7111 98.2484 41.7111 95.2426C41.7111 92.2369 39.2745 89.8002 36.2687 89.8002C33.2629 89.8002 30.8262 92.2369 30.8262 95.2426C30.8262 98.2484 33.2629 100.685 36.2687 100.685Z" fill="white"/>
<path d="M80.8973 73.2006H58.311C59.8901 64.6632 59.5268 54.3539 58.311 43.267H80.8973C79.7139 54.3539 79.3602 64.6632 80.8973 73.2006Z" fill="#E6E6E6"/>
<path d="M69.7401 62.8598C72.7459 62.8598 75.1826 60.4231 75.1826 57.4173C75.1826 54.4115 72.7459 51.9749 69.7401 51.9749C66.7343 51.9749 64.2976 54.4115 64.2976 57.4173C64.2976 60.4231 66.7343 62.8598 69.7401 62.8598Z" fill="white"/>
<path d="M80.8973 71.8399H58.311C59.8901 63.3024 59.5268 52.9932 58.311 41.9062H80.8973C79.7139 52.9932 79.3602 63.3025 80.8973 71.8399Z" fill="#E6E6E6"/>
<path d="M69.7401 61.4992C72.7459 61.4992 75.1826 59.0625 75.1826 56.0567C75.1826 53.0509 72.7459 50.6143 69.7401 50.6143C66.7343 50.6143 64.2976 53.0509 64.2976 56.0567C64.2976 59.0625 66.7343 61.4992 69.7401 61.4992Z" fill="white"/>
<path d="M80.8973 73.2006H58.311C59.8901 64.6632 59.5268 54.3539 58.311 43.267H80.8973C79.7139 54.3539 79.3602 64.6632 80.8973 73.2006Z" fill="#E6E6E6"/>
<path d="M69.7401 62.8598C72.7459 62.8598 75.1826 60.4231 75.1826 57.4173C75.1826 54.4115 72.7459 51.9749 69.7401 51.9749C66.7343 51.9749 64.2976 54.4115 64.2976 57.4173C64.2976 60.4231 66.7343 62.8598 69.7401 62.8598Z" fill="white"/>
<path d="M86.0676 69.663H12.0498V77.8267H86.0676V69.663Z" fill="#E6E6E6"/>
<path d="M86.0676 110.209H12.0498V118.373H86.0676V110.209Z" fill="#E6E6E6"/>
<path d="M86.0676 150.756H12.0498V158.92H86.0676V150.756Z" fill="#E6E6E6"/>
</g>
<defs>
<clipPath id="clip0_11_809">
<rect width="211.582" height="200" fill="white"/>
</clipPath>
</defs>
</svg>
