<svg width="24" height="24" viewBox="0 0 24 24" fill="none" xmlns="http://www.w3.org/2000/svg">
<path d="M16 11V6.65714C16 5.68721 15.5786 4.757 14.8284 4.07115C14.0783 3.3853 13.0609 3 12 3C10.9391 3 9.92172 3.3853 9.17157 4.07115C8.42143 4.757 8 5.68721 8 6.65714V11" stroke="#3C4377" stroke-width="2.5" stroke-linecap="round" stroke-linejoin="round"/>
<path d="M16.9 11H7.1C5.9402 11 5 11.7901 5 12.7647V19.2353C5 20.2099 5.9402 21 7.1 21H16.9C18.0598 21 19 20.2099 19 19.2353V12.7647C19 11.7901 18.0598 11 16.9 11Z" stroke="#3C4377" stroke-width="2.5" stroke-linecap="round" stroke-linejoin="round"/>
</svg>
