<svg width="200" height="200" viewBox="0 0 200 200" fill="none" xmlns="http://www.w3.org/2000/svg">
<path d="M64.2573 16.9975L3.61529 184.749C0.669671 191.975 7.74682 199.241 15.0271 196.465L182.223 136.525L138.257 68.3331L64.2573 16.9975Z" fill="#ECB880"/>
<path d="M24.3408 193.125L15.0286 196.465C7.74753 199.242 0.669603 191.973 3.61483 184.751L64.2576 16.9975L72.4957 22.7121L15.3333 180.844C12.7161 187.262 18.0168 193.719 24.3408 193.125Z" fill="#E9A761"/>
<path d="M169.675 137.514C168.546 136.383 167.573 135.058 166.809 133.556C144.534 89.7478 109.651 54.7937 65.9331 32.4725C58.2638 28.5566 55.2143 19.1517 59.122 11.4664C63.0297 3.78069 72.4149 0.72531 80.085 4.64082C104.619 17.1674 126.931 33.4115 146.402 52.9219C165.872 72.4323 182.083 94.7902 194.583 119.375C198.491 127.06 195.442 136.465 187.772 140.381C181.602 143.531 174.32 142.169 169.675 137.514Z" fill="#E9A761"/>
<path d="M184.149 141.697C178.923 142.892 173.435 141.283 169.673 137.513C168.544 136.385 167.572 135.057 166.81 133.557C144.533 89.7492 109.651 54.7932 65.9338 32.4735C58.2621 28.5556 55.2153 19.1535 59.1215 11.4663C59.5355 10.6499 60.0121 9.88817 60.5433 9.18116C60.5472 14.8646 63.6565 20.3371 69.0587 23.0987C112.776 45.4184 156.252 85.8431 178.528 129.65C179.009 130.596 181.837 136.885 184.149 141.697Z" fill="#E69642"/>
<path d="M94.7253 154.494C106.375 154.494 115.819 145.05 115.819 133.401C115.819 121.751 106.375 112.308 94.7253 112.308C83.0759 112.308 73.6322 121.751 73.6322 133.401C73.6322 145.05 83.0759 154.494 94.7253 154.494Z" fill="#DC4955"/>
<path d="M113.03 143.893C109.389 150.228 102.553 154.494 94.7253 154.494C83.0772 154.494 73.6322 145.049 73.6322 133.401C73.6322 125.573 77.8977 118.737 84.2334 115.096C82.46 118.186 81.4445 121.768 81.4445 125.588C81.4445 137.236 90.8895 146.682 102.538 146.682C106.358 146.682 109.94 145.666 113.03 143.893Z" fill="#D82F3C"/>
<path d="M48.2423 154.494C48.2423 166.142 38.7973 175.587 27.1492 175.587C20.1064 175.587 13.8722 172.138 10.0403 166.833L21.7782 134.092C23.493 133.639 25.2938 133.401 27.1492 133.401C38.7973 133.401 48.2423 142.846 48.2423 154.494Z" fill="#DC4955"/>
<path d="M78.3195 67.3866C78.3195 79.0347 68.8745 88.4797 57.2264 88.4797C54.414 88.4797 51.7344 87.9289 49.2813 86.9329C46.0978 85.636 43.3049 83.5853 41.1175 81.0034L53.5507 46.6137C54.7421 46.4028 55.9725 46.2934 57.2264 46.2934C59.4529 46.2934 61.5974 46.6371 63.6129 47.2816C72.14 49.9847 78.3195 57.9649 78.3195 67.3866Z" fill="#DC4955"/>
<path d="M32.2582 134.026L17.9891 173.497C14.8329 171.978 12.1181 169.693 10.0752 166.88L21.9421 134.053C23.6061 133.623 25.3521 133.401 27.149 133.401C28.9106 133.401 30.6215 133.615 32.2582 134.026Z" fill="#D82F3C"/>
<path d="M63.613 47.2816L49.2813 86.9328C46.0978 85.636 43.3049 83.5853 41.1175 81.0033L53.5507 46.6137C54.7421 46.4028 55.9725 46.2934 57.2264 46.2934C59.4529 46.2934 61.5974 46.6371 63.613 47.2816Z" fill="#D82F3C"/>
<path d="M89.2035 80.4666C90.9738 75.3707 96.6068 72.4973 99.3997 71.3528C100.328 70.9724 101.387 71.3525 101.864 72.2348C103.318 74.9246 105.93 80.8334 104.154 85.9458C102.384 91.0417 96.751 93.9151 93.9581 95.0596C93.03 95.44 91.971 95.06 91.4941 94.1776C90.0402 91.4878 87.4278 85.579 89.2035 80.4666Z" fill="#B7E546"/>
<path d="M104.729 82.9294C104.674 83.945 104.494 84.9606 104.155 85.9449C102.384 91.0409 96.751 93.915 93.9585 95.0599C93.0304 95.4404 91.9718 95.0603 91.4945 94.1783C90.0398 91.4889 87.4258 85.5809 89.2016 80.4685C89.4555 79.7342 89.7914 79.0467 90.1898 78.4061C89.9281 83.1329 92.339 87.8785 93.4167 89.7437C93.7022 90.2382 94.3022 90.4519 94.8366 90.2511C96.9408 89.4605 102.134 87.1605 104.729 82.9294Z" fill="#ABD641"/>
<path d="M123.059 116.425C119.741 112.236 120.328 106.003 120.857 103.05C121.033 102.062 121.923 101.373 122.923 101.444C125.954 101.661 132.278 102.624 135.607 106.827C138.926 111.017 138.338 117.25 137.81 120.203C137.633 121.191 136.744 121.88 135.743 121.808C132.712 121.591 126.388 120.628 123.059 116.425Z" fill="#B7E546"/>
<path d="M138.173 117.182C138.102 118.288 137.986 119.185 137.81 120.209C137.631 121.194 136.74 121.881 135.744 121.807C131.761 121.489 127.559 120.493 124.436 117.854C120.225 114.272 119.975 108.098 120.858 103.05C120.916 102.729 121.049 102.44 121.24 102.198C121.147 105.233 121.623 108.94 123.838 111.737C128.127 117.151 137.377 117.19 138.173 117.182Z" fill="#ABD641"/>
<path d="M46.7367 119.952C44.7012 114.792 47.3503 108.741 48.6655 106.248C49.0303 105.557 49.8467 105.234 50.5807 105.503C53.2513 106.482 59.423 109.244 61.4675 114.428C63.503 119.587 60.8539 125.638 59.5387 128.131C59.1738 128.823 58.3574 129.146 57.6235 128.877C54.9528 127.897 48.7811 125.135 46.7367 119.952Z" fill="#B7E546"/>
<path d="M61.0895 124.569C60.6575 125.807 60.1395 126.991 59.5349 128.135C59.1716 128.819 58.3669 129.139 57.6404 128.885C53.2987 127.241 48.5879 124.493 46.7344 119.952C46.1485 118.467 45.9493 116.909 46.0001 115.385C46.1079 112.17 47.2254 109.005 48.6836 106.214C48.832 105.952 49.0469 105.745 49.293 105.608C48.3672 108.444 47.8047 112.03 49.0781 115.264C51.5351 121.487 59.9372 124.221 61.0895 124.569Z" fill="#ABD641"/>
<path d="M197.195 118.047C184.555 93.1878 168.163 70.5802 148.475 50.8522C128.787 31.1235 106.225 14.6978 81.4172 2.03172C77.0134 -0.216263 71.9987 -0.613908 67.2961 0.914174C62.5876 2.44421 58.7573 5.7199 56.5104 10.1385C53.607 15.8497 53.9507 22.3769 56.8503 27.5966L50.3602 45.6977C50.359 45.7012 50.3571 45.7043 50.3559 45.7074L47.4474 53.8209L19.0232 133.097C19.0224 133.099 19.0216 133.101 19.0209 133.103L15.8577 141.926L0.878009 183.705C-0.900848 188.135 0.0639689 193 3.40294 196.416C6.75441 199.859 11.6539 200.888 16.0432 199.213L71.7542 179.23C73.2772 178.684 74.0689 177.006 73.5225 175.483C72.976 173.96 71.2991 173.17 69.7757 173.715L14.0386 193.708C11.7406 194.606 9.31879 194.09 7.59345 192.321C5.86967 190.558 5.39702 188.141 6.32864 185.855C6.34465 185.816 6.3595 185.777 6.37356 185.738L11.1558 172.399C15.519 176.286 21.2095 178.516 27.1495 178.516C40.3957 178.516 51.1723 167.74 51.1723 154.493C51.1723 141.247 40.3957 130.471 27.1495 130.471C26.8261 130.471 26.5039 130.479 26.1816 130.492L42.1147 86.0544C46.3533 89.4941 51.6532 91.4093 57.2268 91.4093C70.4729 91.4093 81.2496 80.6326 81.2496 67.3865C81.2496 54.2049 70.5768 43.4731 57.4198 43.3684L61.1966 32.8344C70.2444 38.6014 80.2738 43.1661 88.9666 49.4609C90.3064 50.3667 92.1282 50.0159 93.0348 48.6757C93.9414 47.3355 93.5899 45.5141 92.2501 44.6079C84.2956 39.2268 75.8896 34.2652 67.266 29.8622C61.0455 26.6861 58.5635 19.0289 61.7337 12.7931C63.2704 9.77174 65.8887 7.53157 69.107 6.48589C72.3194 5.44295 75.7447 5.71365 78.7532 7.24954C103.012 19.6355 125.075 35.698 144.328 54.9908C163.581 74.2836 179.611 96.392 191.972 120.703C195.143 126.938 192.661 134.595 186.44 137.772C180.305 141.004 172.429 138.354 169.421 132.228C153.403 100.726 131.219 73.9703 103.486 52.7057C102.203 51.7217 100.364 51.9639 99.3792 53.2483C98.3944 54.5322 98.6374 56.3712 99.9213 57.3559C128.774 78.744 149.641 107.385 166.928 138.868L82.6456 169.099C81.1226 169.645 80.3309 171.323 80.8773 172.846C81.4215 174.384 83.1413 175.158 84.6241 174.614L172.489 143.098C177.712 145.694 183.853 145.674 189.105 142.99C198.198 138.347 201.827 127.158 197.195 118.047ZM27.1495 136.33C37.1649 136.33 45.3131 144.478 45.3131 154.493C45.3131 164.509 37.1649 172.657 27.1495 172.657C21.836 172.657 16.7795 170.304 13.3448 166.297L21.3247 144.038L23.9906 136.603C25.0262 136.421 26.0836 136.33 27.1495 136.33ZM57.2268 49.223C67.2422 49.223 75.3904 57.3708 75.3904 67.3865C75.3904 77.4023 67.2422 85.5501 57.2268 85.5501C52.3051 85.5501 47.6603 83.581 44.2526 80.0979L52.0774 58.2688L55.2839 49.3253C55.9245 49.2573 56.5741 49.223 57.2268 49.223Z" fill="black"/>
<path d="M73.7179 129.888C72.1129 129.836 70.7547 131.122 70.7114 132.739C70.3215 146.209 81.2482 157.445 94.7255 157.423C107.972 157.423 118.748 146.646 118.748 133.4C118.748 120.154 107.972 109.377 94.7255 109.377C87.514 109.377 80.7482 112.575 76.1632 118.15C75.1355 119.4 75.3155 121.246 76.5651 122.274C77.8151 123.302 79.6611 123.122 80.6888 121.872C84.1563 117.655 89.2725 115.237 94.7255 115.237C104.741 115.237 112.889 123.385 112.889 133.401C112.889 143.416 104.741 151.564 94.7255 151.564C84.5336 151.581 76.2702 143.081 76.569 132.895C76.612 131.277 75.3355 129.931 73.7179 129.888Z" fill="black"/>
<path d="M92.3573 98.5775C92.6381 98.5775 92.9221 98.5369 93.201 98.4533C93.6436 98.3197 104.076 95.0976 106.921 86.9075C109.753 78.7554 103.697 69.5295 103.438 69.1408C102.723 68.0686 101.39 67.5909 100.157 67.9604C99.7141 68.094 89.2812 71.3162 86.4363 79.5062C83.6044 87.6583 89.6605 96.8842 89.9198 97.2729C90.4733 98.1025 91.396 98.5775 92.3573 98.5775ZM91.9709 81.428C93.144 78.0511 96.9607 75.6582 99.6973 74.4075C101.062 77.1754 102.574 81.5667 101.387 84.9845C100.214 88.3614 96.397 90.7543 93.6604 92.0051C92.2952 89.2375 90.7835 84.8459 91.9709 81.428Z" fill="black"/>
<path d="M128.684 105.58C130.204 106.138 131.886 105.356 132.442 103.836C132.999 102.317 132.218 100.635 130.698 100.078C126.032 98.3702 121.354 98.4514 121.156 98.4545C119.867 98.4823 118.748 99.349 118.399 100.59C118.274 101.032 115.413 111.492 120.762 118.245C125.924 124.635 135.628 124.783 137.509 124.798C138.798 124.771 139.917 123.903 140.266 122.663C140.318 122.481 141.515 118.152 141.035 113.354C140.875 111.744 139.438 110.568 137.829 110.73C136.219 110.891 135.044 112.327 135.205 113.936C135.386 115.742 135.249 117.495 135.064 118.813C132.025 118.478 127.572 117.405 125.355 114.606C123.165 111.841 123.187 107.4 123.593 104.447C124.998 104.598 126.867 104.915 128.684 105.58Z" fill="black"/>
<path d="M50.1157 102.263C48.874 101.915 47.5521 102.421 46.858 103.507C46.6119 103.893 40.8613 113.042 44.0112 121.027C47.1467 128.976 57.6428 131.992 58.0881 132.116C59.3073 132.463 60.6525 131.965 61.3459 130.872C61.592 130.487 67.3426 121.338 64.1927 113.353C61.0572 105.404 50.561 102.388 50.1157 102.263ZM57.4952 125.67C54.9296 124.58 50.8356 122.359 49.4618 118.877C48.1767 115.619 49.4728 111.405 50.7091 108.709C53.2746 109.799 57.3686 112.02 58.7424 115.503C60.0275 118.761 58.7315 122.975 57.4952 125.67Z" fill="black"/>
</svg>
