<svg width="100" height="100" viewBox="0 0 100 100" fill="none" xmlns="http://www.w3.org/2000/svg">
<g clip-path="url(#clip0_11_1770)">
<path d="M50.6929 41.5422C37.7796 28.6305 23.6202 21.8548 19.0653 26.4081C18.5655 26.9316 18.1977 27.5666 17.9923 28.2607L17.919 28.1874L13.5691 46.0138L9.23742 63.7868L4.10276 84.832L0.852356 98.1601L20.0965 90.878L44.5737 81.6166L64.101 74.2278L64.0777 74.2044C64.7314 73.996 65.3295 73.6424 65.827 73.1698C70.3819 68.615 63.6062 54.4555 50.6929 41.5422Z" fill="#DD1C4B"/>
<path d="M50.6928 41.537C37.78 28.6242 23.6201 21.8482 19.0658 26.4025C14.5115 30.9568 21.2874 45.1167 34.2003 58.0296C47.1131 70.9424 61.273 77.7183 65.8273 73.164C70.3816 68.6097 63.6057 54.4498 50.6928 41.537Z" fill="#D1E3EE"/>
<path d="M62.3284 74.8042C59.9968 74.845 57.6836 74.386 55.5444 73.4581L39.5839 79.4974L15.0985 88.7504L1.96859 93.7185L0.852356 98.2951L20.0965 91.0129L44.5737 81.7515L62.495 74.9708L62.3284 74.8042Z" fill="#B21D48"/>
<path d="M82.4873 61.6427C82.2877 61.6421 82.0899 61.6064 81.9025 61.5377C73.4447 58.3692 64.3023 57.4807 55.3928 58.962L49.4418 59.9533C48.5309 60.0833 47.6871 59.4502 47.5571 58.5393C47.4315 57.6592 48.019 56.8356 48.892 56.6679L54.8447 55.6683C64.3314 54.0921 74.0657 55.0373 83.072 58.4089C83.9379 58.7201 84.3876 59.6743 84.0764 60.5402C83.8361 61.2091 83.198 61.6518 82.4873 61.6427Z" fill="#FFBF41"/>
<path d="M52.499 51.6465C51.5789 51.6411 50.8373 50.8907 50.8427 49.9707C50.8465 49.3355 51.2109 48.7578 51.7826 48.481L86.769 31.8209C87.5999 31.4252 88.5941 31.778 88.9898 32.6089C89.3854 33.4398 89.0327 34.434 88.2017 34.8297L53.2154 51.4899C52.9913 51.5946 52.7466 51.6481 52.499 51.6465Z" fill="#FFBF41"/>
<path d="M33.0165 48.3145C32.7968 48.3149 32.5792 48.2714 32.3768 48.1862C31.5275 47.832 31.1262 46.8565 31.4805 46.0073V46.007L33.9029 40.1943C37.6299 31.2884 38.499 21.4447 36.3902 12.0236C36.1741 11.1292 36.724 10.2291 37.6183 10.0129C38.5127 9.79678 39.4128 10.3468 39.629 11.241C39.6337 11.2608 39.6381 11.2806 39.6423 11.3006C41.9014 21.3927 40.9699 31.9373 36.9767 41.4771L34.5526 47.2899C34.294 47.9098 33.6884 48.3139 33.0165 48.3145Z" fill="#FFBF41"/>
<path d="M90.8173 68.3067C92.6576 68.3067 94.1494 66.8149 94.1494 64.9747C94.1494 63.1345 92.6576 61.6427 90.8173 61.6427C88.9771 61.6427 87.4853 63.1345 87.4853 64.9747C87.4853 66.8149 88.9771 68.3067 90.8173 68.3067Z" fill="#D5557E"/>
<path d="M50.8329 21.6582C52.6731 21.6582 54.1649 20.1664 54.1649 18.3262C54.1649 16.486 52.6731 14.9942 50.8329 14.9942C48.9927 14.9942 47.5009 16.486 47.5009 18.3262C47.5009 20.1664 48.9927 21.6582 50.8329 21.6582Z" fill="#DD95C1"/>
<path d="M35.8387 6.66407C33.9984 6.66407 32.5067 5.17236 32.5067 3.33204C32.5067 1.49171 33.9984 0 35.8387 0C37.6791 0 39.1708 1.49171 39.1708 3.33204C39.1708 5.17236 37.6791 6.66407 35.8387 6.66407Z" fill="#7FCCCB"/>
<path d="M82.4872 13.3281C81.5671 13.3281 80.8212 12.5822 80.8212 11.6621V9.99611C80.8212 9.07605 81.5671 8.33009 82.4872 8.33009C83.4072 8.33009 84.1532 9.07605 84.1532 9.99611V11.6621C84.1532 12.5822 83.4075 13.3281 82.4872 13.3281Z" fill="#2276BB"/>
<path d="M82.4872 4.99805C81.5671 4.99805 80.8212 4.25209 80.8212 3.33204V1.66602C80.8212 0.745959 81.5671 0 82.4872 0C83.4072 0 84.1532 0.745959 84.1532 1.66602V3.33204C84.1532 4.25209 83.4075 4.99805 82.4872 4.99805Z" fill="#2276BB"/>
<path d="M87.4852 8.33008H85.8192C84.8992 8.33008 84.1532 7.58412 84.1532 6.66406C84.1532 5.74401 84.8992 4.99805 85.8192 4.99805H87.4852C88.4053 4.99805 89.1513 5.74401 89.1513 6.66406C89.1513 7.58412 88.4055 8.33008 87.4852 8.33008Z" fill="#2276BB"/>
<path d="M79.1552 8.33008H77.4891C76.5691 8.33008 75.8231 7.58412 75.8231 6.66406C75.8231 5.74401 76.5691 4.99805 77.4891 4.99805H79.1552C80.0752 4.99805 80.8212 5.74401 80.8212 6.66406C80.8212 7.58412 80.0754 8.33008 79.1552 8.33008Z" fill="#2276BB"/>
<path d="M14.0772 48.3145C13.8906 47.6015 13.724 46.8818 13.5691 46.1487L9.23743 63.9218L9.57063 67.9852C10.2968 76.6483 14.0183 84.7876 20.0949 91.0046L44.5737 81.7515C44.4404 81.7099 44.3021 81.6799 44.1688 81.6349C29.3256 76.0693 18.1065 63.6463 14.0772 48.3145Z" fill="white"/>
<path d="M44.5736 81.7514C44.4404 81.7098 44.3021 81.6798 44.1688 81.6348C42.5653 81.0278 40.9946 80.3366 39.464 79.564L17.4159 87.9057C18.2518 88.9899 19.1467 90.0272 20.0965 91.0128L44.5736 81.7514Z" fill="#F6F6E7"/>
<path d="M70.825 19.9572V28.3223H62.46V19.9572H70.825Z" fill="#C9DA53"/>
<path d="M40.8368 49.9805C39.9167 49.9803 39.171 49.2342 39.1712 48.3141C39.1714 47.8422 39.3715 47.3926 39.7222 47.0767L56.3824 32.0825C57.0782 31.4805 58.1303 31.5565 58.7323 32.2522C59.3177 32.9286 59.2644 33.9466 58.6115 34.5582L41.9514 49.5524C41.6457 49.8279 41.2485 49.9803 40.8368 49.9805Z" fill="#FFBF41"/>
<path d="M89.1513 43.3165C88.2312 43.3165 87.4853 42.5705 87.4853 41.6504V39.9844C87.4853 39.0644 88.2312 38.3184 89.1513 38.3184C90.0714 38.3184 90.8173 39.0644 90.8173 39.9844V41.6504C90.8173 42.5705 90.0716 43.3165 89.1513 43.3165Z" fill="#FFDB43"/>
<path d="M95.0423 40.8757C94.6002 40.877 94.176 40.7012 93.8644 40.3876L92.6866 39.2097C92.0474 38.5479 92.0656 37.4931 92.7274 36.854C93.373 36.2304 94.3965 36.2304 95.0423 36.854L96.2202 38.0318C96.8708 38.6826 96.8706 39.7374 96.2198 40.388C95.9076 40.7002 95.484 40.8757 95.0423 40.8757Z" fill="#FFDB43"/>
<path d="M97.4813 34.9864H95.8153C94.8953 34.9864 94.1493 34.2404 94.1493 33.3203C94.1493 32.4003 94.8953 31.6543 95.8153 31.6543H97.4813C98.4014 31.6543 99.1473 32.4003 99.1473 33.3203C99.1473 34.2404 98.4016 34.9864 97.4813 34.9864Z" fill="#FFDB43"/>
<path d="M93.8645 30.2749C92.9444 30.2747 92.1986 29.5287 92.1989 28.6085C92.1989 28.1668 92.3744 27.7432 92.6866 27.431L93.8645 26.2531C94.5263 25.6138 95.5809 25.6321 96.2202 26.294C96.8437 26.9395 96.8437 27.9631 96.2202 28.6089L95.0423 29.7868C94.73 30.0991 94.3064 30.2749 93.8645 30.2749Z" fill="#FFDB43"/>
<path d="M89.1513 28.3223C88.2312 28.3223 87.4853 27.5763 87.4853 26.6563V24.9903C87.4853 24.0702 88.2312 23.3242 89.1513 23.3242C90.0714 23.3242 90.8173 24.0702 90.8173 24.9903V26.6563C90.8173 27.5763 90.0716 28.3223 89.1513 28.3223Z" fill="#FFDB43"/>
<path d="M84.4381 30.2749C83.9962 30.2749 83.5726 30.0991 83.2603 29.7868L82.0824 28.6089C81.4433 27.9471 81.4614 26.8923 82.1232 26.2531C82.7688 25.6296 83.7924 25.6296 84.4381 26.2531L85.616 27.431C86.2666 28.0818 86.2664 29.1366 85.6156 29.7872C85.3034 30.0993 84.8799 30.2749 84.4381 30.2749Z" fill="#FFDB43"/>
<path d="M9.18244 1.66602L11.7564 6.88232L17.5125 7.71866L13.3475 11.7787L14.3304 17.5115L9.18244 14.8042L4.03445 17.5115L5.0174 11.7787L0.852356 7.71866L6.60845 6.88232L9.18244 1.66602Z" fill="#FFDB43"/>
<path d="M98.621 90.2415C97.8286 87.4333 96.0041 85.0286 93.513 83.5092L92.8266 82.4796C88.9779 76.7241 82.9259 72.8106 76.0981 71.6621C75.1872 71.5322 74.3434 72.1653 74.2134 73.0761C74.0878 73.9562 74.6753 74.7799 75.5483 74.9475C80.4731 75.7834 84.9611 78.2854 88.2617 82.0347C85.4867 82.5339 83.0598 84.2006 81.5976 86.6113C79.8033 89.8248 80.9539 93.8843 84.1675 95.6786C87.381 97.4729 91.4405 96.3223 93.2348 93.1088C93.9201 91.7857 94.2902 90.3219 94.316 88.8321C96.0886 91.4067 96.2305 94.7689 94.6809 97.4837C94.2115 98.2751 94.4724 99.2972 95.2638 99.7666C96.0551 100.236 97.0772 99.975 97.5466 99.1837C97.5616 99.1583 97.576 99.1327 97.5897 99.1064C99.1033 96.4077 99.4746 93.2156 98.621 90.2415ZM90.3292 91.4827C89.44 93.094 87.4131 93.6792 85.802 92.7899C84.1908 91.9007 83.6056 89.8738 84.4948 88.2627C84.4998 88.2538 84.5048 88.2446 84.5098 88.2357C85.493 86.6259 87.1513 85.5467 89.0214 85.3001C89.3111 85.2922 89.5978 85.3589 89.8544 85.4934C91.2605 86.2781 91.3355 89.6801 90.3292 91.4827Z" fill="#2BB3CE"/>
</g>
<defs>
<clipPath id="clip0_11_1770">
<rect width="100" height="100" fill="white"/>
</clipPath>
</defs>
</svg>
