<svg width="100" height="100" viewBox="0 0 100 100" fill="none" xmlns="http://www.w3.org/2000/svg">
<path d="M12.0523 26.365C5.40664 26.365 0 31.7719 0 38.4176V40.006L7.63223 47.2922L0 54.0709V77.0398C0 83.6855 5.40664 89.0924 12.0523 89.0924H47.0723L53.1094 62.2373L47.0723 26.3652H12.0523V26.365Z" fill="#C4E83B"/>
<path d="M60.0561 26.365H47.0723V89.0924H82.0922C88.7379 89.0924 94.1445 83.6855 94.1445 77.0398V46.2517L60.0561 26.365Z" fill="#9DDB2C"/>
<path d="M51.9528 72.642H71.3131V78.5039H51.9528V72.642Z" fill="#75B843"/>
<path d="M77.6408 72.642H84.1414V78.5039H77.6408V72.642Z" fill="#75B843"/>
<path d="M16.9873 80.3045C12.0061 80.3045 7.95374 76.2519 7.95374 71.2709C7.95374 66.2898 12.0061 62.2373 16.9873 62.2373C21.9686 62.2373 26.0209 66.2898 26.0209 71.2709C26.0209 76.2519 21.9686 80.3045 16.9873 80.3045Z" fill="#FFEE42"/>
<path d="M0 40.006V54.0709H47.0725L50.9449 47.2921L47.0725 40.006H0Z" fill="#6058AD"/>
<path d="M47.0724 40.006H77.6275V54.0709H47.0724V40.006Z" fill="#453F81"/>
<path d="M56.8367 32.4893C56.8367 44.3895 66.5182 54.071 78.4184 54.071L82.4932 32.9175L78.4184 10.9077C66.5182 10.9077 56.8367 20.5891 56.8367 32.4893Z" fill="#FD3E81"/>
<path d="M78.4184 10.9077V54.071C90.3186 54.071 100 44.3895 100 32.4893C100 20.5891 90.3186 10.9077 78.4184 10.9077Z" fill="#E50070"/>
<path d="M75.4886 19.1678V33.8696H78.4183L79.8843 26.5186L78.4183 19.1678H75.4886Z" fill="#EDF5FF"/>
<path d="M75.4887 41.7437C75.5598 43.331 76.776 44.6734 78.4184 44.6734L79.4807 41.7154L78.4184 38.814C76.8859 38.814 75.4178 40.1615 75.4887 41.7437Z" fill="#EDF5FF"/>
<path d="M78.4184 19.1678H81.3481V33.8696H78.4184V19.1678Z" fill="#D6E8FD"/>
<path d="M81.3481 41.7435C81.277 40.1562 80.0608 38.8138 78.4184 38.8138V44.6732C79.9508 44.6732 81.419 43.3256 81.3481 41.7435Z" fill="#D6E8FD"/>
</svg>
