<svg width="256" height="200" viewBox="0 0 256 200" fill="none" xmlns="http://www.w3.org/2000/svg">
<g clip-path="url(#clip0_11_1232)">
<path opacity="0.1" d="M89.6612 196.126C114.285 196.126 134.247 192.345 134.247 187.68C134.247 183.015 114.285 179.234 89.6612 179.234C65.0369 179.234 45.075 183.015 45.075 187.68C45.075 192.345 65.0369 196.126 89.6612 196.126Z" fill="#1A73E9"/>
<path opacity="0.1" d="M148.507 28.205C132.121 27.6378 116.514 22.3462 101.612 16.5584C86.709 10.7705 71.9482 4.35982 55.9544 1.29373C45.6674 -0.678601 33.9018 -0.959638 25.615 4.54971C17.6371 9.86664 15.0596 19.0193 13.6747 27.5188C12.6316 33.9143 12.0188 40.6466 14.8748 46.6345C16.8598 50.7918 20.3791 54.2858 22.8147 58.2684C31.2889 72.1228 25.2985 89.2078 16.1179 102.736C11.8138 109.08 6.81333 115.142 3.48898 121.889C0.164635 128.637 -1.37221 136.394 1.53691 143.296C4.41818 150.132 11.2871 155.257 18.7283 158.865C33.841 166.194 51.6426 168.291 69.0138 169.481C107.455 172.109 146.099 170.972 184.642 169.83C198.906 169.41 213.232 168.982 227.263 166.777C235.056 165.551 243.1 163.607 248.759 158.913C255.939 152.955 257.719 142.868 252.906 135.399C244.834 122.867 222.524 119.755 216.875 106.308C213.771 98.9049 216.959 90.6611 221.473 83.7972C231.155 69.0694 247.382 56.1492 248.235 39.3174C248.822 27.7568 241.021 16.1786 228.96 10.7072C216.318 4.97253 198.785 5.69412 189.462 15.1861C179.854 24.949 162.977 28.7088 148.507 28.205Z" fill="#1A73E9"/>
<path d="M135.485 91.5879L127.73 86.3596L131.642 80.5363L111.159 78.9032L103.799 84.5949L94.5855 79.4298L86.9013 80.354L86.8102 78.3285C86.7151 76.2169 86.5029 74.1122 86.1747 72.0241C86.2076 71.3912 86.2304 70.6645 86.2278 69.8746C86.2278 66.5452 85.7772 62.1321 83.7973 59.1901L84.253 55.0935L80.5565 50.726C81.1501 49.5435 81.827 48.4047 82.5819 47.3181C82.7085 47.1358 82.8351 46.9586 82.9719 46.7864C87.7698 46.4396 91.5549 42.4949 91.5549 37.6717C91.5549 37.4489 91.5549 37.2261 91.5296 37.0058C91.5296 36.9172 91.5119 36.8261 91.5017 36.7374C91.9701 36.9906 92.4436 37.2438 92.917 37.497C93.0057 37.6236 93.1069 37.7502 93.2183 37.8996L93.2411 37.9274L93.3829 38.1021L93.4285 38.1553C93.4791 38.2161 93.5323 38.2743 93.5855 38.3351L93.6209 38.3756C93.7551 38.525 93.8969 38.6769 94.0488 38.8262C94.0669 38.841 94.0838 38.857 94.0994 38.8743L94.2893 39.0516L94.3425 39.0997C94.5045 39.244 94.6767 39.3833 94.8489 39.5149L94.9046 39.5554L95.1223 39.7048L95.1932 39.7504C95.2767 39.801 95.3628 39.8542 95.4464 39.9023L95.4768 39.92C95.5755 39.9732 95.6768 40.0238 95.7781 40.0719L95.8287 40.0922C95.9148 40.1293 95.9992 40.1648 96.0819 40.1985L96.1604 40.2264C96.249 40.2567 96.3351 40.2846 96.4262 40.3099L96.4819 40.3251C96.5933 40.353 96.7047 40.3757 96.8187 40.3935H96.8313C96.9386 40.4108 97.0468 40.4218 97.1554 40.4264H97.2288C97.3258 40.4315 97.423 40.4315 97.52 40.4264H97.5833C97.7047 40.4194 97.8256 40.405 97.9453 40.3833C98.5118 40.3089 99.0558 40.1137 99.5404 39.8111C99.6638 39.7286 99.7732 39.6269 99.8645 39.5098C100.371 38.8465 99.8139 38.1198 99.8139 38.1198C99.6164 37.6489 98.3352 37.3172 98.3352 37.3172C98.3352 37.3172 94.2843 35.626 94.2843 34.279C94.2843 32.932 93.2715 25.9441 82.8174 24.3465C82.8174 24.3465 76.0168 23.9642 74.1053 27.605L74.0647 28.0303C73.5027 28.3823 73.0368 29.0887 72.4823 29.2963C72.2428 29.3477 72.0117 29.433 71.7962 29.5495V29.5014C71.7322 29.5573 71.6797 29.6253 71.6417 29.7014C71.5226 29.9384 71.4512 30.1964 71.4316 30.4609C71.3745 30.7841 71.2624 31.0949 71.0999 31.38C71.0546 31.461 71.0039 31.5388 70.948 31.6129L70.905 31.6813C71.1989 31.7042 71.4941 31.6565 71.7658 31.5421C71.723 31.8887 71.638 32.2288 71.5126 32.5548C71.6736 32.56 71.8326 32.5189 71.9709 32.4363C72.1091 32.3537 72.2207 32.2331 72.2924 32.0889V32.0687L72.3253 32.0231C72.389 31.9059 72.4416 31.783 72.4823 31.656L72.4545 31.6864C72.5051 31.5218 72.5507 31.3547 72.6064 31.1927C72.6319 31.1014 72.6739 31.0156 72.7304 30.9395C72.798 30.8713 72.8806 30.82 72.9717 30.7897C73.0627 30.7594 73.1596 30.7508 73.2545 30.7648L73.1507 32.9599H73.1963C73.1353 33.1196 73.0608 33.2737 72.9735 33.4207C72.614 34.003 71.9608 34.4005 71.7202 35.0386C71.6165 35.3463 71.5769 35.672 71.6038 35.9956C71.6038 36.1855 71.6265 36.3779 71.6417 36.5678V36.5526C71.6772 37.059 71.6873 37.5401 71.4139 37.9477C71.2265 38.2262 70.9252 38.4363 70.8214 38.7528C70.7927 38.841 70.7798 38.9336 70.7834 39.0263C70.8037 39.3037 70.8617 39.5771 70.9556 39.839C70.9567 39.834 70.9567 39.8288 70.9556 39.8238C71.0188 40.0164 71.0335 40.2216 70.9986 40.4213C70.8847 40.9277 70.2695 41.3505 70.2999 41.8341C70.2981 41.8977 70.3075 41.9611 70.3277 42.0215C70.4461 42.2577 70.6511 42.4391 70.8999 42.5278C71.2903 42.7498 71.7386 42.8487 72.1861 42.8114C72.3538 42.7811 72.516 42.7256 72.6671 42.6468C72.4899 43.0545 72.3076 43.457 72.1228 43.8393C72.0949 43.9001 72.0646 43.9609 72.0342 44.0216C72.0342 44.0216 70.4695 42.976 69.5808 45.1078C69.3214 45.5508 69.1358 46.0331 69.0314 46.5358C68.9869 46.7369 68.9242 46.9335 68.844 47.1232C68.4495 47.7911 67.859 48.3215 67.1527 48.6423C65.3399 49.4728 58.0177 58.6052 57.8886 60.97C57.8253 61.8931 57.6692 62.8075 57.4228 63.6993C56.8464 65.7996 56.6983 67.9944 56.9873 70.1531C57.0777 70.8507 57.2277 71.5394 57.4354 72.2115C58.2127 74.5737 58.7317 78.9817 58.7317 78.9817L59.5723 86.633C59.5411 87.689 59.5868 88.7459 59.709 89.7953C58.8507 90.7752 55.4049 94.8591 56.7214 95.9706C57.7342 96.8466 59.5065 96.7023 60.5015 96.5225C59.6635 98.5961 58.3444 102.201 58.1697 104.678C57.9165 108.341 58.6026 113.195 59.6888 115.058C60.775 116.922 64.3955 121.702 64.3955 121.702C64.3955 121.702 64.2259 128.259 65.5197 130.642C66.8135 133.024 67.335 137.967 67.335 137.967C67.335 137.967 68.5427 142.139 67.9376 143.674C67.3325 145.208 69.0592 146.484 67.2464 147.504C65.4336 148.525 63.1144 171.522 63.1144 171.522C63.1144 171.522 62.1801 186.594 63.1144 187.361C63.1644 187.397 63.2178 187.429 63.2739 187.455V192.518C63.2739 192.518 62.6257 193.582 65.2614 193.797C67.0666 193.941 72.1836 194.268 75.2193 194.458L77.5714 194.605C77.5714 194.605 83.1415 195.714 85.6025 194.605C88.0634 193.496 92.4259 193.521 91.7777 190.592C91.6918 190.193 91.5767 189.801 91.4334 189.419C90.7219 187.601 89.5142 187.394 87.2887 186.887C87.1596 186.86 87.0355 186.834 86.9216 186.814C84.5771 186.406 83.8074 187.498 82.4933 186.077C81.3515 184.849 77.7157 183.475 76.4776 183.039C76.508 182.948 76.546 182.859 76.5764 182.766C76.2258 182.706 75.8997 182.547 75.637 182.307L78.9918 182.52L80.9894 182.644C80.9894 182.644 85.724 183.588 87.8254 182.644C89.9269 181.7 93.6234 181.725 93.0715 179.236C92.9988 178.897 92.9015 178.564 92.7803 178.239C92.1752 176.694 91.1473 176.525 89.256 176.097C89.1471 176.074 89.0458 176.051 88.9445 176.033C86.952 175.686 86.2987 176.613 85.1822 175.408C84.2251 174.38 81.2046 173.228 80.1184 172.836C80.1184 172.273 79.3589 171.473 78.8804 170.671C78.3183 169.734 79.3563 166.455 79.3563 166.455L79.9488 152.852C80.1744 152.751 80.4131 152.683 80.6577 152.649C80.6577 152.649 83.3364 150.092 82.7313 147.368C82.608 146.544 82.5437 145.712 82.5389 144.879C83.42 144.061 84.6328 142.853 84.9771 142.109C85.5392 140.896 84.9771 135.02 84.9771 135.02V112.549L89.4585 113.002L93.5247 113.42L94.7628 113.547L98.829 113.957L108.174 114.901L116.595 113.306L120.238 112.618L127.73 111.2V92.869L135.485 91.5879ZM73.8065 30.8458L73.2849 30.7901C73.4571 30.7977 73.6394 30.8306 73.8065 30.8458Z" fill="url(#paint0_linear_11_1232)"/>
<path d="M117.309 103.49C114.777 107.113 105.675 105.194 105.675 105.194L98.6213 98.5935L97.6719 97.6997L99.2644 94.3171C99.2644 94.3171 99.7708 94.4564 100.639 94.7045C105.199 96.0287 119.446 100.444 117.309 103.49Z" fill="#EFB7B9"/>
<path opacity="0.1" d="M100.634 94.7045C100.323 95.7882 99.4695 97.4111 98.6213 98.5935L97.6719 97.6997L99.2644 94.3171C99.2644 94.3171 99.7759 94.4564 100.634 94.7045Z" fill="black"/>
<path d="M76.4422 56.5595C76.4422 56.5595 69.9404 59.4433 70.2594 66.5249C70.489 71.0873 70.9861 75.6322 71.7481 80.1363C71.7481 80.1363 70.4189 90.7929 75.9536 93.54C81.4883 96.2871 86.6102 98.5455 86.6102 98.5455C86.6102 98.5455 95.2692 99.4772 96.3453 99.8621C97.4213 100.247 100.784 94.3628 100.163 93.4463C99.543 92.5298 91.5955 90.6081 90.5827 89.0788C89.57 87.5496 87.228 86.6052 87.228 86.6052C87.228 86.6052 84.8101 85.1418 84.6455 83.8201C84.4809 82.4985 85.119 81.5136 85.281 80.9338C85.443 80.354 85.8532 74.7561 85.8532 74.7561C85.8532 74.7561 88.5825 54.8302 76.4422 56.5595Z" fill="#DCE6F2"/>
<path opacity="0.1" d="M80.7339 79.8451C80.7339 79.8451 71.8141 81.3389 72.6775 84.4607C72.6775 84.4607 75.9158 81.0908 80.7339 79.8451Z" fill="black"/>
<path opacity="0.1" d="M80.802 81.1084C80.802 81.1084 75.8978 85.1113 76.8574 85.3164C77.8169 85.5214 80.802 81.1084 80.802 81.1084Z" fill="black"/>
<path opacity="0.1" d="M83.1592 82.5034C83.1592 82.5034 81.8452 85.1948 82.6529 85.0125C83.4605 84.8302 83.1592 82.5034 83.1592 82.5034Z" fill="black"/>
<path opacity="0.1" d="M100.963 94.9906L100.421 94.8362C100.576 94.3298 100.619 93.9197 100.492 93.7298C99.872 92.8132 91.9296 90.8941 90.9193 89.3623C89.9091 87.8305 87.5646 86.8887 87.5646 86.8887C87.5646 86.8887 85.1467 85.4252 84.9821 84.1036C84.8175 82.782 85.4556 81.7971 85.6176 81.2173C85.7796 80.6375 86.1898 75.037 86.1898 75.037C86.1898 75.037 88.9116 55.1137 76.7713 56.843C76.7713 56.843 70.2694 59.7293 70.5859 66.8109C70.8155 71.3734 71.3135 75.9183 72.0772 80.4223C72.0772 80.4223 70.7479 91.0789 76.2826 93.826C81.8173 96.5731 86.9392 98.8315 86.9392 98.8315C86.9392 98.8315 95.5957 99.7607 96.6743 100.148C97.0819 100.295 97.8187 99.5379 98.5403 98.4973L98.9504 98.8796L106.004 105.478C106.004 105.478 115.106 107.399 117.638 103.776C119.778 100.728 105.533 96.3123 100.963 94.9906Z" fill="black"/>
<path d="M72.7 29.9799C72.4521 30.0284 72.2147 30.1201 71.9986 30.2508C71.7455 30.461 71.7455 30.8205 71.6822 31.1344C71.6078 31.5712 71.4346 31.9851 71.1758 32.3447C71.4639 32.3658 71.7529 32.3181 72.0189 32.2054C71.9756 32.552 71.8905 32.892 71.7657 33.2182C71.9235 33.2222 72.079 33.1806 72.2138 33.0984C72.3485 33.0162 72.4566 32.8969 72.5253 32.7548C72.6592 32.4695 72.7652 32.1719 72.8418 31.8661C72.8655 31.7747 72.9068 31.6887 72.9633 31.613C73.1962 31.337 73.6292 31.461 73.9887 31.4965C74.2879 31.5217 74.5884 31.4665 74.8591 31.3365C75.1297 31.2065 75.3607 31.0065 75.5281 30.7572C75.9104 30.1774 75.9332 28.6937 75.0217 28.5367C74.0697 28.3798 73.4773 29.6913 72.7 29.9799Z" fill="#965D7B"/>
<g opacity="0.1">
<path opacity="0.1" d="M71.9735 30.5622C71.9963 30.4382 72.0115 30.3091 72.0394 30.185C71.7988 30.3951 71.7862 30.7521 71.7229 31.0686C71.691 31.2512 71.6409 31.4302 71.5735 31.6028C71.7728 31.2851 71.9087 30.9317 71.9735 30.5622Z" fill="black"/>
<path opacity="0.1" d="M72.0544 32.6536C72.1805 32.3278 72.2656 31.9876 72.3076 31.6408C72.0541 31.7475 71.7797 31.7951 71.505 31.7801C71.4251 31.9581 71.3275 32.1278 71.2139 32.2864C71.501 32.3086 71.7892 32.2618 72.0544 32.1497C72.0124 32.4965 71.9273 32.8367 71.8013 33.1625C71.959 33.1662 72.1144 33.1244 72.2491 33.0423C72.3837 32.9602 72.4919 32.841 72.5608 32.6991C72.6239 32.584 72.6748 32.4627 72.7127 32.3371C72.6384 32.4409 72.5392 32.5243 72.4241 32.5796C72.3091 32.6349 72.1819 32.6604 72.0544 32.6536Z" fill="black"/>
<path opacity="0.1" d="M74.2774 30.9319C73.9178 30.8964 73.4824 30.7724 73.2494 31.0484C73.194 31.1247 73.1528 31.2105 73.1279 31.3015C73.1051 31.3674 73.0849 31.4357 73.0671 31.5041C73.3077 31.3142 73.6976 31.4155 74.0242 31.4484C74.3233 31.4728 74.6235 31.4172 74.894 31.2873C75.1646 31.1574 75.3956 30.9578 75.5636 30.7091C75.6403 30.5861 75.6975 30.4521 75.7332 30.3116C75.5598 30.5262 75.3364 30.695 75.0826 30.8031C74.8287 30.9113 74.5523 30.9555 74.2774 30.9319Z" fill="black"/>
</g>
<path d="M80.3209 50.8906L84.182 55.5341L83.6782 60.2206L79.012 52.9161L80.3209 50.8906Z" fill="#DCE6F2"/>
<path opacity="0.1" d="M84.1795 55.5341L83.706 59.942L83.6757 60.2206L79.4652 53.6276L79.012 52.9161L79.1436 52.711L80.3184 50.8906L80.5792 51.2046L84.1795 55.5341Z" fill="black"/>
<path d="M86.1849 44.604C84.8784 44.9787 83.6302 46.2649 82.544 47.827C81.8099 48.9049 81.1533 50.0336 80.5793 51.2046C80.2223 51.9185 79.9084 52.6047 79.6476 53.2022L79.4653 53.6276C79.0247 54.6681 78.7792 55.3644 78.7792 55.3644C78.7792 55.3644 68.7783 47.8448 70.3607 47.3384C70.8924 47.1688 71.5912 46.0294 72.2824 44.5938L72.3685 44.4115C72.8065 43.4899 73.2369 42.462 73.6192 41.4948C74.4015 39.5073 74.9813 37.7806 74.9813 37.7806C74.9813 37.7806 90.1726 43.4646 86.1849 44.604Z" fill="#EFB7B9"/>
<path d="M92.1677 37.3577C92.1677 37.3577 94.4768 41.5353 97.5783 40.9657C100.68 40.396 99.4038 38.7224 99.4038 38.7224L92.1677 37.3577Z" fill="#444053"/>
<path d="M87.694 181.965C85.6483 182.9 81.0225 181.965 81.0225 181.965L79.073 181.844C76.5411 181.682 72.3028 181.408 70.8039 181.287C68.6164 181.107 69.1531 180.211 69.1531 180.211V174.795L79.7667 172.106C79.7667 172.106 83.9621 173.542 85.1115 174.795C86.2028 175.99 86.8408 175.071 88.7878 175.415C88.884 175.433 88.9853 175.453 89.0916 175.479C90.9399 175.902 91.9425 176.069 92.535 177.6C92.654 177.922 92.7496 178.252 92.8211 178.588C93.3679 181.054 89.7372 181.036 87.694 181.965Z" fill="#A36468"/>
<path opacity="0.1" d="M92.535 177.6C92.1546 177.838 91.7549 178.043 91.3399 178.213C89.9474 178.849 88.6232 179.623 87.2155 180.223C85.8078 180.823 84.2912 181.251 82.767 181.137C81.9695 181.079 81.1542 180.884 80.3921 181.112C79.9208 181.294 79.4769 181.54 79.073 181.844C76.5411 181.682 72.3028 181.408 70.8039 181.287C68.6164 181.107 69.1531 180.211 69.1531 180.211V179.578C69.2316 179.578 69.3202 179.555 69.4215 179.547C69.9455 179.539 70.4673 179.617 70.966 179.778C72.0648 180.077 73.1586 180.37 74.2574 180.664C74.3478 180.323 74.5066 180.004 74.7242 179.726C74.9419 179.448 75.2138 179.218 75.5233 179.049C76.1505 178.716 76.8544 178.554 77.564 178.58C79.268 178.603 80.8808 179.411 82.5822 179.492C83.0579 179.535 83.5367 179.455 83.9722 179.259C84.2051 179.142 84.4102 178.973 84.6381 178.844C85.0027 178.667 85.388 178.537 85.785 178.456C86.9007 178.178 87.9962 177.825 89.0638 177.398C89.3676 177.279 89.7221 177.064 89.6815 176.74C89.6284 176.309 88.9524 176.259 88.7751 175.864C88.7439 175.792 88.7294 175.715 88.7329 175.637C88.7364 175.559 88.7578 175.484 88.7954 175.415C88.8916 175.433 88.9929 175.453 89.0992 175.479C90.9399 175.902 91.9425 176.069 92.535 177.6Z" fill="black"/>
<path d="M85.5317 193.815C83.1264 194.914 77.6829 193.815 77.6829 193.815L75.3916 193.681C72.4242 193.491 67.4263 193.174 65.6616 193.025C63.0867 192.812 63.7196 191.759 63.7196 191.759V185.376L76.2094 182.211C76.2094 182.211 81.1465 183.9 82.4985 185.376C83.7822 186.781 84.524 185.7 86.8255 186.105C86.9394 186.125 87.0584 186.151 87.1825 186.179C89.3574 186.685 90.5372 186.875 91.2335 188.678C91.3744 189.056 91.487 189.445 91.5702 189.84C92.1981 192.741 87.937 192.718 85.5317 193.815Z" fill="#A36468"/>
<path opacity="0.1" d="M91.2284 188.677C90.781 188.957 90.311 189.198 89.8232 189.399C88.1851 190.146 86.6255 191.057 84.9696 191.764C83.3138 192.47 81.5288 192.971 79.7337 192.84C78.7969 192.771 77.8374 192.536 76.9487 192.809C76.3918 193.026 75.8678 193.319 75.3916 193.68C72.4242 193.49 67.4263 193.174 65.6616 193.025C63.0867 192.812 63.7196 191.759 63.7196 191.759V191.014C63.8245 190.997 63.9301 190.985 64.0361 190.979C64.6529 190.968 65.2673 191.059 65.854 191.25L69.7252 192.293C69.8331 191.891 70.0218 191.514 70.28 191.187C70.5381 190.861 70.8603 190.59 71.2266 190.391C71.9646 189.998 72.7937 189.808 73.6294 189.84C75.6346 189.867 77.531 190.817 79.5337 190.913C80.0914 190.964 80.6529 190.871 81.1642 190.642C81.4402 190.503 81.6706 190.303 81.9491 190.153C82.3773 189.944 82.8309 189.791 83.2986 189.698C84.6043 189.368 85.8866 188.952 87.1369 188.452C87.4939 188.31 87.9117 188.057 87.8636 187.677C87.8003 187.171 87.0053 187.11 86.7951 186.644C86.7597 186.56 86.7436 186.469 86.748 186.378C86.7523 186.287 86.7771 186.198 86.8204 186.118C86.9344 186.138 87.0534 186.163 87.1774 186.191C89.3523 186.677 90.5321 186.875 91.2284 188.677Z" fill="black"/>
<path d="M80.0879 150.016L79.4119 165.923C79.4119 165.923 78.3992 169.172 78.9486 170.101C79.498 171.03 80.4247 171.957 80.0879 172.506C79.7512 173.056 75.7002 178.996 74.3912 176.717C73.0823 174.438 71.791 164.564 71.791 164.564L72.9987 152.368L80.0879 150.016Z" fill="#444053"/>
<path d="M83.02 110.382L84.8986 112.894V134.739C84.8986 134.739 85.4481 140.562 84.8986 141.764C84.3492 142.967 81.5642 145.372 81.5642 145.372L79.2222 133.346L79.7285 120.623L83.02 110.382Z" fill="#444053"/>
<path opacity="0.1" d="M80.0879 150.016L79.4119 165.923C79.4119 165.923 78.3992 169.172 78.9486 170.101C79.498 171.03 80.4247 171.957 80.0879 172.506C79.7512 173.056 75.7002 178.996 74.3912 176.717C73.0823 174.438 71.791 164.564 71.791 164.564L72.9987 152.368L80.0879 150.016Z" fill="black"/>
<path opacity="0.1" d="M83.02 110.382L84.8986 112.894V134.739C84.8986 134.739 85.4481 140.562 84.8986 141.764C84.3492 142.967 81.5642 145.372 81.5642 145.372L79.2222 133.346L79.7285 120.623L83.02 110.382Z" fill="black"/>
<path d="M84.8986 101.065V112.881L82.7895 122.079C82.7895 122.079 82.1135 144.276 82.7035 146.975C83.2934 149.674 80.678 152.209 80.678 152.209C80.678 152.209 79.1588 152.378 79.1588 153.558C79.1588 154.738 76.627 158.115 76.627 158.115L76.7105 164.698C76.7105 164.698 77.8094 177.021 76.1206 179.383C74.4318 181.745 76.7105 182.085 76.7105 182.085C74.6015 189.004 64.474 187.402 63.56 186.642C62.646 185.882 63.56 170.944 63.56 170.944C63.56 170.944 65.8235 148.158 67.5958 147.145C69.3681 146.132 67.6819 144.866 68.2718 143.347C68.8617 141.828 67.6819 137.693 67.6819 137.693C67.6819 137.693 67.1755 132.797 65.9096 130.434C64.6436 128.072 64.8107 121.573 64.8107 121.573C64.8107 121.573 61.2661 116.846 60.2129 114.99C59.1596 113.134 58.4811 108.324 58.7342 104.693C58.9064 102.24 60.1951 98.6671 61.0129 96.6112C61.4054 95.6263 61.6889 94.9883 61.6889 94.9883L61.9295 95.0516L75.7585 98.6721L84.8986 101.065Z" fill="#444053"/>
<path opacity="0.1" d="M86.1849 44.6039C84.8785 44.9786 83.6302 46.2648 82.5441 47.827H82.2605C80.6684 47.8281 79.1043 47.4089 77.7261 46.6118C76.3479 45.8147 75.2046 44.6679 74.4117 43.2874C74.0803 42.7153 73.8137 42.1081 73.6167 41.4771C74.399 39.4896 74.9788 37.7628 74.9788 37.7628C74.9788 37.7628 90.1726 43.4646 86.1849 44.6039Z" fill="black"/>
<path d="M91.3121 38.2743C91.3143 39.6596 90.9986 41.027 90.3891 42.271C89.7796 43.5151 88.8927 44.6027 87.7967 45.45C86.7007 46.2973 85.4248 46.8817 84.0673 47.1582C82.7099 47.4347 81.3071 47.396 79.9669 47.0449C78.6268 46.6938 77.3852 46.0399 76.3376 45.1333C75.2901 44.2268 74.4646 43.0919 73.9247 41.8161C73.3849 40.5402 73.1451 39.1575 73.2239 37.7744C73.3026 36.3913 73.6978 35.0447 74.3789 33.8384C74.6533 33.3483 74.9738 32.8854 75.336 32.456C75.933 31.7447 76.6348 31.1283 77.4172 30.628C78.7387 29.7882 80.2555 29.3056 81.8193 29.2273C83.3831 29.149 84.9404 29.4777 86.3392 30.1813C87.738 30.8849 88.9303 31.9394 89.7997 33.2416C90.6691 34.5438 91.1859 36.0493 91.2994 37.6109C91.3045 37.8337 91.3121 38.054 91.3121 38.2743Z" fill="#EFB7B9"/>
<path opacity="0.1" d="M83.7062 59.942L83.6758 60.2205L79.4653 53.6376C79.0247 54.6782 78.7792 55.3745 78.7792 55.3745C78.7792 55.3745 68.7783 47.8447 70.3607 47.3383C70.8924 47.1687 71.5912 46.0294 72.2824 44.5938L72.3685 44.4115C73.1027 46.599 77.3689 50.9716 79.1437 52.7236C79.3488 52.9262 79.5185 53.0933 79.6501 53.2148L79.921 53.468L80.0628 53.6098C80.7084 54.2757 83.4327 57.2126 83.7062 59.942Z" fill="black"/>
<path d="M86.8532 82.2781L86.3924 97.1073L86.3113 99.748C86.3113 99.748 80.8526 99.2417 75.7585 98.6847C71.6569 98.2365 67.7907 97.7529 67.1957 97.4694C66.4362 97.1124 64.8082 96.8364 63.5245 96.6617C62.532 96.5275 61.7522 96.4566 61.7522 96.4566C61.7522 96.4566 61.4611 96.5427 61.0129 96.6237C60.0356 96.8009 58.319 96.9453 57.3189 96.0768C56.0403 94.9653 59.4001 90.927 60.2382 89.9573L60.423 89.7472L60.1065 86.8229L59.2836 79.2399C59.2836 79.2399 58.7773 74.8724 58.0177 72.5304C57.8146 71.8646 57.6681 71.1828 57.5797 70.4923C57.2975 68.3533 57.4421 66.1796 58.005 64.0968C58.2456 63.2118 58.3982 62.3052 58.4608 61.3902C58.5874 59.0482 65.7399 49.9968 67.5122 49.174C68.3095 48.8022 68.951 48.1624 69.325 47.3662C69.4485 47.1159 69.5412 46.8515 69.601 46.5788C70.3606 43.2874 72.2823 44.5938 72.2823 44.5938C72.7456 47.1687 79.9184 53.9845 79.9184 53.9845L80.0602 54.1263C80.7716 54.8555 83.9415 58.2786 83.7162 61.2003C83.6712 62.2878 83.8335 63.3739 84.1947 64.4006C85.6537 68.9946 86.4924 73.763 86.6886 78.5791L86.8532 82.2781Z" fill="#DCE6F2"/>
<path opacity="0.1" d="M76.6904 64.6691C76.6904 64.6691 74.9181 68.9732 73.5889 69.6695C72.2596 70.3658 77.3234 71.138 76.6904 64.6691Z" fill="black"/>
<path opacity="0.1" d="M78.0197 72.7076C78.0197 72.7076 73.9688 73.214 73.9688 73.9736C73.9688 74.7331 78.0197 72.7076 78.0197 72.7076Z" fill="black"/>
<path opacity="0.1" d="M82.2604 77.6448C82.2604 77.6448 76.3738 90.1775 74.7281 90.5573C73.0823 90.9371 82.2604 77.6448 82.2604 77.6448Z" fill="black"/>
<path opacity="0.1" d="M79.807 54.62L74.9382 56.7366L69.0618 47.8599C69.1852 47.6096 69.2779 47.3452 69.3377 47.0725C70.0973 43.7811 72.019 45.0875 72.019 45.0875C72.4823 47.6624 79.6551 54.4782 79.6551 54.4782L79.807 54.62Z" fill="black"/>
<path d="M80.0602 54.1137L75.1914 56.2303L69.3149 47.3536C69.4384 47.1032 69.5311 46.8388 69.5909 46.5662C70.3505 43.2747 72.2722 44.5812 72.2722 44.5812C72.7355 47.1561 79.9083 53.9719 79.9083 53.9719L80.0602 54.1137Z" fill="#DCE6F2"/>
<path opacity="0.1" d="M86.3114 99.748C86.3114 99.748 80.8527 99.2416 75.7586 98.6846L84.8986 101.077V103.862C84.4986 104.224 84.1517 104.412 83.9264 104.315C82.8731 103.872 74.2774 102.48 74.2774 102.48C74.2774 102.48 69.2846 99.948 63.8968 96.9098C63.766 96.8373 63.6392 96.7579 63.517 96.6718C62.8888 96.2452 62.3474 95.7031 61.9219 95.0742C60.9269 93.6335 60.4408 91.7827 60.2306 89.9674C60.1125 88.927 60.0685 87.8795 60.099 86.8329C60.1251 85.6462 60.2333 84.4626 60.423 83.2908C59.902 78.7523 59.6484 74.1871 59.6635 69.6187C59.7268 62.5295 66.3729 59.9976 66.3729 59.9976C78.5892 58.9216 74.8015 78.6702 74.8015 78.6702C74.8015 78.6702 74.0951 84.2403 73.9027 84.81C73.7103 85.3796 73.0191 86.3291 73.1128 87.6583C73.2064 88.9875 75.5408 90.5776 75.5408 90.5776C75.5408 90.5776 77.8195 91.646 78.7588 93.2284C79.4424 94.3956 83.8833 95.978 86.3924 97.1072L86.3114 99.748Z" fill="black"/>
<path opacity="0.1" d="M90.4028 32.6536C90.4074 33.0706 90.321 33.4836 90.1496 33.8638C90.0198 34.174 89.8692 34.4752 89.6989 34.7651C89.4324 35.2986 89.0542 35.7683 88.5899 36.1425C88.0051 36.5602 87.2658 36.6767 86.5644 36.8463C85.8631 37.016 85.1339 37.2869 84.7339 37.8844C84.5171 38.2685 84.3721 38.6889 84.306 39.125C84.2389 39.5608 84.065 39.9731 83.7996 40.3251C83.6615 40.497 83.4701 40.6182 83.2557 40.6695C83.0412 40.7208 82.8157 40.6994 82.6147 40.6087C82.403 40.466 82.2424 40.2593 82.1565 40.0188C81.8678 39.3681 81.7944 38.6465 81.6779 37.9452C81.5615 37.2438 81.3969 36.5223 80.9665 35.9577C80.5361 35.3931 79.774 35.0209 79.098 35.2411C78.8717 35.3282 78.6654 35.4602 78.4913 35.629C78.3173 35.7978 78.1792 36 78.0852 36.2235C77.8981 36.671 77.7696 37.1407 77.7029 37.6211C77.3889 39.3394 77.0184 41.0476 76.5914 42.7456C76.5784 42.8152 76.5498 42.881 76.5079 42.938C76.4405 43.0051 76.3497 43.0433 76.2547 43.0444C75.6875 43.1203 75.1432 42.7228 74.571 42.7659C74.512 42.7698 74.4535 42.7791 74.3963 42.7937C73.4711 41.1859 73.0626 39.3325 73.2261 37.4847C73.3896 35.6369 74.1172 33.8841 75.3103 32.4637L75.3559 32.451C75.7365 32.3159 76.0824 32.098 76.3686 31.813C76.7341 31.4472 77.0726 31.0555 77.3813 30.6407L77.5839 30.3875C78.1659 29.6864 78.8288 29.0567 79.5588 28.5114C79.758 28.3482 79.9866 28.2244 80.2322 28.1468C80.4424 28.1059 80.6579 28.099 80.8703 28.1266C81.7446 28.2315 82.6262 28.2646 83.5059 28.2253C84.119 28.129 84.7368 28.0664 85.3567 28.038C86.9594 28.0835 88.3266 29.2153 89.3394 30.4559C89.8837 31.0914 90.3698 31.8231 90.4028 32.6536Z" fill="black"/>
<path d="M73.1963 34.0789C72.8444 34.6562 72.2089 35.0486 71.9709 35.6816C71.6215 36.6007 72.2114 37.7451 71.6696 38.5654C71.4898 38.8414 71.1936 39.0465 71.0923 39.3629C70.9201 39.8972 71.3911 40.4668 71.2695 41.0163C71.148 41.5657 70.4239 42.029 70.6163 42.5658C70.73 42.7998 70.9295 42.9812 71.1733 43.0721C71.557 43.2922 71.9985 43.3902 72.4393 43.3532C73.1305 43.2392 73.6444 42.5607 74.3458 42.5101C74.9154 42.4695 75.4598 42.8645 76.0269 42.7911C76.122 42.7878 76.2123 42.7489 76.2801 42.6822C76.3231 42.6258 76.3518 42.5598 76.3637 42.4898C76.789 40.7935 77.1604 39.0853 77.4777 37.3653C77.5423 36.8848 77.67 36.4149 77.8575 35.9677C77.9522 35.7447 78.0906 35.5428 78.2645 35.3741C78.4384 35.2054 78.6444 35.0732 78.8702 34.9853C79.5462 34.7676 80.3058 35.1373 80.7387 35.7019C81.1717 36.2665 81.3363 36.988 81.4527 37.6894C81.5692 38.3907 81.6426 39.1123 81.9287 39.763C82.0156 40.0043 82.177 40.2118 82.3895 40.3554C82.7693 40.5757 83.2807 40.401 83.5719 40.0719C83.8386 39.7197 84.0127 39.3062 84.0783 38.8692C84.1443 38.4339 84.2893 38.0143 84.5062 37.6311C84.9062 37.0336 85.6379 36.7627 86.3367 36.5931C87.0355 36.4234 87.7723 36.3044 88.3622 35.8867C88.8258 35.5129 89.204 35.0441 89.4711 34.5119C89.8459 33.8587 90.1953 33.1497 90.1649 32.3978C90.132 31.5774 89.6459 30.8457 89.1268 30.2077C88.1141 28.9671 86.7443 27.8353 85.1417 27.7923C84.5216 27.8182 83.9036 27.8808 83.2909 27.9797C82.411 28.0192 81.5294 27.9853 80.6552 27.8784C80.4426 27.853 80.2274 27.8606 80.0171 27.9012C79.7712 27.9763 79.543 28.1003 79.3462 28.2658C78.6155 28.8101 77.9518 29.439 77.3688 30.1393C76.9929 30.6377 76.5853 31.1113 76.1484 31.5572C75.8621 31.8426 75.5163 32.0614 75.1357 32.1978C74.8825 32.2686 74.6293 32.218 74.3888 32.2965C73.6419 32.532 73.5432 33.5067 73.1963 34.0789Z" fill="#965D7B"/>
<path opacity="0.1" d="M97.5783 40.9631C95.5528 41.3353 93.8742 39.6972 92.945 38.5021C92.6596 38.1392 92.3999 37.7568 92.1677 37.3577L99.1202 38.6692L99.4013 38.7224C99.4013 38.7224 100.68 40.396 97.5783 40.9631Z" fill="black"/>
<g opacity="0.1">
<path opacity="0.1" d="M71.2697 40.2922C71.2981 39.9611 71.2477 39.6279 71.1229 39.3199C71.1229 39.3453 71.1001 39.3706 71.0925 39.3959C70.9836 39.7352 71.1305 40.0871 71.2241 40.439C71.2443 40.3918 71.2595 40.3425 71.2697 40.2922Z" fill="black"/>
<path opacity="0.1" d="M71.8722 36.1475C71.8462 36.4976 71.8529 36.8493 71.8924 37.1982C71.9184 36.8481 71.9116 36.4963 71.8722 36.1475Z" fill="black"/>
<path opacity="0.1" d="M89.4561 33.7802C89.1896 34.3136 88.8114 34.7834 88.3471 35.1576C87.7623 35.5753 87.0255 35.6918 86.3216 35.8614C85.6178 36.031 84.8911 36.302 84.4911 36.8995C84.2747 37.2838 84.1297 37.7041 84.0632 38.1401C83.9973 38.5769 83.8232 38.9903 83.5568 39.3427C83.2657 39.6719 82.7542 39.8491 82.3744 39.6263C82.1619 39.4826 82.0006 39.2752 81.9137 39.0338C81.6276 38.3832 81.5516 37.6641 81.4377 36.9602C81.3237 36.2564 81.1541 35.5373 80.7237 34.9727C80.2933 34.4081 79.5312 34.0359 78.8551 34.2562C78.6291 34.3437 78.423 34.4757 78.249 34.6445C78.075 34.8133 77.9367 35.0153 77.8424 35.2386C77.655 35.6857 77.5273 36.1556 77.4626 36.6362C77.147 38.3561 76.7756 40.0643 76.3486 41.7607C76.3367 41.8306 76.3081 41.8967 76.265 41.9531C76.1973 42.0198 76.1069 42.0587 76.0119 42.062C75.4447 42.1354 74.9004 41.7404 74.3307 41.7809C73.6294 41.8316 73.1154 42.5101 72.4242 42.6215C71.9833 42.661 71.541 42.5629 71.1583 42.3405C70.9823 42.2648 70.8244 42.1526 70.6949 42.0113C70.6357 42.0962 70.5965 42.1933 70.5802 42.2955C70.564 42.3977 70.5712 42.5022 70.6012 42.6013C70.7128 42.837 70.913 43.019 71.1583 43.1076C71.541 43.33 71.9833 43.4282 72.4242 43.3887C73.1154 43.2773 73.6294 42.5987 74.3307 42.5481C74.9004 42.5076 75.4447 42.9025 76.0119 42.8291C76.1069 42.8258 76.1973 42.787 76.265 42.7202C76.3081 42.6638 76.3367 42.5978 76.3486 42.5278C76.7739 40.8399 77.1453 39.1317 77.4626 37.4033C77.5273 36.9228 77.655 36.4529 77.8424 36.0057C77.9367 35.7825 78.075 35.5804 78.249 35.4117C78.423 35.2429 78.6291 35.1108 78.8551 35.0234C79.5312 34.8031 80.2907 35.1753 80.7237 35.7399C81.1566 36.3045 81.3212 37.0261 81.4377 37.7274C81.5541 38.4287 81.6276 39.1503 81.9137 39.801C82.0006 40.0423 82.1619 40.2498 82.3744 40.3935C82.7542 40.6137 83.2657 40.439 83.5568 40.1099C83.8232 39.7575 83.9973 39.3441 84.0632 38.9073C84.1297 38.4712 84.2747 38.0509 84.4911 37.6666C84.8911 37.0691 85.6228 36.8007 86.3216 36.6286C87.0204 36.4564 87.7572 36.3425 88.3471 35.9247C88.8114 35.5505 89.1896 35.0808 89.4561 34.5474C89.8308 33.8967 90.1802 33.1878 90.1498 32.4358C90.1449 32.3391 90.1347 32.2428 90.1195 32.1472C89.9973 32.7267 89.7726 33.2797 89.4561 33.7802Z" fill="black"/>
</g>
<path opacity="0.1" d="M90.1598 33.8562C90.8091 35.0106 91.1939 36.2948 91.2865 37.616C89.0306 36.35 86.9089 34.96 85.8379 34.4765C83.972 33.6333 76.9941 33.7599 74.3711 33.8384C74.6455 33.3483 74.9659 32.8854 75.3281 32.456C75.9275 31.7441 76.6319 31.1277 77.4169 30.628C78.4566 29.9682 79.62 29.5273 80.8358 29.3323C82.0517 29.1373 83.2946 29.1924 84.4884 29.494C85.6823 29.7957 86.8022 30.3377 87.7795 31.0868C88.7568 31.836 89.571 32.7766 90.1725 33.8511L90.1598 33.8562Z" fill="black"/>
<path opacity="0.1" d="M98.2113 39.8896C96.9935 40.2643 95.0059 39.5402 92.945 38.5021C92.6596 38.1392 92.3999 37.7568 92.1677 37.3577L99.1202 38.6692C99.581 38.9832 99.6975 39.4313 98.2113 39.8896Z" fill="black"/>
<path d="M82.7996 25.0782C82.7996 25.0782 76.1534 24.6984 74.2849 28.3063L73.9836 31.5041L73.4772 31.4484L73.376 33.6233C73.376 33.6233 83.5338 33.1802 85.8454 34.2233C88.157 35.2664 95.3399 40.5226 98.2187 39.6364C101.097 38.7503 97.9655 37.9274 97.9655 37.9274C97.9655 37.9274 94.0031 36.2488 94.0031 34.9322C94.0031 33.6157 93.0207 26.6606 82.7996 25.0782Z" fill="#444053"/>
<path opacity="0.1" d="M69.981 143.62C69.981 143.62 74.2218 147.735 76.0574 147.418C76.0574 147.418 70.8671 146.975 69.981 143.62Z" fill="black"/>
<path opacity="0.1" d="M69.0947 145.527C69.0947 145.527 69.4745 147.643 70.4873 147.436C71.5 147.228 69.0947 145.527 69.0947 145.527Z" fill="black"/>
<path opacity="0.1" d="M75.741 180.902C75.741 180.902 69.7202 185.586 70.7355 185.713C71.7508 185.839 75.741 180.902 75.741 180.902Z" fill="black"/>
<path d="M83.7947 87.9394L103.29 84.767V103.224L84.7669 102.255L83.7947 87.9394Z" fill="#1A73E9"/>
<path opacity="0.05" d="M83.7947 87.9394L103.29 84.767V103.224L84.7669 102.255L83.7947 87.9394Z" fill="black"/>
<path d="M103.29 84.767L126.67 86.5165L125.376 102.579L103.29 103.224V84.767Z" fill="#1A73E9"/>
<path opacity="0.1" d="M103.29 84.767L126.67 86.5165L125.376 102.579L103.29 103.224V84.767Z" fill="black"/>
<path d="M110.478 79.1335L103.29 84.767L126.67 86.5165L130.49 80.7514L110.478 79.1335Z" fill="#1A73E9"/>
<path d="M76.7358 81.787L94.2868 79.6501L103.29 84.7671L83.7947 87.9395L76.7358 81.787Z" fill="#1A73E9"/>
<path d="M107.564 89.5597V114.795L98.4314 113.858L94.4589 113.453L93.2487 113.326L89.2787 112.919L83.7947 112.357V87.9393L103.288 89.266L107.564 89.5597Z" fill="#1A73E9"/>
<path d="M126.669 86.5166V111.126L119.35 112.532L115.79 113.215L107.564 114.795V89.5599L126.669 86.5166Z" fill="#1A73E9"/>
<path opacity="0.05" d="M126.669 86.5166V111.126L119.35 112.532L115.79 113.215L107.564 114.795V89.5599L126.669 86.5166Z" fill="black"/>
<path d="M76.7358 93.2512L83.7947 87.9393L107.564 89.5597L104.065 95.4539L76.7358 93.2512Z" fill="#1A73E9"/>
<path opacity="0.1" d="M76.7358 93.2512L83.7947 87.9393L107.564 89.5597L104.065 95.4539L76.7358 93.2512Z" fill="white"/>
<path d="M126.669 86.5166L107.564 89.5599L113.782 95.13L134.247 91.6968L126.669 86.5166Z" fill="#1A73E9"/>
<path opacity="0.1" d="M126.669 86.5166L107.564 89.5599L113.782 95.13L134.247 91.6968L126.669 86.5166Z" fill="white"/>
<path opacity="0.1" d="M119.35 112.531L115.79 113.215V107.956L119.125 107.116L119.35 112.531Z" fill="white"/>
<path opacity="0.1" d="M98.4315 110.379V113.858L94.459 113.453V110.379H98.4315Z" fill="white"/>
<path opacity="0.1" d="M93.2488 111.476V113.327L89.2788 112.919V111.476H93.2488Z" fill="white"/>
<path opacity="0.1" d="M105.174 108.534C102.452 112.015 93.4639 109.61 93.4639 109.61L86.7848 102.642L85.8784 101.698L87.6507 98.4062C87.6507 98.4062 88.1571 98.5733 89.0027 98.867C93.4791 100.432 107.465 105.604 105.174 108.534Z" fill="black"/>
<path d="M104.921 108.027C102.199 111.509 93.2107 109.103 93.2107 109.103L86.5317 102.136L85.6252 101.191L87.3976 97.8999C87.3976 97.8999 87.9039 98.067 88.7496 98.3607C93.2259 99.9254 107.212 105.098 104.921 108.027Z" fill="#EFB7B9"/>
<path opacity="0.1" d="M88.7396 98.3607C88.3699 99.4241 87.4306 100.999 86.5216 102.136L85.6152 101.191L87.3875 97.8999C87.3875 97.8999 87.8964 98.067 88.7396 98.3607Z" fill="black"/>
<path d="M66.6261 58.985C66.6261 58.985 59.98 61.5169 59.9167 68.6061C59.9015 73.1745 60.1552 77.7397 60.6762 82.2782C60.6762 82.2782 58.7773 92.8488 64.1575 95.8871C69.5378 98.9253 74.5382 101.457 74.5382 101.457C74.5382 101.457 83.1339 102.85 84.1897 103.293C85.2455 103.736 88.9142 98.0391 88.3445 97.0897C87.7748 96.1402 79.9488 93.7983 79.0196 92.2158C78.0904 90.6334 75.8016 89.5675 75.8016 89.5675C75.8016 89.5675 73.4672 87.975 73.3735 86.6457C73.2799 85.3165 73.9685 84.367 74.1635 83.7974C74.3584 83.2277 75.0648 77.6576 75.0648 77.6576C75.0648 77.6576 78.8424 57.8963 66.6261 58.985Z" fill="#DCE6F2"/>
<path opacity="0.1" d="M69.6643 82.4554C69.6643 82.4554 60.6762 83.4682 61.3724 86.633C61.3724 86.633 64.7879 83.4403 69.6643 82.4554Z" fill="black"/>
<path opacity="0.1" d="M69.6645 83.7214C69.6645 83.7214 64.5628 87.456 65.4996 87.7091C66.4364 87.9623 69.6645 83.7214 69.6645 83.7214Z" fill="black"/>
<path opacity="0.1" d="M71.943 85.2405C71.943 85.2405 70.4872 87.8584 71.3101 87.7217C72.1329 87.585 71.943 85.2405 71.943 85.2405Z" fill="black"/>
<path d="M165.526 28.4556C165.526 28.4556 155.905 27.8758 157.029 34.6258C157.029 34.6258 156.804 35.8183 157.885 36.3601C157.885 36.3601 157.903 35.8538 158.872 36.0285C159.218 36.0866 159.569 36.1036 159.918 36.0791C160.391 36.0475 160.841 35.8616 161.199 35.5499C161.199 35.5499 163.906 34.4334 164.959 30.0077C164.959 30.0077 165.739 29.0405 165.718 28.7924L164.093 29.4886C164.093 29.4886 164.647 30.6609 164.209 31.6357C164.209 31.6357 164.159 29.5317 163.845 29.5798C163.782 29.5798 163.002 29.9874 163.002 29.9874C163.002 29.9874 163.956 32.0281 163.235 33.5143C163.235 33.5143 163.508 30.9976 162.703 30.1343L161.559 30.8027C161.559 30.8027 162.675 32.9117 161.918 34.6334C161.918 34.6334 162.113 31.9927 161.318 30.9647L160.28 31.7724C160.28 31.7724 161.331 33.8536 160.69 35.2816C160.69 35.2816 160.607 32.2079 160.055 31.9749C160.055 31.9749 159.148 32.775 159.012 33.1041C159.012 33.1041 159.728 34.6233 159.282 35.4107C159.282 35.4107 159.009 33.3624 158.776 33.3523C158.776 33.3523 157.872 34.7094 157.779 35.631C157.822 34.7718 158.09 33.939 158.556 33.2156C158.035 33.3141 157.554 33.5632 157.173 33.9321C157.173 33.9321 157.313 32.9725 158.779 32.8889C158.779 32.8889 159.538 31.8585 159.726 31.7952C159.726 31.7952 158.267 31.6736 157.384 32.0661C157.384 32.0661 158.161 31.1622 159.994 31.5597L161.007 30.7242C161.007 30.7242 159.088 30.471 158.272 30.752C158.272 30.752 159.209 29.952 161.283 30.5343L162.397 29.8684C162.397 29.8684 160.761 29.514 159.786 29.6431C159.786 29.6431 160.814 29.0886 162.723 29.6887L163.521 29.3317C163.521 29.3317 162.321 29.0962 161.971 29.0582C161.622 29.0202 161.602 28.924 161.602 28.924C162.361 28.7977 163.14 28.8853 163.852 29.1772C163.852 29.1772 165.562 28.562 165.526 28.4556Z" fill="#1A73E9"/>
<path opacity="0.1" d="M194.759 62.2156C194.759 62.2156 185.138 61.6358 186.262 68.3857C186.262 68.3857 186.037 69.5783 187.118 70.1201C187.118 70.1201 187.136 69.6137 188.108 69.7884C188.453 69.8465 188.804 69.8635 189.154 69.839C189.621 69.8051 190.066 69.6203 190.42 69.3124C190.42 69.3124 193.129 68.1933 194.182 63.7676C194.182 63.7676 194.959 62.803 194.929 62.5549L193.303 63.2486C193.303 63.2486 193.858 64.4208 193.422 65.3956C193.422 65.3956 193.369 63.2916 193.058 63.3397C192.994 63.3397 192.212 63.7474 192.212 63.7474C192.212 63.7474 193.169 65.7906 192.448 67.2743C192.448 67.2743 192.721 64.7576 191.913 63.8942L190.782 64.555C190.782 64.555 191.898 66.6641 191.141 68.3857C191.141 68.3857 191.336 65.745 190.541 64.7171L189.506 65.5273C189.506 65.5273 190.554 67.6059 189.916 69.0339C189.916 69.0339 189.832 65.9602 189.28 65.7273C189.28 65.7273 188.374 66.5274 188.235 66.8565C188.235 66.8565 188.954 68.3756 188.508 69.163C188.508 69.163 188.235 67.1147 188.002 67.1046C188.002 67.1046 187.098 68.4617 187.004 69.3833C187.049 68.524 187.318 67.6914 187.784 66.9679C187.262 67.0667 186.781 67.3157 186.399 67.6844C186.399 67.6844 186.541 66.7248 188.007 66.6413C188.007 66.6413 188.754 65.6108 188.954 65.5475C188.954 65.5475 187.495 65.426 186.612 65.8184C186.612 65.8184 187.389 64.9146 189.219 65.3247L190.232 64.4892C190.232 64.4892 188.311 64.236 187.498 64.5171C187.498 64.5171 188.435 63.717 190.508 64.2993L191.622 63.6334C191.622 63.6334 189.984 63.2815 189.009 63.4081C189.009 63.4081 190.04 62.8536 191.949 63.4537L192.746 63.0967C192.746 63.0967 191.546 62.8612 191.194 62.8232C190.842 62.7853 190.825 62.689 190.825 62.689C191.585 62.5626 192.365 62.6503 193.078 62.9422C193.078 62.9422 194.79 62.3219 194.759 62.2156Z" fill="#1A73E9"/>
<path opacity="0.1" d="M136.311 56.2227C136.311 56.2227 138.526 46.832 131.68 46.7991C131.68 46.7991 130.543 46.3738 129.827 47.346C129.827 47.346 130.315 47.4498 129.983 48.3765C129.869 48.7042 129.792 49.044 129.756 49.3892C129.707 49.8598 129.812 50.3336 130.057 50.7387C130.057 50.7387 130.697 53.5997 134.867 55.3923C134.867 55.3923 135.688 56.324 135.936 56.3341L135.531 54.615C135.531 54.615 134.28 54.9619 133.394 54.3618C133.394 54.3618 135.478 54.6682 135.48 54.3618C135.48 54.2985 135.227 53.4605 135.227 53.4605C135.227 53.4605 133.052 54.0529 131.71 53.0883C131.71 53.0883 134.143 53.7871 135.133 53.1415L134.678 51.8958C134.678 51.8958 132.399 52.6376 130.839 51.597C130.839 51.597 133.409 52.2401 134.559 51.6325L133.938 50.4729C133.938 50.4729 131.71 51.1514 130.411 50.2779C130.411 50.2779 133.45 50.7185 133.779 50.2171C133.779 50.2171 133.146 49.1867 132.845 48.9942C132.845 48.9942 131.234 49.4449 130.525 48.8702C130.525 48.8702 132.589 48.9487 132.637 48.7309C132.637 48.7309 131.455 47.6093 130.553 47.3561C131.393 47.5474 132.169 47.954 132.804 48.536C132.795 48.0053 132.631 47.4889 132.333 47.0498C132.333 47.0498 133.255 47.3536 133.093 48.8221C133.093 48.8221 133.979 49.7336 134.007 49.9412C134.007 49.9412 134.374 48.5259 134.138 47.5865C134.138 47.5865 134.898 48.5081 134.181 50.2425L134.83 51.3945C134.83 51.3945 135.417 49.5462 135.268 48.6955C135.268 48.6955 135.898 49.7538 134.969 51.6983L135.437 52.9111C135.437 52.9111 136.063 51.3565 136.103 50.3792C136.103 50.3792 136.475 51.4881 135.556 53.268L135.774 54.1137C135.774 54.1137 136.209 52.9718 136.306 52.6325C136.402 52.2933 136.501 52.2907 136.501 52.2907C136.497 53.061 136.278 53.815 135.87 54.4682C135.87 54.4682 136.202 56.2354 136.311 56.2227Z" fill="#1A73E9"/>
<path opacity="0.1" d="M115.241 59.4229C115.241 59.4229 107.513 53.6427 104.751 59.904C104.751 59.904 103.908 60.7775 104.513 61.8231C104.513 61.8231 104.802 61.4155 105.526 62.0915C105.782 62.3301 106.066 62.5375 106.371 62.7093C106.785 62.9395 107.262 63.0284 107.731 62.9625C107.731 62.9625 110.607 63.5169 113.919 60.4002C113.919 60.4002 115.101 60.0204 115.213 59.7976L113.468 59.4913C113.468 59.4913 113.286 60.7749 112.387 61.3497C112.387 61.3497 113.499 59.5622 113.21 59.433C113.152 59.4052 112.281 59.3064 112.281 59.3064C112.281 59.3064 111.957 61.5396 110.539 62.3827C110.539 62.3827 112.152 60.4306 111.952 59.2659L110.628 59.195C110.628 59.195 110.402 61.5725 108.822 62.5953C108.822 62.5953 110.435 60.4964 110.341 59.2001L109.03 59.3064C109.03 59.3064 108.764 61.618 107.445 62.4586C107.445 62.4586 109.063 59.8457 108.731 59.3495C108.731 59.3495 107.534 59.5191 107.237 59.7166C107.237 59.7166 107.007 61.3724 106.197 61.7927C106.197 61.7927 107.096 59.9318 106.913 59.8027C106.913 59.8027 105.412 60.4382 104.822 61.1623C105.332 60.469 106.015 59.9209 106.802 59.5723C106.312 59.3687 105.774 59.3124 105.252 59.4102C105.252 59.4102 105.895 58.6861 107.166 59.4229C107.166 59.4229 108.356 58.9748 108.559 59.0305C108.559 59.0305 107.407 58.1266 106.452 57.9696C106.452 57.9696 107.602 57.6405 108.906 58.9824L110.22 58.8482C110.22 58.8482 108.759 57.5822 107.921 57.3696C107.921 57.3696 109.144 57.2151 110.554 58.8406L111.85 58.8988C111.85 58.8988 110.678 57.7038 109.795 57.2733C109.795 57.2733 110.957 57.3746 112.223 58.9267L113.086 59.0659C113.086 59.0659 112.212 58.2101 111.939 57.9873C111.666 57.7645 111.704 57.6709 111.704 57.6709C112.408 57.9828 113.012 58.4841 113.448 59.1191C113.448 59.1191 115.208 59.5267 115.241 59.4229Z" fill="#1A73E9"/>
<path opacity="0.1" d="M140.967 5.71951C140.967 5.71951 133.24 -0.0632865 130.477 6.20056C130.477 6.20056 129.634 7.07406 130.239 8.11972C130.239 8.11972 130.528 7.71209 131.252 8.3881C131.51 8.62548 131.795 8.83195 132.1 9.00334C132.514 9.23377 132.991 9.32269 133.46 9.25653C133.46 9.25653 136.336 9.81101 139.648 6.69174C139.648 6.69174 140.83 6.3145 140.939 6.08916L139.195 5.78787C139.195 5.78787 139.015 7.07152 138.113 7.64626C138.113 7.64626 139.228 5.85876 138.939 5.72963C138.881 5.70178 138.01 5.60304 138.01 5.60304C138.01 5.60304 137.675 7.84121 136.258 8.67926C136.258 8.67926 137.868 6.72719 137.67 5.56253L136.346 5.49164C136.346 5.49164 136.118 7.86906 134.541 8.88941C134.541 8.88941 136.154 6.79049 136.06 5.49417L134.751 5.60051C134.751 5.60051 134.483 7.91464 133.164 8.75522C133.164 8.75522 134.784 6.14233 134.452 5.64608C134.452 5.64608 133.255 5.81572 132.959 6.0132C132.959 6.0132 132.728 7.66905 131.918 8.08934C131.918 8.08934 132.817 6.22841 132.635 6.09675C132.635 6.09675 131.133 6.73478 130.543 7.4589C131.053 6.76484 131.735 6.21659 132.523 5.86889C132.033 5.66382 131.493 5.60747 130.971 5.70685C130.971 5.70685 131.617 4.98273 132.888 5.71951C132.888 5.71951 134.078 5.26883 134.28 5.32707C134.28 5.32707 133.128 4.42319 132.174 4.26368C132.174 4.26368 133.321 3.93707 134.625 5.27643L135.939 5.14224C135.939 5.14224 134.48 3.8763 133.64 3.66109C133.64 3.66109 134.863 3.50918 136.275 5.13464L137.572 5.19034C137.572 5.19034 136.399 3.9953 135.513 3.56742C135.513 3.56742 136.678 3.66869 137.944 5.22073L138.805 5.35998C138.805 5.35998 137.929 4.51434 137.655 4.29659C137.382 4.07885 137.42 3.98264 137.42 3.98264C138.124 4.29421 138.728 4.79565 139.164 5.43087C139.164 5.43087 140.924 5.81572 140.967 5.71951Z" fill="#1A73E9"/>
<path opacity="0.1" d="M170.494 13.0442C170.494 13.0442 167.405 3.90159 161.579 7.49431C161.579 7.49431 160.389 7.7475 160.295 8.94001C160.295 8.94001 160.764 8.76784 160.971 9.72996C161.048 10.0722 161.165 10.4044 161.318 10.7199C161.527 11.1446 161.868 11.4901 162.29 11.7048C162.29 11.7048 164.346 13.7936 168.843 13.1024C168.843 13.1024 170.03 13.4619 170.248 13.3379L168.982 12.0947C168.982 12.0947 168.106 13.0492 167.038 13.0113C167.038 13.0113 168.969 12.1707 168.81 11.8998C168.777 11.8466 168.116 11.2719 168.116 11.2719C168.116 11.2719 166.582 12.9252 164.936 12.8163C164.936 12.8163 167.369 12.1226 167.865 11.044L166.817 10.2363C166.817 10.2363 165.283 12.0643 163.402 12.0086C163.402 12.0086 165.934 11.1959 166.574 10.0718L165.435 9.416C165.435 9.416 163.916 11.1706 162.341 11.1149C162.341 11.1149 165.156 9.88187 165.164 9.28435C165.164 9.28435 164.083 8.74506 163.726 8.74C163.726 8.74 162.597 9.97302 161.7 9.86161C161.7 9.86161 163.493 8.83621 163.417 8.62606C163.417 8.62606 161.822 8.29945 160.923 8.56276C161.736 8.27971 162.609 8.21425 163.455 8.37287C163.166 7.92701 162.753 7.57506 162.267 7.36012C162.267 7.36012 163.209 7.12972 163.84 8.45642C163.84 8.45642 165.075 8.76278 165.207 8.92229C165.207 8.92229 164.772 7.52723 164.075 6.85375C164.075 6.85375 165.207 7.23606 165.516 9.08686L166.675 9.71983C166.675 9.71983 166.197 7.84371 165.62 7.18796C165.62 7.18796 166.716 7.7551 166.954 9.89453L167.992 10.6769C167.992 10.6769 167.703 9.0261 167.217 8.17032C167.217 8.17032 168.119 8.91469 168.281 10.9123L168.911 11.5149C168.911 11.5149 168.678 10.3148 168.582 9.97555C168.486 9.63628 168.564 9.61349 168.564 9.61349C168.967 10.2703 169.18 11.0256 169.179 11.796C169.179 11.796 170.405 13.11 170.494 13.0442Z" fill="#1A73E9"/>
<path opacity="0.1" d="M150.335 13.4949C150.335 13.4949 140.739 12.4264 141.531 19.2346C141.531 19.2346 141.245 20.4145 142.291 21.0069C142.291 21.0069 142.334 20.5006 143.304 20.7284C143.646 20.8022 143.996 20.837 144.347 20.8322C144.82 20.8237 145.278 20.661 145.651 20.3689C145.651 20.3689 148.413 19.3891 149.702 15.0216C149.702 15.0216 150.527 14.0975 150.509 13.8468L148.851 14.4595C148.851 14.4595 149.357 15.6571 148.851 16.6091C148.851 16.6091 148.904 14.5051 148.598 14.538C148.535 14.538 147.734 14.9026 147.734 14.9026C147.734 14.9026 148.585 16.9914 147.79 18.4472C147.79 18.4472 148.19 15.9457 147.428 15.0444L146.251 15.652C146.251 15.652 147.264 17.8168 146.415 19.4979C146.415 19.4979 146.745 16.8699 146.003 15.8039L144.927 16.5635C144.927 16.5635 145.868 18.6928 145.157 20.0879C145.157 20.0879 145.23 17.0142 144.691 16.7534C144.691 16.7534 143.744 17.513 143.59 17.8269C143.59 17.8269 144.23 19.3713 143.747 20.1436C143.747 20.1436 143.577 18.0852 143.354 18.0649C143.354 18.0649 142.382 19.3739 142.24 20.298C142.328 19.4412 142.639 18.6224 143.142 17.9231C142.616 17.9957 142.123 18.2201 141.724 18.5687C141.724 18.5687 141.911 17.6193 143.38 17.6092C143.38 17.6092 144.177 16.6192 144.392 16.566C144.392 16.566 142.942 16.3711 142.038 16.7179C142.038 16.7179 142.861 15.852 144.668 16.3559L145.734 15.5735C145.734 15.5735 143.808 15.1836 142.992 15.4368C142.992 15.4368 143.97 14.6773 146.01 15.3735L147.157 14.7633C147.157 14.7633 145.539 14.3279 144.56 14.4063C144.56 14.4063 145.615 13.9 147.491 14.6013L148.307 14.2848C148.307 14.2848 147.119 13.9886 146.77 13.9329C146.42 13.8772 146.408 13.781 146.408 13.781C147.173 13.6932 147.948 13.8194 148.646 14.1456C148.646 14.1456 150.352 13.6012 150.335 13.4949Z" fill="#1A73E9"/>
<path opacity="0.1" d="M234.292 87.9749C234.292 87.9749 224.701 86.9065 225.494 93.7071C225.494 93.7071 225.207 94.8869 226.253 95.4794C226.253 95.4794 226.296 94.973 227.266 95.1983C227.608 95.2746 227.958 95.3094 228.309 95.3021C228.783 95.2949 229.241 95.1321 229.613 94.8388C229.613 94.8388 232.375 93.859 233.651 89.494C233.651 89.494 234.477 88.5674 234.459 88.3192L232.801 88.9294C232.801 88.9294 233.307 90.1295 232.801 91.0815C232.801 91.0815 232.854 88.975 232.547 89.0104C232.484 89.0104 231.684 89.3725 231.684 89.3725C231.684 89.3725 232.535 91.4613 231.74 92.9171C231.74 92.9171 232.14 90.4181 231.378 89.5143L230.2 90.1245C230.2 90.1245 231.213 92.2892 230.367 93.9704C230.367 93.9704 230.694 91.3423 229.952 90.2738L228.876 91.0334C228.876 91.0334 229.818 93.1627 229.107 94.5552C229.107 94.5552 229.18 91.4815 228.641 91.2233C228.641 91.2233 227.696 91.9829 227.539 92.2968C227.539 92.2968 228.182 93.8412 227.696 94.6135C227.696 94.6135 227.527 92.5551 227.304 92.5348C227.304 92.5348 226.332 93.8438 226.19 94.7679C226.278 93.9111 226.588 93.0923 227.091 92.393C226.565 92.4643 226.072 92.6889 225.673 93.0386C225.673 93.0386 225.861 92.0867 227.329 92.0765C227.329 92.0765 228.129 91.0866 228.342 91.0359C228.342 91.0359 226.891 90.8384 225.987 91.1853C225.987 91.1853 226.81 90.3219 228.62 90.8258L229.684 90.0434C229.684 90.0434 227.78 89.6839 226.952 89.932C226.952 89.932 227.929 89.1725 229.97 89.8662L231.117 89.2586C231.117 89.2586 229.499 88.8231 228.519 88.9016C228.519 88.9016 229.575 88.3952 231.451 89.0965L232.266 88.7775C232.266 88.7775 231.079 88.4813 230.73 88.4281C230.38 88.3749 230.367 88.2762 230.367 88.2762C231.133 88.1868 231.908 88.3121 232.606 88.6382C232.606 88.6382 234.317 88.0838 234.292 87.9749Z" fill="#1A73E9"/>
<path opacity="0.1" d="M248.954 96.9326C248.954 96.9326 239.363 95.8667 240.155 102.665C240.155 102.665 239.872 103.845 240.915 104.437C240.915 104.437 240.958 103.931 241.928 104.159C242.269 104.233 242.619 104.267 242.968 104.26C243.44 104.25 243.895 104.089 244.267 103.799C244.267 103.799 247.027 102.819 248.303 98.4517C248.303 98.4517 249.131 97.5276 249.111 97.2769L247.452 97.8871C247.452 97.8871 247.959 99.0872 247.452 100.039C247.452 100.039 247.505 97.9352 247.199 97.9681C247.136 97.9681 246.336 98.3302 246.336 98.3302C246.336 98.3302 247.186 100.419 246.391 101.875C246.391 101.875 246.791 99.3758 246.029 98.4745L244.852 99.0821C244.852 99.0821 245.865 101.247 245.019 102.928C245.019 102.928 245.346 100.3 244.604 99.234L243.528 99.9936C243.528 99.9936 244.47 102.123 243.761 103.518C243.761 103.518 243.832 100.442 243.292 100.183C243.292 100.183 242.348 100.943 242.191 101.257C242.191 101.257 242.834 102.801 242.348 103.574C242.348 103.574 242.178 101.515 241.956 101.495C241.956 101.495 240.983 102.804 240.844 103.728C240.932 102.872 241.242 102.053 241.743 101.353C241.218 101.426 240.725 101.65 240.325 101.999C240.325 101.999 240.515 101.047 241.983 101.039C241.983 101.039 242.781 100.049 242.996 99.9961C242.996 99.9961 241.545 99.8012 240.642 100.148C240.642 100.148 241.464 99.2821 243.275 99.786L244.338 99.0036C244.338 99.0036 242.434 98.6441 241.606 98.8922C241.606 98.8922 242.583 98.1327 244.624 98.8289L245.771 98.2188C245.771 98.2188 244.153 97.7833 243.173 97.8618C243.173 97.8618 244.229 97.3554 246.105 98.0567L246.921 97.7402C246.921 97.7402 245.733 97.444 245.386 97.3883C245.039 97.3326 245.022 97.2364 245.022 97.2364C245.787 97.1486 246.562 97.2748 247.26 97.601C247.26 97.601 248.979 97.0414 248.954 96.9326Z" fill="#1A73E9"/>
<path opacity="0.1" d="M216.401 21.4804C216.401 21.4804 208.674 15.7002 205.912 21.9615C205.912 21.9615 205.069 22.835 205.674 23.8806C205.674 23.8806 205.963 23.473 206.687 24.149C206.943 24.3876 207.227 24.595 207.532 24.7668C207.946 24.9968 208.423 25.0857 208.892 25.02C208.892 25.02 211.768 25.5744 215.082 22.4577C215.082 22.4577 216.262 22.0779 216.374 21.8551L214.634 21.5412C214.634 21.5412 214.452 22.8248 213.553 23.3996C213.553 23.3996 214.665 21.6121 214.376 21.4829C214.318 21.4551 213.449 21.3563 213.449 21.3563C213.449 21.3563 213.123 23.5894 211.705 24.4326C211.705 24.4326 213.318 22.4805 213.118 21.3158L211.793 21.2449C211.793 21.2449 211.568 23.6224 209.988 24.6452C209.988 24.6452 211.604 22.5463 211.507 21.25L210.196 21.3563C210.196 21.3563 209.943 23.6679 208.611 24.5085C208.611 24.5085 210.231 21.8956 209.897 21.3994C209.897 21.3994 208.699 21.569 208.403 21.7665C208.403 21.7665 208.175 23.4223 207.365 23.8426C207.365 23.8426 208.261 21.9817 208.079 21.8526C208.079 21.8526 206.578 22.4881 205.988 23.2122C206.498 22.5189 207.181 21.9708 207.968 21.6222C207.478 21.4186 206.94 21.3623 206.418 21.4601C206.418 21.4601 207.064 20.736 208.335 21.4728C208.335 21.4728 209.522 21.0247 209.725 21.0804C209.725 21.0804 208.573 20.1765 207.618 20.0195C207.618 20.0195 208.768 19.6904 210.072 21.0323L211.386 20.8981C211.386 20.8981 209.927 19.6321 209.087 19.4195C209.087 19.4195 210.31 19.265 211.72 20.8905L213.019 20.9487C213.019 20.9487 211.844 19.7537 210.96 19.3233C210.96 19.3233 212.125 19.4245 213.388 20.9766L214.252 21.1158C214.252 21.1158 213.378 20.26 213.105 20.0372C212.831 19.8144 212.872 19.741 212.872 19.741C213.575 20.0534 214.178 20.5547 214.614 21.1892C214.614 21.1892 216.368 21.5842 216.401 21.4804Z" fill="#1A73E9"/>
<path opacity="0.1" d="M222.372 63.2107C222.372 63.2107 219.708 53.9365 213.718 57.2659C213.718 57.2659 212.518 57.4507 212.368 58.6508C212.368 58.6508 212.844 58.5014 213.009 59.4712C213.07 59.8195 213.172 60.1595 213.313 60.4839C213.5 60.9202 213.826 61.283 214.239 61.5169C214.239 61.5169 216.199 63.6943 220.721 63.2082C220.721 63.2082 221.891 63.6183 222.113 63.5069L220.916 62.2056C220.916 62.2056 219.997 63.1221 218.933 63.036C218.933 63.036 220.898 62.2765 220.746 62.0056C220.716 61.9498 220.083 61.3447 220.083 61.3447C220.083 61.3447 218.478 62.9297 216.837 62.7449C216.837 62.7449 219.3 62.1625 219.842 61.1143L218.829 60.2586C218.829 60.2586 217.214 62.0157 215.338 61.879C215.338 61.879 217.89 61.1776 218.594 60.0864L217.485 59.38C217.485 59.38 215.877 61.0637 214.318 60.9371C214.318 60.9371 217.186 59.8307 217.222 59.2357C217.222 59.2357 216.163 58.6483 215.806 58.628C215.806 58.628 214.624 59.8079 213.725 59.656C213.725 59.656 215.563 58.7116 215.498 58.4989C215.498 58.4989 213.918 58.1014 213.009 58.3217C213.832 58.0776 214.705 58.0523 215.541 58.2483C215.273 57.7901 214.877 57.4205 214.401 57.1849C214.401 57.1849 215.353 56.995 215.92 58.3495C215.92 58.3495 217.138 58.7091 217.265 58.8762C217.265 58.8762 216.893 57.4608 216.227 56.7595C216.227 56.7595 217.341 57.1899 217.566 59.0534L218.695 59.7395C218.695 59.7395 218.3 57.8406 217.753 57.1722C217.753 57.1722 218.822 57.7875 218.966 59.9345L219.979 60.7624C219.979 60.7624 219.764 59.1015 219.318 58.2305C219.318 58.2305 220.187 59.0154 220.257 61.0156L220.86 61.6486C220.86 61.6486 220.683 60.4383 220.607 60.094C220.531 59.7497 220.607 59.7015 220.607 59.7015C220.982 60.375 221.161 61.1395 221.126 61.9093C221.126 61.9093 222.28 63.2715 222.372 63.2107Z" fill="#1A73E9"/>
<path opacity="0.1" d="M163.019 84.1087C163.019 84.1087 157.847 75.9611 153.044 80.8375C153.044 80.8375 151.945 81.3439 152.137 82.5465C152.137 82.5465 152.555 82.268 152.986 83.1541C153.14 83.4682 153.332 83.7623 153.558 84.0302C153.86 84.3957 154.273 84.6519 154.735 84.7593C154.735 84.7593 157.229 86.2987 161.432 84.5568C161.432 84.5568 162.67 84.6226 162.852 84.453L161.333 83.5415C161.333 83.5415 160.708 84.6809 159.662 84.8961C159.662 84.8961 161.338 83.6301 161.113 83.3972C161.07 83.3516 160.29 82.9516 160.29 82.9516C160.29 82.9516 159.194 84.9214 157.568 85.2075C157.568 85.2075 159.768 83.9542 159.996 82.7946L158.784 82.2604C158.784 82.2604 157.728 84.3998 155.89 84.7923C155.89 84.7923 158.143 83.4023 158.51 82.1566L157.244 81.792C157.244 81.792 156.176 83.8605 154.644 84.177C154.644 84.177 157.085 82.3085 156.95 81.7262C156.95 81.7262 155.771 81.4603 155.431 81.5414C155.431 81.5414 154.629 83.0073 153.722 83.1136C153.722 83.1136 155.221 81.6907 155.097 81.5034C155.097 81.5034 153.469 81.5667 152.659 82.0351C153.382 81.5669 154.214 81.2962 155.074 81.2502C154.689 80.8858 154.206 80.642 153.684 80.5489C153.684 80.5489 154.543 80.1007 155.457 81.2401C155.457 81.2401 156.723 81.2401 156.897 81.3667C156.897 81.3667 156.138 80.1007 155.305 79.6273C155.305 79.6273 156.495 79.7285 157.234 81.4527L158.513 81.792C158.513 81.792 157.599 80.083 156.887 79.5944C156.887 79.5944 158.085 79.883 158.827 81.9059L160.022 82.4123C160.022 82.4123 159.348 80.8805 158.672 80.164C158.672 80.164 159.725 80.6704 160.356 82.5718L161.115 83.0098C161.115 83.0098 160.609 81.8984 160.429 81.592C160.25 81.2856 160.32 81.2147 160.32 81.2147C160.868 81.7559 161.255 82.4388 161.437 83.1871C161.437 83.1871 162.951 84.1947 163.019 84.1087Z" fill="#1A73E9"/>
<path d="M197.015 42.4797C197.015 42.4797 192.096 34.1777 187.141 38.9022C187.141 38.9022 186.027 39.3832 186.184 40.5833C186.184 40.5833 186.606 40.315 187.012 41.2138C187.156 41.5333 187.339 41.8342 187.556 42.1101C187.847 42.4834 188.252 42.7504 188.71 42.8696C188.71 42.8696 191.154 44.485 195.41 42.8696C195.41 42.8696 196.645 42.9734 196.833 42.8089L195.346 41.8518C195.346 41.8518 194.688 42.9684 193.635 43.1532C193.635 43.1532 195.349 41.9303 195.134 41.6999C195.088 41.6518 194.324 41.2264 194.324 41.2264C194.324 41.2264 193.166 43.1633 191.539 43.3988C191.539 43.3988 193.777 42.2139 194.037 41.0644L192.842 40.5023C192.842 40.5023 191.721 42.6114 189.87 42.9481C189.87 42.9481 192.166 41.629 192.572 40.396L191.321 39.9909C191.321 39.9909 190.186 42.0164 188.647 42.2949C188.647 42.2949 191.144 40.5023 191.027 39.9175C191.027 39.9175 189.857 39.6136 189.508 39.6845C189.508 39.6845 188.66 41.1252 187.751 41.2036C187.751 41.2036 189.293 39.8314 189.176 39.6389C189.176 39.6389 187.546 39.6516 186.723 40.0947C187.46 39.6501 188.3 39.4057 189.161 39.3858C188.787 39.0094 188.311 38.7507 187.791 38.6414C187.791 38.6414 188.665 38.2186 189.564 39.3858C189.564 39.3858 190.83 39.4288 190.999 39.5579C190.999 39.5579 190.283 38.292 189.462 37.7704C189.462 37.7704 190.647 37.9071 191.333 39.6541L192.599 40.0339C192.599 40.0339 191.741 38.2971 191.042 37.7856C191.042 37.7856 192.232 38.1122 192.911 40.1555L194.088 40.7049C194.088 40.7049 193.463 39.1528 192.822 38.4262C192.822 38.4262 193.858 38.9655 194.432 40.8846L195.174 41.3454C195.174 41.3454 194.698 40.2187 194.531 39.9073C194.364 39.5959 194.435 39.5275 194.435 39.5275C194.966 40.0854 195.331 40.7795 195.491 41.5328C195.491 41.5328 196.942 42.5633 197.015 42.4797Z" fill="#1A73E9"/>
<path d="M165.891 59.937C165.891 59.937 166.144 50.2906 159.442 51.6502C159.442 51.6502 158.242 51.4654 157.736 52.5642C157.736 52.5642 158.242 52.5642 158.1 53.5389C158.054 53.8865 158.049 54.2384 158.085 54.5871C158.131 55.0602 158.331 55.5051 158.655 55.8531C158.655 55.8531 159.862 58.5217 164.321 59.4281C164.321 59.4281 165.311 60.175 165.559 60.1345L164.8 58.5343C164.8 58.5343 163.648 59.1268 162.658 58.7242C162.658 58.7242 164.759 58.6002 164.701 58.2913C164.701 58.228 164.265 57.4583 164.265 57.4583C164.265 57.4583 162.255 58.4837 160.749 57.8102C160.749 57.8102 163.28 58.0001 164.108 57.1671L163.402 56.0455C163.402 56.0455 161.331 57.2304 159.584 56.5316C159.584 56.5316 162.23 56.638 163.232 55.81L162.389 54.7973C162.389 54.7973 160.346 55.9164 158.898 55.3239C158.898 55.3239 161.966 55.1391 162.189 54.5795C162.189 54.5795 161.359 53.701 161.024 53.5668C161.024 53.5668 159.541 54.3264 158.731 53.9162C158.731 53.9162 160.756 53.5769 160.769 53.3516C160.769 53.3516 159.384 52.4933 158.45 52.43C159.311 52.4454 160.153 52.6863 160.893 53.1288C160.777 52.6113 160.514 52.1387 160.133 51.7692C160.133 51.7692 161.098 51.878 161.23 53.3389C161.23 53.3389 162.285 54.0529 162.354 54.2504C162.354 54.2504 162.427 52.7895 162.004 51.9186C162.004 51.9186 162.936 52.6655 162.587 54.5087L163.455 55.5062C163.455 55.5062 163.653 53.5769 163.336 52.7743C163.336 52.7743 164.167 53.6833 163.655 55.7746L164.356 56.8658C164.356 56.8658 164.655 55.2176 164.496 54.2479C164.496 54.2479 165.083 55.2606 164.546 57.1874L164.931 57.9723C164.931 57.9723 165.126 56.7645 165.151 56.4126C165.177 56.0607 165.273 56.0379 165.273 56.0379C165.425 56.7932 165.365 57.576 165.098 58.2989C165.098 58.2989 165.779 59.9699 165.891 59.937Z" fill="#1A73E9"/>
<path opacity="0.1" d="M176.97 182.51C180.736 182.51 183.788 181.994 183.788 181.358C183.788 180.722 180.736 180.206 176.97 180.206C173.204 180.206 170.152 180.722 170.152 181.358C170.152 181.994 173.204 182.51 176.97 182.51Z" fill="#1A73E9"/>
<path opacity="0.1" d="M152.115 200C155.88 200 158.933 199.484 158.933 198.848C158.933 198.212 155.88 197.696 152.115 197.696C148.349 197.696 145.296 198.212 145.296 198.848C145.296 199.484 148.349 200 152.115 200Z" fill="#1A73E9"/>
<path opacity="0.1" d="M23.5818 191.04C27.3474 191.04 30.4001 190.524 30.4001 189.888C30.4001 189.251 27.3474 188.736 23.5818 188.736C19.8161 188.736 16.7634 189.251 16.7634 189.888C16.7634 190.524 19.8161 191.04 23.5818 191.04Z" fill="#1A73E9"/>
<path opacity="0.1" d="M203.831 198.848C207.596 198.848 210.649 198.332 210.649 197.696C210.649 197.06 207.596 196.544 203.831 196.544C200.065 196.544 197.012 197.06 197.012 197.696C197.012 198.332 200.065 198.848 203.831 198.848Z" fill="#1A73E9"/>
<path d="M210.93 184.801C216.553 184.801 221.111 184.03 221.111 183.079C221.111 182.129 216.553 181.358 210.93 181.358C205.307 181.358 200.749 182.129 200.749 183.079C200.749 184.03 205.307 184.801 210.93 184.801Z" fill="#1A73E9"/>
<path d="M215.151 180.262C215.615 179.884 215.954 179.373 216.12 178.798C216.247 178.216 215.999 177.52 215.444 177.307C214.822 177.069 214.156 177.499 213.649 177.935C213.143 178.37 212.568 178.869 211.907 178.778C212.247 178.47 212.5 178.079 212.644 177.644C212.788 177.209 212.817 176.744 212.728 176.294C212.699 176.108 212.62 175.933 212.5 175.788C212.153 175.418 211.528 175.578 211.112 175.869C209.796 176.795 209.429 178.583 209.421 180.193C209.289 179.613 209.401 179.008 209.398 178.421C209.396 177.833 209.231 177.155 208.727 176.846C208.418 176.674 208.069 176.586 207.715 176.593C207.122 176.573 206.461 176.631 206.059 177.064C205.552 177.601 205.687 178.504 206.122 179.089C206.558 179.674 207.223 180.051 207.836 180.462C208.327 180.754 208.745 181.153 209.062 181.629C209.098 181.695 209.127 181.765 209.15 181.836H212.862C213.693 181.418 214.463 180.888 215.151 180.262Z" fill="#1A73E9"/>
<path d="M19.0042 184.533C19.0042 184.533 22.8906 184.414 24.0679 183.578C25.2452 182.743 30.0507 181.748 30.3419 183.087C30.633 184.426 36.1854 189.743 31.7952 189.779C27.4049 189.814 21.5943 189.095 20.4245 188.381C19.2548 187.667 19.0042 184.533 19.0042 184.533Z" fill="#A8A8A8"/>
<path opacity="0.2" d="M31.8686 189.313C27.4783 189.349 21.6677 188.629 20.498 187.915C19.6067 187.374 19.2523 185.427 19.1333 184.528H19.0042C19.0042 184.528 19.2573 187.665 20.4195 188.376C21.5816 189.088 27.3998 189.809 31.7901 189.774C33.056 189.774 33.494 189.313 33.4713 188.645C33.294 189.052 32.8104 189.306 31.8686 189.313Z" fill="black"/>
</g>
<defs>
<linearGradient id="paint0_linear_11_1232" x1="56.4581" y1="109.736" x2="135.485" y2="109.736" gradientUnits="userSpaceOnUse">
<stop stop-color="#808080" stop-opacity="0.25"/>
<stop offset="0.54" stop-color="#808080" stop-opacity="0.12"/>
<stop offset="1" stop-color="#808080" stop-opacity="0.1"/>
</linearGradient>
<clipPath id="clip0_11_1232">
<rect width="255.602" height="200" fill="white"/>
</clipPath>
</defs>
</svg>
