<svg width="24" height="24" viewBox="0 0 24 24" fill="none" xmlns="http://www.w3.org/2000/svg">
<path d="M7 8V6C7 5.46957 7.21071 4.96086 7.58579 4.58579C7.96086 4.21071 8.46957 4 9 4H17C17.5304 4 18.0391 4.21071 18.4142 4.58579C18.7893 4.96086 19 5.46957 19 6V18C19 18.5304 18.7893 19.0391 18.4142 19.4142C18.0391 19.7893 17.5304 20 17 20H9.4C8.2955 20 7 19.1045 7 18V16" stroke="#3C4377" stroke-width="2.5" stroke-linecap="round" stroke-linejoin="round"/>
<path d="M11.2727 16L14.7727 12.5L11.2727 9" stroke="black" stroke-width="2.5" stroke-linecap="round" stroke-linejoin="round"/>
<path d="M4 12.4111L14.1101 12.4111" stroke="black" stroke-width="2.5" stroke-linecap="round" stroke-linejoin="round"/>
</svg>
