<svg width="27" height="21" viewBox="0 0 27 21" fill="none" xmlns="http://www.w3.org/2000/svg">
<path d="M26.2499 2.48828C25.2652 2.91613 24.2234 3.19801 23.1573 3.325C24.2777 2.66896 25.1203 1.62672 25.5269 0.393758C24.4677 1.01314 23.3108 1.44773 22.1057 1.67891C21.5983 1.14709 20.988 0.724017 20.3119 0.4354C19.6359 0.146782 18.9082 -0.00134932 18.1731 9.26098e-06C15.1971 9.26098e-06 12.7886 2.37344 12.7886 5.29921C12.7865 5.70618 12.8332 6.11193 12.9275 6.5078C10.7935 6.40776 8.70378 5.86336 6.79216 4.90943C4.88054 3.9555 3.18908 2.61306 1.82601 0.967975C1.34781 1.77413 1.09491 2.69393 1.09375 3.63125C1.09375 5.46874 2.05242 7.09296 3.49999 8.04452C2.64234 8.02416 1.80227 7.79717 1.05109 7.3828V7.44842C1.05109 10.0187 2.91046 12.157 5.37139 12.6437C4.90862 12.7671 4.43173 12.8296 3.9528 12.8297C3.61296 12.8303 3.27389 12.7973 2.94054 12.7312C3.62468 14.8367 5.61584 16.3679 7.97451 16.4117C6.05792 17.8887 3.70486 18.6871 1.28515 18.6812C0.855648 18.6806 0.426542 18.655 0 18.6046C2.46157 20.1765 5.32296 21.0079 8.24357 20.9999C18.1617 20.9999 23.5801 12.9226 23.5801 5.91718C23.5801 5.68749 23.5741 5.4578 23.5631 5.23359C24.6148 4.4855 25.5247 3.55584 26.2499 2.48828Z" fill="#1B97F0"/>
</svg>
