<svg width="48" height="48" viewBox="0 0 48 48" fill="none" xmlns="http://www.w3.org/2000/svg">
<g filter="url(#filter0_d_0_48)">
<g clip-path="url(#clip0_0_48)">
<rect x="6" y="3" width="36" height="36" rx="18" fill="#DE5E78"/>
<path d="M6 21C6 11.0589 14.0589 3 24 3C33.9411 3 42 11.0589 42 21C42 30.9411 33.9411 39 24 39C14.0589 39 6 30.9411 6 21Z" fill="url(#paint0_radial_0_48)"/>
<path fill-rule="evenodd" clip-rule="evenodd" d="M34.5002 10.5V10.5C34.086 10.5 33.7502 10.8358 33.7502 11.25V11.25V15.2483C33.7502 15.311 33.7816 15.3695 33.8337 15.4043L33.9964 15.5127C33.9964 15.5127 33.9964 15.5128 33.9964 15.5128C34.3239 15.7311 34.6173 15.9885 34.8718 16.2766C34.9948 16.4157 35.2502 16.3333 35.2502 16.1476V11.25C35.2502 10.8358 34.9145 10.5 34.5002 10.5ZM33.8656 17.6499C33.7937 17.536 33.9188 17.4768 33.9937 17.5888C34.0686 17.7008 33.9663 17.7936 33.8883 17.6837C33.8804 17.6726 33.8729 17.6614 33.8656 17.6499Z" fill="white"/>
<path fill-rule="evenodd" clip-rule="evenodd" d="M27.7498 20.1907C27.7498 20.4698 27.7469 20.7217 27.7414 20.9494C27.731 21.3824 28.0739 21.7501 28.5071 21.7501C28.9005 21.7501 29.227 21.4446 29.2383 21.0513C29.2457 20.7914 29.2498 20.5055 29.2498 20.1907C29.2498 18.2528 27.9877 16.6331 26.3022 16.2366C25.867 16.1342 25.4998 16.5061 25.4998 16.9531C25.4998 17.4001 25.875 17.7486 26.2894 17.9163C27.1426 18.2614 27.7498 19.1495 27.7498 20.1907Z" fill="white"/>
<g style="mix-blend-mode:overlay">
<path d="M12.7507 12.375C12.7507 12.5821 12.5828 12.75 12.3757 12.75C12.1686 12.75 12.0007 12.5821 12.0007 12.375C12.0007 12.1679 12.1686 12 12.3757 12C12.5828 12 12.7507 12.1679 12.7507 12.375Z" fill="white" fill-opacity="0.6"/>
</g>
<g style="mix-blend-mode:overlay">
<path d="M9.75037 18.3751C9.75037 18.5822 9.58247 18.7501 9.37537 18.7501C9.16826 18.7501 9.00037 18.5822 9.00037 18.3751C9.00037 18.168 9.16826 18.0001 9.37537 18.0001C9.58247 18.0001 9.75037 18.168 9.75037 18.3751Z" fill="white" fill-opacity="0.6"/>
</g>
<g style="mix-blend-mode:overlay">
<path d="M9.75037 28.1249C9.75037 28.332 9.58247 28.4999 9.37537 28.4999C9.16826 28.4999 9.00037 28.332 9.00037 28.1249C9.00037 27.9178 9.16826 27.7499 9.37537 27.7499C9.58247 27.7499 9.75037 27.9178 9.75037 28.1249Z" fill="white" fill-opacity="0.6"/>
</g>
<g style="mix-blend-mode:overlay">
<path d="M18.7498 6.37493C18.7498 6.58204 18.5819 6.74993 18.3748 6.74993C18.1676 6.74993 17.9998 6.58204 17.9998 6.37493C17.9998 6.16782 18.1676 5.99993 18.3748 5.99993C18.5819 5.99993 18.7498 6.16782 18.7498 6.37493Z" fill="white" fill-opacity="0.6"/>
</g>
<g opacity="0.4">
<path opacity="0.4" d="M23.2494 7.8751C23.2494 8.08221 23.0815 8.2501 22.8744 8.2501C22.6673 8.2501 22.4994 8.08221 22.4994 7.8751C22.4994 7.66799 22.6673 7.5001 22.8744 7.5001C23.0815 7.5001 23.2494 7.66799 23.2494 7.8751Z" fill="white"/>
</g>
<path d="M29.2501 9.37506C29.2501 9.58217 29.0822 9.75006 28.8751 9.75006C28.668 9.75006 28.5001 9.58217 28.5001 9.37506C28.5001 9.16796 28.668 9.00006 28.8751 9.00006C29.0822 9.00006 29.2501 9.16796 29.2501 9.37506Z" fill="white" fill-opacity="0.6"/>
<g style="mix-blend-mode:overlay">
<path d="M32.9993 7.8751C32.9993 8.08221 32.8314 8.2501 32.6243 8.2501C32.4172 8.2501 32.2493 8.08221 32.2493 7.8751C32.2493 7.66799 32.4172 7.5001 32.6243 7.5001C32.8314 7.5001 32.9993 7.66799 32.9993 7.8751Z" fill="white" fill-opacity="0.6"/>
</g>
<path d="M39 19.1249C39 19.332 38.8321 19.4999 38.625 19.4999C38.4179 19.4999 38.25 19.332 38.25 19.1249C38.25 18.9178 38.4179 18.7499 38.625 18.7499C38.8321 18.7499 39 18.9178 39 19.1249Z" fill="white" fill-opacity="0.4"/>
<g opacity="0.4">
<path opacity="0.4" d="M40.4993 22.1251C40.4993 22.3322 40.3314 22.5001 40.1243 22.5001C39.9172 22.5001 39.7493 22.3322 39.7493 22.1251C39.7493 21.918 39.9172 21.7501 40.1243 21.7501C40.3314 21.7501 40.4993 21.918 40.4993 22.1251Z" fill="white" fill-opacity="0.7"/>
</g>
<mask id="mask0_0_48" style="mask-type:alpha" maskUnits="userSpaceOnUse" x="6" y="3" width="36" height="36">
<path d="M42 21C42 30.9411 33.9411 39 24 39C14.0589 39 6 30.9411 6 21C6 11.0589 14.0589 3 24 3C33.9411 3 42 11.0589 42 21Z" fill="white"/>
</mask>
<g mask="url(#mask0_0_48)">
<g style="mix-blend-mode:soft-light">
<path d="M40.5006 21C40.5006 30.1128 33.1133 37.5 24.0006 37.5V40.5C34.7702 40.5 43.5006 31.7696 43.5006 21H40.5006ZM24.0006 37.5C14.8879 37.5 7.50061 30.1128 7.50061 21H4.50061C4.50061 31.7696 13.2311 40.5 24.0006 40.5V37.5ZM7.50061 21C7.50061 11.8873 14.8879 4.50003 24.0006 4.50003V1.50003C13.2311 1.50003 4.50061 10.2305 4.50061 21H7.50061ZM24.0006 4.50003C33.1133 4.50003 40.5006 11.8873 40.5006 21H43.5006C43.5006 10.2305 34.7702 1.50003 24.0006 1.50003V4.50003Z" fill="#0F015E" fill-opacity="0.5"/>
</g>
</g>
<path fill-rule="evenodd" clip-rule="evenodd" d="M29.9404 36.3983C28.0971 37.1099 26.094 37.5 23.9998 37.5C21.9055 37.5 19.9024 37.1099 18.0592 36.3983C18.0775 36.2154 18.1013 36.0487 18.1318 35.8946C18.1525 35.7894 18.1766 35.6846 18.2067 35.5816C18.3069 35.238 18.4242 35.1246 18.5312 35.0496L18.5323 35.0488C18.727 34.9128 19.1398 34.7446 20.0717 34.6368L20.1206 34.6313C21.0736 34.5237 22.3102 34.5 23.9986 34.5H24.001C25.6893 34.5 26.9259 34.5237 27.8789 34.6313L27.9278 34.6368C28.8598 34.7446 29.2725 34.9128 29.4672 35.0488L29.4683 35.0496C29.5753 35.1246 29.6926 35.238 29.7928 35.5816C29.8229 35.6846 29.847 35.7894 29.8678 35.8946C29.8982 36.0487 29.922 36.2154 29.9404 36.3983ZM31.3663 35.7684C30.9649 33.2736 29.4367 33 23.9998 33C18.5628 33 17.0347 33.2736 16.6333 35.7684C14.5316 34.7181 12.6856 33.2323 11.2132 31.4294C11.6278 30.6599 12.2052 29.9928 12.897 29.4726C13.0657 29.3458 13.2967 29.3646 13.4722 29.4817L15.7436 30.996L15.7444 30.9964C16.2371 31.3248 16.8159 31.5 17.4081 31.5H23.9998H30.5914C31.1836 31.5 31.7624 31.3248 32.2552 30.9964L32.2559 30.996L34.5273 29.4817C34.7029 29.3646 34.9339 29.3458 35.1025 29.4726C35.7943 29.9928 36.3717 30.6599 36.7863 31.4294C35.314 33.2323 33.4678 34.7181 31.3663 35.7684ZM29.9993 37.976C28.1227 38.6392 26.1034 39 23.9998 39C21.8961 39 19.8768 38.6392 18.0002 37.976C17.9998 38.0622 17.9998 38.1507 17.9998 38.2418V38.2583C17.9996 39.3227 18.0212 40.0466 18.1318 40.6055C18.1525 40.7107 18.1766 40.8155 18.2067 40.9185C18.3069 41.2621 18.4242 41.3754 18.5312 41.4504L18.5323 41.4513C18.727 41.5872 19.1398 41.7555 20.0717 41.8632L20.1206 41.8688C21.0736 41.9764 22.3102 42.0001 23.9986 42H24.001C25.6893 42.0001 26.9259 41.9764 27.8789 41.8688L27.9278 41.8632C28.8598 41.7555 29.2725 41.5872 29.4672 41.4513L29.4683 41.4504C29.5753 41.3754 29.6926 41.2621 29.7928 40.9185C29.8229 40.8155 29.847 40.7107 29.8678 40.6055C29.9783 40.0466 29.9999 39.3227 29.9998 38.2583V38.2418C29.9998 38.1507 29.9997 38.0622 29.9993 37.976ZM16.509 37.3722C14.2601 36.3416 12.2602 34.8612 10.6245 33.0461C10.5428 33.441 10.4998 33.8505 10.4998 34.2708V36.75C10.4998 40.0638 13.1861 42.75 16.4998 42.75C16.8677 42.75 17.1003 42.1392 16.9425 41.8068C16.5727 41.0269 16.4998 39.8937 16.4998 38.25C16.4998 37.9395 16.5023 37.6473 16.509 37.3722ZM31.4905 37.3722C33.7394 36.3416 35.7393 34.8612 37.375 33.0461C37.4567 33.441 37.4998 33.8505 37.4998 34.2708V36.75C37.4998 40.0638 34.8135 42.75 31.4998 42.75C31.1318 42.75 30.8992 42.1392 31.057 41.8068C31.4269 41.0269 31.4998 39.8937 31.4998 38.25C31.4998 37.9395 31.4972 37.6473 31.4905 37.3722ZM32.2498 20.25C32.2498 22.8702 31.8685 24.8632 30.7955 26.2095C29.7826 27.4803 27.877 28.5 23.9998 28.5C20.1226 28.5 18.217 27.4803 17.204 26.2095C16.1311 24.8632 15.7498 22.8702 15.7498 20.25C15.7498 15.6937 19.4434 12 23.9998 12C28.5561 12 32.2498 15.6937 32.2498 20.25ZM14.996 16.5026L14.0856 17.1094C13.2511 17.6658 12.7498 18.6025 12.7498 19.6056V25.5582C12.7498 26.4695 13.164 27.3315 13.8757 27.9008L15.678 29.3427C16.2099 29.7682 16.8709 30 17.5521 30H23.9998H30.4474C31.1287 30 31.7896 29.7682 32.3215 29.3427L34.1239 27.9008C34.8355 27.3315 35.2498 26.4695 35.2498 25.5582V19.6056C35.2498 18.6025 34.7485 17.6658 33.9139 17.1094L33.0036 16.5026C31.5349 12.9778 28.0567 10.5 23.9998 10.5C19.9429 10.5 16.4647 12.9778 14.996 16.5026Z" fill="white"/>
</g>
</g>
<defs>
<filter id="filter0_d_0_48" x="0" y="0" width="48" height="48" filterUnits="userSpaceOnUse" color-interpolation-filters="sRGB">
<feFlood flood-opacity="0" result="BackgroundImageFix"/>
<feColorMatrix in="SourceAlpha" type="matrix" values="0 0 0 0 0 0 0 0 0 0 0 0 0 0 0 0 0 0 127 0" result="hardAlpha"/>
<feOffset dy="3"/>
<feGaussianBlur stdDeviation="3"/>
<feColorMatrix type="matrix" values="0 0 0 0 0.431373 0 0 0 0 0.454902 0 0 0 0 0.52549 0 0 0 0.24 0"/>
<feBlend mode="normal" in2="BackgroundImageFix" result="effect1_dropShadow_0_48"/>
<feBlend mode="normal" in="SourceGraphic" in2="effect1_dropShadow_0_48" result="shape"/>
</filter>
<radialGradient id="paint0_radial_0_48" cx="0" cy="0" r="1" gradientUnits="userSpaceOnUse" gradientTransform="translate(6 3) rotate(45) scale(50.9117)">
<stop stop-color="#03AAFB"/>
<stop offset="1" stop-color="#0F015E"/>
</radialGradient>
<clipPath id="clip0_0_48">
<rect x="6" y="3" width="36" height="36" rx="18" fill="white"/>
</clipPath>
</defs>
</svg>
