<svg width="18" height="12" viewBox="0 0 18 12" fill="none" xmlns="http://www.w3.org/2000/svg">
<path d="M11.6788 1.18957H6.32331V9.93663H11.6788V1.18957Z" fill="#FF5F00"/>
<path d="M6.87507 5.56519C6.87441 4.72293 7.06534 3.89155 7.43343 3.13397C7.80151 2.37639 8.33709 1.71246 8.99965 1.19243C8.17904 0.547524 7.19355 0.146493 6.1558 0.0351747C5.11806 -0.0761435 4.06993 0.106742 3.13121 0.56293C2.19249 1.01912 1.40105 1.7302 0.84734 2.61491C0.293633 3.49962 0 4.52227 0 5.56597C0 6.60967 0.293633 7.63231 0.84734 8.51702C1.40105 9.40173 2.19249 10.1128 3.13121 10.569C4.06993 11.0252 5.11806 11.2081 6.1558 11.0968C7.19355 10.9854 8.17904 10.5844 8.99965 9.9395C8.33689 9.41931 7.80118 8.75513 7.43309 7.99727C7.065 7.2394 6.87418 6.40772 6.87507 5.56519Z" fill="#EB001B"/>
<path d="M17.4684 9.01136V8.83213H17.5456V8.79504H17.3617V8.83213H17.4344V9.01136H17.4684ZM17.8253 9.01136V8.79504H17.7697L17.7048 8.94956L17.6399 8.79504H17.5842V9.01136H17.6244V8.84758L17.6847 8.98819H17.7264L17.7867 8.84758V9.01136H17.8253Z" fill="#F79E1B"/>
<path d="M18 5.56394C18 6.60771 17.7063 7.63042 17.1524 8.51516C16.5986 9.3999 15.8071 10.111 14.8682 10.5671C13.9294 11.0232 12.8812 11.206 11.8434 11.0945C10.8056 10.983 9.82006 10.5818 8.99951 9.9367C9.6618 9.4162 10.1972 8.7521 10.5654 7.99448C10.9336 7.23685 11.1249 6.40551 11.1249 5.56317C11.1249 4.72082 10.9336 3.88948 10.5654 3.13186C10.1972 2.37424 9.6618 1.71013 8.99951 1.18963C9.82006 0.544524 10.8056 0.143298 11.8434 0.0318194C12.8812 -0.0796587 13.9294 0.103109 14.8682 0.559232C15.8071 1.01535 16.5986 1.72643 17.1524 2.61117C17.7063 3.49591 18 4.51862 18 5.56239V5.56394Z" fill="#F79E1B"/>
</svg>
