<svg width="18" height="18" viewBox="0 0 18 18" fill="none" xmlns="http://www.w3.org/2000/svg">
<path d="M10.6491 8.99992L17.6579 1.99089C18.114 1.53498 18.114 0.79784 17.6579 0.341931C17.202 -0.113977 16.4648 -0.113977 16.0089 0.341931L8.99988 7.35096L1.99105 0.341931C1.53493 -0.113977 0.798001 -0.113977 0.342092 0.341931C-0.114031 0.79784 -0.114031 1.53498 0.342092 1.99089L7.35092 8.99992L0.342092 16.009C-0.114031 16.4649 -0.114031 17.202 0.342092 17.6579C0.569299 17.8853 0.868043 17.9996 1.16657 17.9996C1.4651 17.9996 1.76363 17.8853 1.99105 17.6579L8.99988 10.6489L16.0089 17.6579C16.2363 17.8853 16.5349 17.9996 16.8334 17.9996C17.1319 17.9996 17.4305 17.8853 17.6579 17.6579C18.114 17.202 18.114 16.4649 17.6579 16.009L10.6491 8.99992Z" fill="black"/>
</svg>
