<svg width="24" height="24" viewBox="0 0 24 24" fill="none" xmlns="http://www.w3.org/2000/svg">
<path d="M11.4865 14.3274C12.0694 14.3849 12.6559 14.2609 13.1656 13.9723C13.6753 13.6837 14.0834 13.2446 14.3339 12.7151C14.5844 12.1856 14.6652 11.5916 14.5651 11.0145C14.465 10.4373 14.1889 9.90522 13.7747 9.49102C13.3605 9.07682 12.8284 8.80077 12.2513 8.70067C11.6741 8.60056 11.0801 8.6813 10.5506 8.93181C10.0212 9.18233 9.58205 9.59038 9.29343 10.1001C9.00481 10.6098 8.88079 11.1963 8.93836 11.7792C9.004 12.4327 9.29355 13.0434 9.75795 13.5078C10.2223 13.9722 10.833 14.2617 11.4865 14.3274ZM4.64561 11.5C4.64742 11.1912 4.67011 10.8828 4.71353 10.5771L2.70654 9.00292C2.61915 8.93048 2.56026 8.8294 2.54035 8.71765C2.52044 8.60589 2.54079 8.4907 2.59778 8.39253L4.49645 5.10748C4.55411 5.01025 4.64424 4.9365 4.75095 4.89923C4.85766 4.86195 4.97411 4.86354 5.07977 4.90372L7.07299 5.70633C7.18291 5.7501 7.30197 5.76591 7.4195 5.75235C7.53703 5.73879 7.64936 5.69629 7.74642 5.62865C8.05062 5.41917 8.37028 5.23307 8.70264 5.07196C8.80713 5.02118 8.89751 4.94545 8.96579 4.85146C9.03408 4.75747 9.07817 4.64811 9.09418 4.53304L9.39294 2.40708C9.41256 2.2948 9.47057 2.19283 9.55705 2.11858C9.64352 2.04433 9.7531 2.00241 9.86705 2L13.6644 2C13.7765 2.00194 13.8845 2.042 13.9708 2.11357C14.0571 2.18515 14.1164 2.28397 14.1389 2.39376L14.4373 4.51661C14.454 4.63295 14.4993 4.74335 14.569 4.83799C14.6387 4.93263 14.7307 5.00858 14.8368 5.05909C15.1688 5.21933 15.4873 5.40593 15.7895 5.6171C15.8862 5.68441 15.9982 5.72659 16.1153 5.73984C16.2323 5.75309 16.3509 5.737 16.4602 5.69302L18.453 4.89084C18.5586 4.85063 18.675 4.84897 18.7817 4.88616C18.8884 4.92336 18.9786 4.99701 19.0363 5.09416L20.935 8.37921C20.9921 8.47735 21.0125 8.59257 20.9926 8.70435C20.9726 8.81613 20.9137 8.91721 20.8262 8.9896L19.13 10.3214C19.0371 10.3951 18.964 10.491 18.9175 10.6001C18.871 10.7093 18.8525 10.8283 18.8636 10.9464C18.8796 11.1315 18.8894 11.3162 18.8894 11.5013C18.8894 11.6864 18.8801 11.8685 18.8636 12.0496C18.8537 12.167 18.8731 12.285 18.9202 12.393C18.9672 12.5011 19.0404 12.5957 19.1331 12.6684L20.8285 14.0002C20.9145 14.0729 20.9722 14.1737 20.9914 14.2847C21.0107 14.3957 20.9902 14.51 20.9337 14.6075L19.035 17.8925C18.9773 17.9897 18.8872 18.0635 18.7805 18.1008C18.6738 18.1381 18.5573 18.1365 18.4517 18.0963L16.4585 17.2937C16.3485 17.2499 16.2295 17.2341 16.112 17.2477C15.9944 17.2612 15.8821 17.3037 15.785 17.3714C15.4808 17.5808 15.1612 17.7669 14.8288 17.928C14.7243 17.9788 14.6339 18.0546 14.5657 18.1485C14.4974 18.2425 14.4533 18.3519 14.4373 18.467L14.1385 20.5929C14.1189 20.7052 14.0609 20.8072 13.9744 20.8814C13.8879 20.9557 13.7783 20.9976 13.6644 21L9.86706 21C9.75498 20.9981 9.64691 20.958 9.56065 20.8864C9.47439 20.8149 9.41508 20.716 9.3925 20.6062L9.09418 18.4834C9.07743 18.3671 9.03219 18.2567 8.96249 18.162C8.89279 18.0674 8.80078 17.9914 8.69465 17.9409C8.36269 17.7807 8.04411 17.5941 7.74198 17.3829C7.64525 17.3156 7.53329 17.2734 7.41619 17.2602C7.2991 17.2469 7.18054 17.263 7.07122 17.307L5.07843 18.1092C4.97283 18.1494 4.85642 18.151 4.74971 18.1138C4.643 18.0766 4.55284 18.003 4.49512 17.9058L2.59645 14.6208C2.53937 14.5226 2.51897 14.4074 2.53888 14.2957C2.5588 14.1839 2.61774 14.0828 2.70521 14.0104L4.40145 12.6786C4.49478 12.6051 4.56825 12.5094 4.61515 12.4002C4.66206 12.2911 4.68092 12.1719 4.67002 12.0536C4.65537 11.8698 4.64561 11.6851 4.64561 11.5Z" stroke="#3C4377" stroke-width="2.2" stroke-linecap="round" stroke-linejoin="round"/>
</svg>
