<svg width="222" height="200" viewBox="0 0 222 200" fill="none" xmlns="http://www.w3.org/2000/svg">
<g clip-path="url(#clip0_11_1172)">
<path d="M140.995 115.756L110.381 79.3365L48.9302 79.8981L11.6533 116.207L12.4065 116.691H12.1376V192.213H140.912V116.691L140.995 115.756Z" fill="#3F3D56"/>
<path d="M110.413 79.4139L72.1677 124.252V192.213H140.912V115.722L110.413 79.4139Z" fill="#1A73E9"/>
<path d="M113.802 154.63H99.7622V167.039H113.802V154.63Z" fill="white"/>
<path d="M113.802 133.151H99.7622V145.363H113.802V133.151Z" fill="white"/>
<path d="M51.4097 151.337H37.3704V163.746H51.4097V151.337Z" fill="white"/>
<path d="M51.4097 129.858H37.3704V142.07H51.4097V129.858Z" fill="white"/>
<path d="M221.817 191.977H0V192.505H221.817V191.977Z" fill="#3F3D56"/>
<path d="M188.411 183.637L189.467 188.916L184.189 189.971L184.98 183.374L188.411 183.637Z" fill="#A0616A"/>
<path d="M205.038 182.582L203.718 189.18H197.384L200.023 181.262L205.038 182.582Z" fill="#A0616A"/>
<path d="M210.844 136.661L211.899 143.787L210.58 159.358L209.524 165.164L205.038 184.165C205.038 184.165 200.023 184.165 199.232 182.054L200.551 171.234C200.551 171.234 201.607 162.525 201.343 161.469C201.079 160.413 197.12 143.523 197.12 143.523C197.12 143.523 191.314 170.178 190.522 172.553C189.731 174.929 188.675 185.221 188.675 185.221C188.675 185.221 184.189 186.013 183.925 185.221C183.661 184.429 183.397 165.692 183.397 162.789C183.397 159.886 183.925 158.302 183.925 157.774C183.925 157.247 181.845 132.05 181.845 132.05L210.844 136.661Z" fill="#2F2E41"/>
<path d="M200.023 187.86C200.023 187.86 201.343 188.124 202.135 187.86C202.926 187.596 202.135 186.013 202.135 186.013H205.038C205.038 186.013 208.205 193.138 209.524 193.666C210.844 194.194 215.066 200 210.052 200C206.958 199.96 203.938 199.045 201.343 197.361C201.343 197.361 200.815 194.986 198.44 194.722C196.065 194.458 194.481 191.555 194.481 191.555L197.912 185.221C197.912 185.221 198.704 188.124 200.023 187.86Z" fill="#2F2E41"/>
<path d="M187.619 187.596C187.619 187.596 187.092 188.652 186.564 188.124C186.036 187.596 185.508 186.277 185.508 186.277C185.508 186.277 183.925 185.485 183.661 186.277C183.397 187.068 182.341 191.291 181.813 191.819C181.286 192.347 175.743 197.889 181.286 198.944C186.828 200 187.883 197.625 187.883 197.625C187.883 197.625 187.092 196.305 188.675 195.778C190.259 195.25 190.522 193.402 190.522 193.402L189.467 185.485C189.467 185.485 188.411 188.124 187.619 187.596Z" fill="#2F2E41"/>
<path d="M216.913 118.188L217.705 131.911C217.705 131.911 221.4 140.62 216.386 140.356C211.371 140.092 214.538 131.647 214.538 131.647L209.629 119.399L216.913 118.188Z" fill="#A0616A"/>
<path d="M176.271 114.229L175.48 127.952C175.48 127.952 171.785 136.661 176.799 136.398C181.813 136.134 178.646 127.688 178.646 127.688L183.556 115.441L176.271 114.229Z" fill="#A0616A"/>
<path d="M197.384 84.407C201.174 84.407 204.246 81.3349 204.246 77.5453C204.246 73.7557 201.174 70.6837 197.384 70.6837C193.595 70.6837 190.522 73.7557 190.522 77.5453C190.522 81.3349 193.595 84.407 197.384 84.407Z" fill="#A0616A"/>
<path d="M202.794 80.3164C202.794 80.3164 200.947 87.7059 204.642 89.5533C208.336 91.4007 193.03 94.0398 191.974 89.5533L192.502 87.442C192.502 87.442 194.613 84.8029 194.085 82.4277L202.794 80.3164Z" fill="#A0616A"/>
<path d="M198.704 89.6851C198.704 89.6851 194.15 90.1104 192.732 87.1267C192.732 87.1267 182.077 87.8377 179.702 97.6025L183.661 122.938C183.661 122.938 179.438 130.327 179.966 131.119C179.966 131.119 177.327 138.509 201.607 138.773L212.163 138.245C212.306 136.745 212.217 135.231 211.899 133.758C211.371 131.383 208.468 114.757 208.468 114.757C208.468 114.757 216.386 102.353 215.594 100.505C214.802 98.6581 213.534 91.374 203.348 88.4183C203.348 88.4183 203.19 89.949 198.704 89.6851Z" fill="#E6E6E6"/>
<path d="M212.163 96.0191L215.594 100.506C215.594 100.506 219.025 119.243 217.969 119.507C216.914 119.771 210.58 121.882 209.524 121.091C208.468 120.299 203.718 104.728 203.718 104.728L212.163 96.0191Z" fill="#E6E6E6"/>
<path d="M184.189 94.6995L179.702 97.6025C179.702 97.6025 173.104 116.076 174.952 116.868C176.799 117.66 187.092 117.132 187.092 117.132L184.189 94.6995Z" fill="#E6E6E6"/>
<path d="M204.884 71.4046C204.884 71.4046 202.508 66.2551 197.952 67.4434C193.397 68.6318 190.822 70.4143 190.624 72.1968C190.426 73.9793 190.723 76.6531 190.723 76.6531C190.723 76.6531 191.218 72.989 194.387 73.7813C196.073 74.2026 198.263 74.2318 199.943 74.1668C200.273 74.1532 200.602 74.207 200.91 74.3247C201.218 74.4425 201.498 74.6218 201.735 74.8517C201.971 75.0816 202.158 75.3573 202.284 75.6619C202.411 75.9665 202.473 76.2937 202.469 76.6234L202.386 82.2957C202.386 82.2957 208.984 78.0731 204.884 71.4046Z" fill="#2F2E41"/>
<path d="M172.521 73.4017H79.3116C78.8539 73.4011 78.4152 73.2191 78.0916 72.8955C77.768 72.5719 77.586 72.1332 77.5854 71.6756V28.8767C77.586 28.4191 77.768 27.9804 78.0916 27.6568C78.4152 27.3332 78.8539 27.1512 79.3116 27.1506H172.521C172.979 27.1512 173.417 27.3332 173.741 27.6568C174.065 27.9804 174.247 28.4191 174.247 28.8767V71.6756C174.247 72.1332 174.065 72.5719 173.741 72.8955C173.417 73.2191 172.979 73.4011 172.521 73.4017ZM79.3116 27.8411C79.037 27.8414 78.7737 27.9506 78.5796 28.1447C78.3854 28.3389 78.2762 28.6022 78.2759 28.8767V71.6756C78.2762 71.9501 78.3854 72.2134 78.5796 72.4075C78.7737 72.6017 79.037 72.7109 79.3116 72.7112H172.521C172.796 72.7109 173.059 72.6017 173.253 72.4075C173.447 72.2134 173.556 71.9501 173.557 71.6756V28.8767C173.556 28.6022 173.447 28.3389 173.253 28.1447C173.059 27.9506 172.796 27.8414 172.521 27.8411H79.3116Z" fill="#E6E6E6"/>
<path d="M93.104 49.3432C96.9872 49.3432 100.135 46.1952 100.135 42.312C100.135 38.4287 96.9872 35.2808 93.104 35.2808C89.2207 35.2808 86.0728 38.4287 86.0728 42.312C86.0728 46.1952 89.2207 49.3432 93.104 49.3432Z" fill="#1A73E9"/>
<path d="M109.343 37.6245C109.189 37.6242 109.036 37.6544 108.894 37.7132C108.751 37.7719 108.622 37.8582 108.513 37.9671C108.404 38.0759 108.318 38.2052 108.259 38.3475C108.2 38.4898 108.169 38.6423 108.169 38.7963C108.169 38.9504 108.2 39.1029 108.259 39.2452C108.318 39.3875 108.404 39.5167 108.513 39.6256C108.622 39.7344 108.751 39.8207 108.894 39.8795C109.036 39.9383 109.189 39.9684 109.343 39.9682H164.588C164.899 39.9682 165.197 39.8447 165.417 39.625C165.636 39.4052 165.76 39.1071 165.76 38.7963C165.76 38.4855 165.636 38.1875 165.417 37.9677C165.197 37.7479 164.899 37.6245 164.588 37.6245H109.343Z" fill="#E6E6E6"/>
<path d="M109.343 44.6556C109.189 44.6554 109.036 44.6856 108.894 44.7443C108.751 44.8031 108.622 44.8894 108.513 44.9982C108.404 45.1071 108.318 45.2364 108.259 45.3786C108.2 45.5209 108.169 45.6735 108.169 45.8275C108.169 45.9815 108.2 46.1341 108.259 46.2764C108.318 46.4187 108.404 46.5479 108.513 46.6568C108.622 46.7656 108.751 46.8519 108.894 46.9107C109.036 46.9695 109.189 46.9996 109.343 46.9994H133.115C133.269 46.9996 133.422 46.9695 133.564 46.9107C133.706 46.8519 133.836 46.7656 133.945 46.6568C134.054 46.5479 134.14 46.4187 134.199 46.2764C134.258 46.1341 134.289 45.9815 134.289 45.8275C134.289 45.6735 134.258 45.5209 134.199 45.3786C134.14 45.2364 134.054 45.1071 133.945 44.9982C133.836 44.8894 133.706 44.8031 133.564 44.7443C133.422 44.6856 133.269 44.6554 133.115 44.6556H109.343Z" fill="#E6E6E6"/>
<path d="M87.7111 55.8965C86.8196 55.8965 86.0942 56.4223 86.0942 57.0684C86.0942 57.7145 86.8196 58.2402 87.7111 58.2402H163.932C164.824 58.2402 165.549 57.7144 165.549 57.0684C165.549 56.4223 164.824 55.8965 163.932 55.8965H87.7111Z" fill="#E6E6E6"/>
<path d="M87.7111 62.9277C86.8196 62.9277 86.0942 63.4534 86.0942 64.0995C86.0942 64.7456 86.8196 65.2714 87.7111 65.2714H163.932C164.824 65.2714 165.549 64.7456 165.549 64.0995C165.549 63.4534 164.824 62.9277 163.932 62.9277H87.7111Z" fill="#E6E6E6"/>
<path d="M155.734 25.0093C162.64 25.0093 168.238 19.4108 168.238 12.5047C168.238 5.59853 162.64 0 155.734 0C148.828 0 143.229 5.59853 143.229 12.5047C143.229 19.4108 148.828 25.0093 155.734 25.0093Z" fill="#1A73E9"/>
<path d="M155.734 32.8327L151.824 26.0605L147.914 19.2883H155.734H163.554L159.644 26.0605L155.734 32.8327Z" fill="#1A73E9"/>
<path d="M155.835 16.9132C158.312 16.9132 160.321 14.9045 160.321 12.4267C160.321 9.94885 158.312 7.94019 155.835 7.94019C153.357 7.94019 151.348 9.94885 151.348 12.4267C151.348 14.9045 153.357 16.9132 155.835 16.9132Z" fill="white"/>
<path d="M202.914 78.8649C203.497 78.8649 203.969 78.2741 203.969 77.5453C203.969 76.8166 203.497 76.2258 202.914 76.2258C202.331 76.2258 201.858 76.8166 201.858 77.5453C201.858 78.2741 202.331 78.8649 202.914 78.8649Z" fill="#A0616A"/>
</g>
<defs>
<clipPath id="clip0_11_1172">
<rect width="221.817" height="200" fill="white"/>
</clipPath>
</defs>
</svg>
