<svg width="20" height="20" viewBox="0 0 20 20" fill="none" xmlns="http://www.w3.org/2000/svg">
<path d="M17.2717 5.66406C17.6851 5.66406 17.9718 5.24605 17.8168 4.86273C17.2663 3.50176 15.931 2.53906 14.375 2.53906H13.6557C13.3875 1.12215 12.1452 0 10.625 0H9.37503C7.85585 0 6.61272 1.12141 6.34432 2.53906H5.62503C4.06901 2.53906 2.73378 3.50176 2.18327 4.86273C2.02823 5.24605 2.31491 5.66406 2.72839 5.66406H17.2717ZM9.37503 1.17188H10.625C11.4805 1.17188 12.2067 1.74742 12.4511 2.53906H7.54893C7.79339 1.74742 8.51956 1.17188 9.37503 1.17188Z" fill="black"/>
<path d="M4.33807 18.367C4.40327 19.2827 5.17346 20 6.09143 20H13.9087C14.8266 20 15.5968 19.2827 15.662 18.367L16.4832 6.83594H3.5169L4.33807 18.367ZM11.6024 9.97074C11.6185 9.64754 11.8941 9.39828 12.2168 9.4148C12.54 9.43098 12.7889 9.70609 12.7728 10.0293L12.4603 16.2793C12.4446 16.5925 12.1857 16.8359 11.8755 16.8359C11.5381 16.8359 11.2732 16.5538 11.2898 16.2207L11.6024 9.97074ZM7.78331 9.4148C8.10608 9.39859 8.38163 9.64758 8.39776 9.97074L8.71026 16.2207C8.7269 16.5539 8.46174 16.8359 8.12456 16.8359C7.8144 16.8359 7.55549 16.5925 7.53983 16.2793L7.22733 10.0293C7.2112 9.70609 7.4601 9.43098 7.78331 9.4148Z" fill="black"/>
</svg>
