<svg width="25" height="16" viewBox="0 0 25 16" fill="none" xmlns="http://www.w3.org/2000/svg">
<path d="M24.5688 15.2119H0.431052C0.193017 15.2119 0 15.0327 0 14.8116V0.400332C0 0.17926 0.193017 0 0.431052 0H24.5689C24.8069 0 24.9999 0.17926 24.9999 0.400332V14.8116C24.9999 15.0327 24.8068 15.2119 24.5688 15.2119Z" fill="#FF4B55"/>
<path d="M12.3767 6.23443L13.0523 7.05527L14.1073 6.72731C14.1663 6.70899 14.2165 6.77094 14.1811 6.81846L13.5493 7.66887L14.2112 8.49937C14.2482 8.54581 14.2003 8.60925 14.1407 8.59274L13.0746 8.29748L12.4287 9.13869C12.3926 9.18571 12.3127 9.16299 12.3112 9.10527L12.2841 8.07238L11.2231 7.76179C11.1637 7.74442 11.1623 7.66692 11.221 7.64774L12.2704 7.30464L12.2605 6.27148C12.2599 6.2137 12.3389 6.18854 12.3767 6.23443Z" fill="#F5F5F5"/>
<path d="M8.64036 10.8105C6.73632 10.8105 5.1918 9.37597 5.1918 7.60604C5.1918 5.83937 6.73637 4.40166 8.64036 4.40166C9.34876 4.40166 10.002 4.60401 10.5465 4.94647C10.6298 4.99889 10.725 4.89718 10.6552 4.82979C9.84153 4.04414 8.68997 3.56486 7.41312 3.60535C5.21948 3.67487 3.40348 5.3083 3.26329 7.34261C3.10279 9.67272 5.0894 11.6092 7.56283 11.6092C8.78123 11.6092 9.87624 11.1361 10.6582 10.3797C10.7273 10.3129 10.6319 10.2127 10.5493 10.2647C10.0043 10.6079 9.34998 10.8105 8.64036 10.8105Z" fill="#F5F5F5"/>
</svg>
