<svg width="23" height="21" viewBox="0 0 23 21" fill="none" xmlns="http://www.w3.org/2000/svg">
<path d="M7.7028 0C3.46169 0 0 3.30314 0 7.35C0 11.3969 3.46169 14.7 7.7028 14.7C9.6263 14.7 11.3836 14.0154 12.7363 12.8953L13.2048 13.3424V14.7L19.8072 21L22.008 18.9L15.4056 12.6H13.9828L13.5143 12.1529C14.6882 10.8623 15.4056 9.1854 15.4056 7.35C15.4056 3.30314 11.9439 0 7.7028 0ZM7.7028 2.1C10.7545 2.1 13.2048 4.43807 13.2048 7.35C13.2048 10.2619 10.7545 12.6 7.7028 12.6C4.6511 12.6 2.2008 10.2619 2.2008 7.35C2.2008 4.43807 4.6511 2.1 7.7028 2.1Z" fill="#3C4377"/>
</svg>
