<svg width="39" height="39" viewBox="0 0 39 39" fill="none" xmlns="http://www.w3.org/2000/svg">
<path d="M11.1722 30.2404C10.9717 30.2404 10.7794 30.1607 10.6376 30.0189C10.4958 29.8772 10.4162 29.6849 10.4162 29.4844V10.7793C10.4162 10.5812 10.4682 10.3866 10.5668 10.2148C10.6655 10.043 10.8074 9.90011 10.9785 9.80024C11.5502 9.46807 12.7022 9.07211 14.9522 9.07211C16.7104 9.07211 18.677 9.76717 20.412 10.38C21.8092 10.8738 23.1289 11.3401 24.0243 11.3401C25.177 11.3366 26.3174 11.1037 27.3791 10.655C27.5084 10.6004 27.6492 10.5787 27.7889 10.5917C27.9287 10.6048 28.063 10.6522 28.18 10.7298C28.2969 10.8073 28.3929 10.9126 28.4592 11.0363C28.5256 11.1599 28.5604 11.2981 28.5604 11.4384V21.8033C28.5602 21.987 28.5065 22.1667 28.4058 22.3204C28.3051 22.474 28.1618 22.595 27.9934 22.6685C27.5818 22.8485 26.0793 23.4363 24.0243 23.4363C22.8837 23.4363 21.4548 23.0989 19.9424 22.7412C18.2423 22.3396 16.4846 21.9243 14.9522 21.9243C13.2101 21.9243 12.3185 22.1879 11.9282 22.3547V29.4844C11.9282 29.6849 11.8485 29.8772 11.7068 30.0189C11.565 30.1607 11.3727 30.2404 11.1722 30.2404Z" fill="#5E0101"/>
<rect x="0.5" y="0.5" width="38" height="38" rx="18.845" stroke="#D9D9D9"/>
</svg>
