<svg width="179" height="200" viewBox="0 0 179 200" fill="none" xmlns="http://www.w3.org/2000/svg">
<g clip-path="url(#clip0_11_762)">
<path d="M99.7253 47.5275H98.6264V17.4234C98.6264 12.8024 96.7907 8.37074 93.5232 5.10321C90.2557 1.83569 85.8239 5.83076e-06 81.203 0H17.4234C15.1354 -5.7741e-06 12.8697 0.450658 10.7558 1.32626C8.64188 2.20186 6.72114 3.48526 5.10322 5.10317C3.48531 6.72108 2.20191 8.64181 1.32629 10.7557C0.45068 12.8696 5.05238e-06 15.1353 0 17.4234V182.577C-2.1653e-06 184.865 0.45066 187.13 1.32627 189.244C2.20187 191.358 3.48528 193.279 5.10319 194.897C6.7211 196.515 8.64184 197.798 10.7557 198.674C12.8696 199.549 15.1353 200 17.4234 200H81.2029C85.8239 200 90.2556 198.164 93.5231 194.897C96.7906 191.629 98.6263 187.198 98.6263 182.577V68.9561H99.7253V47.5275Z" fill="#E6E6E6"/>
<path d="M81.9059 4.53298H73.5806C73.9634 5.47163 74.1096 6.49003 74.0061 7.49847C73.9027 8.50691 73.5528 9.47443 72.9874 10.3158C72.4219 11.1572 71.6582 11.8466 70.7636 12.3233C69.8689 12.8 68.8708 13.0494 67.8571 13.0495H31.3186C30.3049 13.0494 29.3067 12.8 28.4121 12.3233C27.5174 11.8466 26.7537 11.1572 26.1883 10.3158C25.6228 9.47442 25.273 8.50689 25.1695 7.49845C25.0661 6.49001 25.2122 5.47161 25.5951 4.53296H17.8192C14.3683 4.53296 11.0588 5.90382 8.61864 8.34396C6.17849 10.7841 4.80762 14.0937 4.80762 17.5445V182.455C4.80762 185.906 6.17847 189.216 8.61862 191.656C11.0588 194.096 14.3683 195.467 17.8192 195.467H81.9059C83.6146 195.467 85.3066 195.131 86.8852 194.477C88.4639 193.823 89.8983 192.864 91.1065 191.656C92.3147 190.448 93.2732 189.013 93.9271 187.435C94.581 185.856 94.9175 184.164 94.9175 182.455V17.5446C94.9175 15.8359 94.581 14.1439 93.9271 12.5652C93.2732 10.9866 92.3147 9.55221 91.1065 8.34398C89.8983 7.13574 88.4639 6.17731 86.8852 5.52342C85.3066 4.86953 83.6146 4.53298 81.9059 4.53298Z" fill="white"/>
<path d="M89.6294 134.057H12.7876C12.4103 134.057 12.0486 133.907 11.7819 133.64C11.5151 133.373 11.3651 133.011 11.3646 132.634V113.573C11.3651 113.196 11.5151 112.834 11.7819 112.567C12.0486 112.301 12.4103 112.151 12.7876 112.15H89.6294C90.0067 112.151 90.3684 112.301 90.6351 112.567C90.9019 112.834 91.052 113.196 91.0524 113.573V132.634C91.0519 133.012 90.9018 133.373 90.635 133.64C90.3683 133.907 90.0066 134.057 89.6294 134.057ZM12.7876 112.719C12.5612 112.719 12.3442 112.809 12.1841 112.97C12.024 113.13 11.934 113.347 11.9338 113.573V132.634C11.934 132.861 12.024 133.078 12.1841 133.238C12.3442 133.398 12.5612 133.488 12.7876 133.488H89.6294C89.8558 133.488 90.0729 133.398 90.2329 133.238C90.393 133.078 90.483 132.861 90.4833 132.634V113.573C90.483 113.347 90.393 113.13 90.2329 112.97C90.0729 112.809 89.8558 112.719 89.6294 112.719H12.7876Z" fill="#E6E6E6"/>
<path d="M22.7483 129.08C26.049 129.08 28.7248 126.404 28.7248 123.103C28.7248 119.803 26.049 117.127 22.7483 117.127C19.4475 117.127 16.7717 119.803 16.7717 123.103C16.7717 126.404 19.4475 129.08 22.7483 129.08Z" fill="#E6E6E6"/>
<path d="M36.5513 119.119C36.29 119.124 36.0409 119.23 35.8576 119.417C35.6744 119.603 35.5717 119.854 35.5717 120.115C35.5717 120.377 35.6744 120.627 35.8576 120.814C36.0409 121 36.29 121.107 36.5513 121.111H83.5101C83.7743 121.116 84.0296 121.016 84.22 120.833C84.4104 120.65 84.5202 120.399 84.5253 120.135C84.5304 119.87 84.4304 119.615 84.2472 119.425C84.064 119.234 83.8127 119.124 83.5486 119.119L83.5428 119.119C83.5319 119.119 83.521 119.119 83.5101 119.119H36.5513Z" fill="#E6E6E6"/>
<path d="M36.5513 125.096C36.29 125.1 36.0409 125.207 35.8576 125.393C35.6744 125.58 35.5717 125.83 35.5717 126.092C35.5717 126.353 35.6744 126.604 35.8576 126.79C36.0409 126.977 36.29 127.083 36.5513 127.088H83.5101C83.7739 127.091 84.0283 126.99 84.2176 126.807C84.4069 126.623 84.5157 126.372 84.52 126.108C84.5243 125.844 84.4239 125.59 84.2407 125.4C84.0575 125.21 83.8065 125.101 83.5428 125.096C83.5319 125.096 83.521 125.096 83.5101 125.096H36.5513Z" fill="#E6E6E6"/>
<path d="M89.6294 165.932H12.7876C12.4103 165.932 12.0486 165.782 11.7819 165.515C11.5151 165.248 11.3651 164.886 11.3646 164.509V145.448C11.3651 145.071 11.5151 144.709 11.7819 144.442C12.0486 144.176 12.4103 144.026 12.7876 144.025H89.6294C90.0067 144.026 90.3684 144.176 90.6351 144.442C90.9019 144.709 91.052 145.071 91.0524 145.448V164.509C91.0519 164.887 90.9018 165.248 90.635 165.515C90.3683 165.782 90.0066 165.932 89.6294 165.932ZM12.7876 144.594C12.5612 144.595 12.3442 144.685 12.1841 144.845C12.024 145.005 11.934 145.222 11.9338 145.448V164.509C11.934 164.736 12.024 164.953 12.1841 165.113C12.3442 165.273 12.5612 165.363 12.7876 165.363H89.6294C89.8558 165.363 90.0729 165.273 90.2329 165.113C90.393 164.953 90.483 164.736 90.4833 164.509V145.448C90.483 145.222 90.393 145.005 90.2329 144.845C90.0729 144.685 89.8558 144.595 89.6294 144.594H12.7876Z" fill="#E6E6E6"/>
<path d="M22.7483 160.955C26.049 160.955 28.7248 158.279 28.7248 154.979C28.7248 151.678 26.049 149.002 22.7483 149.002C19.4475 149.002 16.7717 151.678 16.7717 154.979C16.7717 158.279 19.4475 160.955 22.7483 160.955Z" fill="#E6E6E6"/>
<path d="M36.5513 150.994C36.29 150.999 36.0409 151.106 35.8576 151.292C35.6744 151.478 35.5717 151.729 35.5717 151.99C35.5717 152.252 35.6744 152.503 35.8576 152.689C36.0409 152.875 36.29 152.982 36.5513 152.986H83.5101C83.7739 152.99 84.0283 152.889 84.2176 152.705C84.4069 152.522 84.5157 152.27 84.52 152.007C84.5243 151.743 84.4239 151.488 84.2407 151.298C84.0575 151.109 83.8065 150.999 83.5428 150.994C83.5319 150.994 83.521 150.994 83.5101 150.994H36.5513Z" fill="#E6E6E6"/>
<path d="M36.5513 156.971C36.29 156.975 36.0409 157.082 35.8576 157.268C35.6744 157.455 35.5717 157.706 35.5717 157.967C35.5717 158.228 35.6744 158.479 35.8576 158.666C36.0409 158.852 36.29 158.959 36.5513 158.963H83.5101C83.7739 158.967 84.0283 158.866 84.2176 158.682C84.4069 158.498 84.5157 158.247 84.52 157.983C84.5243 157.72 84.4239 157.465 84.2407 157.275C84.0575 157.085 83.8065 156.976 83.5428 156.971C83.5319 156.971 83.521 156.971 83.5101 156.971H36.5513Z" fill="#E6E6E6"/>
<path d="M49.5914 94.5025C42.4238 94.5055 35.5485 91.661 30.4781 86.5949C25.4078 81.5287 22.5576 74.6558 22.5546 67.4882V67.4657C22.5546 67.4091 22.5546 67.3494 22.5579 67.2928C22.6403 52.4864 34.7682 40.4286 49.5914 40.4286C56.762 40.4278 63.6392 43.2755 68.7102 48.3453C73.7812 53.4151 76.6305 60.2917 76.6313 67.4623C76.6321 74.6329 73.7844 81.5102 68.7146 86.5811C63.6447 91.6521 56.7682 94.5014 49.5975 94.5022H49.5914V94.5025ZM49.5914 40.9972C42.6036 41.0128 35.9043 43.7853 30.9491 48.7122C25.9939 53.6391 23.183 60.3223 23.1273 67.3099C23.1242 67.3703 23.1242 67.4198 23.1242 67.4649C23.1236 72.7003 24.6754 77.8184 27.5836 82.1719C30.4917 86.5254 34.6255 89.9188 39.4622 91.9229C44.2989 93.927 49.6212 94.4519 54.7562 93.4312C59.8912 92.4104 64.6082 89.8899 68.3107 86.1883C72.0132 82.4867 74.5349 77.7704 75.5569 72.6356C76.579 67.5009 76.0554 62.1784 74.0525 57.3412C72.0496 52.504 68.6572 48.3694 64.3045 45.4602C59.9517 42.551 54.834 40.9978 49.5985 40.9972H49.5914Z" fill="#E6E6E6"/>
<path d="M86.5962 127.193C92.6672 127.193 97.5886 122.272 97.5886 116.201C97.5886 110.13 92.6672 105.208 86.5962 105.208C80.5253 105.208 75.6039 110.13 75.6039 116.201C75.6039 122.272 80.5253 127.193 86.5962 127.193Z" fill="white"/>
<path d="M82.7785 121.146C82.7596 121.146 82.7408 121.146 82.7219 121.146H76.8135C76.0638 121.134 75.3488 120.828 74.8227 120.293C74.2966 119.759 74.0016 119.04 74.0013 118.29C74.001 117.54 74.2955 116.82 74.8211 116.285C75.3468 115.751 76.0615 115.444 76.8112 115.432H82.7245C82.7535 115.431 82.785 115.431 82.8163 115.432C83.5705 115.442 84.29 115.75 84.8179 116.289C85.3458 116.828 85.6392 117.553 85.6342 118.308C85.6293 119.062 85.3262 119.784 84.7913 120.315C84.2563 120.847 83.5328 121.146 82.7785 121.146Z" fill="#1A73E9"/>
<path d="M178.455 199.331H89.4078V199.947H178.455V199.331Z" fill="#3F3D56"/>
<path d="M94.8942 147.224C94.8243 147.115 94.7663 146.999 94.7211 146.878L93.3022 143.078C93.1371 142.634 93.1547 142.143 93.3513 141.712C93.5478 141.281 93.9072 140.946 94.3507 140.78L126.02 128.954C126.464 128.789 126.955 128.807 127.386 129.003C127.817 129.2 128.152 129.559 128.319 130.003L129.737 133.803C129.819 134.022 129.857 134.256 129.849 134.491C129.841 134.725 129.786 134.955 129.689 135.169C129.592 135.382 129.453 135.574 129.282 135.734C129.11 135.894 128.909 136.019 128.689 136.101L97.0195 147.926C96.6381 148.069 96.2197 148.076 95.8333 147.949C95.4469 147.821 95.1156 147.565 94.8942 147.224Z" fill="#1A73E9"/>
<path d="M125.92 127.972L113.041 133.108C112.635 133.23 112.292 133.503 112.083 133.872C111.873 134.24 111.814 134.675 111.916 135.086L113.411 141.07C113.47 141.307 113.581 141.527 113.735 141.716C113.889 141.904 114.084 142.056 114.304 142.16C114.524 142.265 114.764 142.319 115.008 142.32C115.252 142.32 115.492 142.266 115.713 142.163L128.627 136.084C129.036 135.931 129.367 135.621 129.549 135.224C129.731 134.826 129.747 134.373 129.595 133.963L128.043 128.941C127.89 128.531 127.58 128.199 127.182 128.018C126.784 127.836 126.33 127.82 125.92 127.972Z" fill="#2F2E41"/>
<path d="M149.488 165.253C149.084 165.3 148.675 165.207 148.331 164.99C147.987 164.773 147.727 164.445 147.594 164.061L136.57 132.103C136.494 131.882 136.461 131.647 136.476 131.413C136.49 131.179 136.55 130.95 136.653 130.739C136.755 130.528 136.899 130.339 137.074 130.184C137.25 130.028 137.454 129.909 137.676 129.832L141.511 128.51C141.958 128.355 142.449 128.385 142.875 128.593C143.301 128.8 143.627 129.168 143.781 129.616L154.805 161.573C154.959 162.021 154.929 162.512 154.722 162.938C154.514 163.363 154.147 163.689 153.699 163.844L149.865 165.167C149.743 165.209 149.616 165.238 149.488 165.253Z" fill="#1A73E9"/>
<path d="M144.603 129.069L148.834 142.272C148.998 142.663 149.005 143.102 148.854 143.498C148.703 143.894 148.406 144.216 148.023 144.399L142.455 147.052C142.235 147.157 141.995 147.212 141.751 147.213C141.508 147.214 141.267 147.16 141.046 147.057C140.826 146.954 140.631 146.803 140.475 146.615C140.32 146.427 140.208 146.207 140.148 145.971L136.622 132.141C136.48 131.727 136.508 131.275 136.699 130.882C136.891 130.489 137.23 130.188 137.642 130.044L142.505 128.047C142.919 127.905 143.372 127.932 143.765 128.124C144.159 128.315 144.46 128.655 144.603 129.069Z" fill="#2F2E41"/>
<path d="M131.793 199.512H127.737C127.263 199.512 126.809 199.323 126.474 198.988C126.14 198.654 125.951 198.2 125.951 197.726V163.92C125.951 163.447 126.14 162.993 126.474 162.658C126.809 162.323 127.263 162.135 127.737 162.134H131.793C132.266 162.135 132.721 162.323 133.055 162.658C133.39 162.993 133.579 163.447 133.579 163.92V197.726C133.579 198.2 133.39 198.654 133.055 198.988C132.721 199.323 132.266 199.512 131.793 199.512Z" fill="#2F2E41"/>
<path d="M139.815 199.512H135.759C135.286 199.512 134.832 199.323 134.497 198.988C134.162 198.654 133.973 198.2 133.973 197.726V163.92C133.973 163.447 134.162 162.993 134.497 162.658C134.832 162.323 135.286 162.135 135.759 162.134H139.815C140.289 162.135 140.743 162.323 141.078 162.658C141.413 162.993 141.601 163.447 141.602 163.92V197.726C141.601 198.2 141.413 198.654 141.078 198.988C140.743 199.323 140.289 199.512 139.815 199.512Z" fill="#2F2E41"/>
<path d="M143.158 167.895H124.728C124.218 167.894 123.73 167.691 123.369 167.331C123.008 166.97 122.805 166.481 122.805 165.971V136.032C122.805 133.078 123.978 130.245 126.067 128.156C128.156 126.067 130.989 124.894 133.943 124.894C136.897 124.894 139.73 126.067 141.819 128.156C143.908 130.245 145.082 133.078 145.082 136.032V165.971C145.081 166.481 144.878 166.97 144.517 167.331C144.157 167.691 143.668 167.894 143.158 167.895Z" fill="#CCCCCC"/>
<path d="M145.932 175.218H136.588V122.412L136.762 122.46C139.393 123.182 141.715 124.747 143.372 126.916C145.028 129.085 145.927 131.737 145.932 134.465V175.218Z" fill="#2F2E41"/>
<path d="M130.538 175.218H121.195V134.465C121.199 131.737 122.099 129.085 123.755 126.916C125.412 124.748 127.733 123.182 130.365 122.46L130.538 122.412V175.218Z" fill="#2F2E41"/>
<path d="M133.804 118.701C141.926 118.701 148.511 112.116 148.511 103.993C148.511 95.8707 141.926 89.2859 133.804 89.2859C125.681 89.2859 119.096 95.8707 119.096 103.993C119.096 112.116 125.681 118.701 133.804 118.701Z" fill="#1A73E9"/>
<path d="M150.432 100.607C150.432 100.607 151.256 77.7982 140.539 85.218C140.539 85.218 134.355 64.4699 119.241 95.5233L114.844 99.9203C114.844 99.9203 134.63 97.1722 153.042 105.691L150.432 100.607Z" fill="#2F2E41"/>
<path d="M134.028 111.277C133.12 111.252 131.989 111.22 131.118 110.584C130.858 110.387 130.645 110.135 130.493 109.847C130.341 109.559 130.254 109.241 130.238 108.915C130.223 108.684 130.261 108.452 130.349 108.238C130.438 108.024 130.575 107.833 130.75 107.681C131.205 107.296 131.869 107.206 132.585 107.416L131.843 101.996L132.388 101.921L133.26 108.294L132.805 108.085C132.278 107.843 131.554 107.72 131.104 108.1C130.994 108.2 130.908 108.323 130.853 108.461C130.798 108.599 130.776 108.748 130.788 108.896C130.801 109.138 130.866 109.375 130.979 109.589C131.092 109.804 131.25 109.992 131.442 110.14C132.12 110.635 133.021 110.699 134.043 110.728L134.028 111.277Z" fill="#2F2E41"/>
<path d="M129.15 102.463H126.19V103.013H129.15V102.463Z" fill="#2F2E41"/>
<path d="M138.494 102.463H135.534V103.013H138.494V102.463Z" fill="#2F2E41"/>
<path d="M101.012 148.626C100.615 148.81 100.162 148.829 99.7511 148.678C99.3404 148.528 99.0063 148.221 98.8223 147.824L89.3383 127.383C89.1544 126.986 89.1355 126.533 89.2859 126.122C89.4363 125.711 89.7436 125.377 90.1402 125.193C90.5369 125.009 90.9904 124.99 91.401 125.141C91.8116 125.291 92.1457 125.598 92.3298 125.995L101.814 146.436C101.998 146.833 102.017 147.286 101.866 147.697C101.716 148.108 101.409 148.442 101.012 148.626Z" fill="#3F3D56"/>
<path d="M91.2679 126.63C90.9763 126.63 90.6967 126.515 90.4906 126.308C90.2845 126.102 90.1686 125.823 90.1686 125.531V111.529H76.4282C76.1367 111.529 75.8571 111.413 75.6509 111.207C75.4448 111.001 75.329 110.721 75.329 110.43C75.329 110.138 75.4448 109.859 75.6509 109.652C75.8571 109.446 76.1367 109.331 76.4282 109.331H91.2679C91.5594 109.331 91.839 109.446 92.0452 109.652C92.2513 109.859 92.3671 110.138 92.3671 110.43V125.531C92.3671 125.823 92.2513 126.102 92.0452 126.308C91.839 126.515 91.5594 126.63 91.2679 126.63Z" fill="#1A73E9"/>
<path d="M91.5279 128.184C89.1613 129.282 86.5223 129.654 83.9445 129.252C81.3668 128.85 78.9661 127.693 77.046 125.927C75.1259 124.16 73.7727 121.865 73.1575 119.329C72.5423 116.794 72.6927 114.133 73.5898 111.683C74.4868 109.233 76.0901 107.105 78.1971 105.566C80.304 104.027 82.8198 103.148 85.4264 103.039C88.0331 102.931 90.6134 103.597 92.8412 104.955C95.0689 106.313 96.8441 108.3 97.9421 110.667C99.4103 113.841 99.5596 117.468 98.3571 120.752C97.1547 124.036 94.6987 126.709 91.5279 128.184ZM81.8127 107.244C80.0377 108.068 78.5468 109.399 77.5285 111.07C76.5102 112.741 76.0103 114.676 76.0918 116.631C76.1734 118.586 76.8329 120.473 77.9868 122.053C79.1408 123.633 80.7374 124.836 82.5748 125.509C84.4121 126.181 86.4077 126.294 88.3092 125.833C90.2107 125.371 91.9327 124.357 93.2574 122.916C94.5821 121.476 95.45 119.676 95.7514 117.743C96.0528 115.809 95.7741 113.83 94.9506 112.055C93.8441 109.677 91.8394 107.835 89.3764 106.933C86.9134 106.031 84.1932 106.143 81.8127 107.244Z" fill="#3F3D56"/>
</g>
<defs>
<clipPath id="clip0_11_762">
<rect width="178.455" height="200" fill="white"/>
</clipPath>
</defs>
</svg>
