<svg width="18" height="18" viewBox="0 0 18 18" fill="none" xmlns="http://www.w3.org/2000/svg">
<path fill-rule="evenodd" clip-rule="evenodd" d="M17.2319 2.15677L9.39208 10.2546C9.06206 10.5958 8.52889 10.5958 8.19802 10.2546L0.358211 2.15677C-0.11924 1.66422 -0.11924 0.86283 0.358211 0.369401C0.835663 -0.123153 1.61056 -0.123153 2.08801 0.369401L8.79547 7.29666L15.5012 0.3694C15.9795 -0.123154 16.7544 -0.123154 17.2319 0.3694C17.7093 0.86283 17.7093 1.66421 17.2319 2.15677Z" fill="black"/>
<path fill-rule="evenodd" clip-rule="evenodd" d="M0.358042 15.8432L8.19784 7.74539C8.52786 7.40419 9.06103 7.40419 9.3919 7.74539L17.2317 15.8432C17.7092 16.3358 17.7092 17.1372 17.2317 17.6306C16.7543 18.1232 15.9794 18.1232 15.5019 17.6306L8.79445 10.7033L2.0887 17.6306C1.61039 18.1232 0.835492 18.1232 0.358042 17.6306C-0.119411 17.1372 -0.119411 16.3358 0.358042 15.8432Z" fill="black"/>
</svg>
