<svg width="140" height="140" viewBox="0 0 140 140" fill="none" xmlns="http://www.w3.org/2000/svg">
<g filter="url(#filter0_d_11_306)">
<rect x="20" y="12" width="100" height="100" rx="16" fill="white"/>
</g>
<g clip-path="url(#clip0_11_306)">
<path d="M59.396 37.0993L41.2034 87.4247C40.3197 89.5924 42.4428 91.7723 44.6269 90.9397L94.7855 72.9577L81.5958 52.5L59.396 37.0993Z" fill="#ECB880"/>
<path d="M47.4208 89.9376L44.6272 90.9395C42.4429 91.7727 40.3195 89.5919 41.2031 87.4252L59.3959 37.0993L61.8673 38.8137L44.7186 86.2534C43.9334 88.1787 45.5236 90.1157 47.4208 89.9376Z" fill="#E9A761"/>
<path d="M91.0209 73.2544C90.6822 72.915 90.3904 72.5175 90.1612 72.0668C83.4785 58.9244 73.0139 48.4382 59.8984 41.7418C57.5976 40.5671 56.6828 37.7456 57.8551 35.44C59.0274 33.1343 61.843 32.2177 64.144 33.3923C71.5042 37.1503 78.1979 42.0235 84.0389 47.8766C89.88 53.7298 94.7432 60.4371 98.4935 67.8125C99.6658 70.1181 98.751 72.9395 96.4501 74.1143C94.599 75.0595 92.4144 74.6509 91.0209 73.2544Z" fill="#E9A761"/>
<path d="M95.3632 74.5091C93.7953 74.8677 92.1488 74.3849 91.0204 73.2541C90.6817 72.9154 90.3899 72.517 90.1614 72.067C83.4784 58.9248 73.0139 48.438 59.8986 41.7421C57.5971 40.5668 56.6831 37.7462 57.8549 35.44C57.9791 35.1951 58.1221 34.9666 58.2815 34.7544C58.2826 36.4595 59.2154 38.1012 60.8361 38.9297C73.9513 45.6256 86.9939 57.753 93.6769 70.8952C93.8211 71.1788 94.6695 73.0654 95.3632 74.5091Z" fill="#E69642"/>
<path d="M68.5362 78.3482C72.031 78.3482 74.8641 75.5151 74.8641 72.0202C74.8641 68.5254 72.031 65.6923 68.5362 65.6923C65.0414 65.6923 62.2083 68.5254 62.2083 72.0202C62.2083 75.5151 65.0414 78.3482 68.5362 78.3482Z" fill="#DC4955"/>
<path d="M74.0274 75.1678C72.9353 77.0685 70.8846 78.3482 68.5362 78.3482C65.0418 78.3482 62.2083 75.5146 62.2083 72.0202C62.2083 69.6718 63.4879 67.6211 65.3886 66.529C64.8566 67.4559 64.5519 68.5305 64.5519 69.6765C64.5519 73.171 67.3854 76.0045 70.8799 76.0045C72.0259 76.0045 73.1005 75.6998 74.0274 75.1678Z" fill="#D82F3C"/>
<path d="M54.5915 78.3482C54.5915 81.8426 51.7579 84.6761 48.2635 84.6761C46.1507 84.6761 44.2804 83.6414 43.1309 82.05L46.6522 72.2276C47.1667 72.0917 47.7069 72.0202 48.2635 72.0202C51.7579 72.0202 54.5915 74.8537 54.5915 78.3482Z" fill="#DC4955"/>
<path d="M63.6145 52.2161C63.6145 55.7105 60.7809 58.544 57.2865 58.544C56.4428 58.544 55.6389 58.3788 54.903 58.08C53.948 57.6909 53.1101 57.0757 52.4539 56.3011L56.1838 45.9842C56.5412 45.9209 56.9104 45.8881 57.2865 45.8881C57.9545 45.8881 58.5978 45.9912 59.2025 46.1846C61.7606 46.9955 63.6145 49.3896 63.6145 52.2161Z" fill="#DC4955"/>
<path d="M49.796 72.2077L45.5153 84.0492C44.5684 83.5933 43.754 82.9078 43.1411 82.0641L46.7012 72.2159C47.2004 72.087 47.7242 72.0202 48.2632 72.0202C48.7917 72.0202 49.305 72.0847 49.796 72.2077Z" fill="#D82F3C"/>
<path d="M59.2025 46.1846L54.903 58.08C53.948 57.6909 53.1101 57.0757 52.4539 56.3011L56.1838 45.9842C56.5412 45.9209 56.9104 45.8881 57.2865 45.8881C57.9545 45.8881 58.5978 45.9912 59.2025 46.1846Z" fill="#D82F3C"/>
<path d="M66.8795 56.1401C67.4106 54.6113 69.1005 53.7493 69.9384 53.4059C70.2168 53.2918 70.5345 53.4058 70.6776 53.6705C71.1137 54.4775 71.8975 56.2501 71.3648 57.7838C70.8337 59.3126 69.1438 60.1746 68.3059 60.518C68.0275 60.6321 67.7098 60.5181 67.5667 60.2534C67.1305 59.4464 66.3468 57.6738 66.8795 56.1401Z" fill="#B7E546"/>
<path d="M71.5374 56.8789C71.521 57.1836 71.4671 57.4882 71.3651 57.7835C70.8341 59.3123 69.144 60.1746 68.3063 60.518C68.0278 60.6322 67.7103 60.5182 67.5671 60.2536C67.1307 59.4467 66.3465 57.6743 66.8792 56.1406C66.9554 55.9203 67.0562 55.7141 67.1757 55.5219C67.0972 56.9399 67.8204 58.3636 68.1437 58.9232C68.2294 59.0715 68.4094 59.1356 68.5697 59.0754C69.201 58.8382 70.7591 58.1482 71.5374 56.8789Z" fill="#ABD641"/>
<path d="M77.0363 66.9277C76.0408 65.6709 76.217 63.8008 76.3756 62.9149C76.4286 62.6187 76.6954 62.4119 76.9955 62.4333C77.9048 62.4985 79.802 62.7873 80.8008 64.0482C81.7963 65.305 81.62 67.175 81.4615 68.061C81.4085 68.3572 81.1417 68.564 80.8416 68.5426C79.9321 68.4773 78.0349 68.1884 77.0363 66.9277Z" fill="#B7E546"/>
<path d="M81.5706 67.1547C81.5492 67.4865 81.5144 67.7555 81.4617 68.0628C81.4078 68.3581 81.1406 68.5644 80.8418 68.5421C79.647 68.4466 78.3863 68.148 77.4493 67.3562C76.1862 66.2815 76.1112 64.4295 76.3759 62.9149C76.3935 62.8188 76.4333 62.7321 76.4907 62.6595C76.4626 63.57 76.6056 64.6821 77.27 65.5211C78.5567 67.1453 81.3316 67.157 81.5706 67.1547Z" fill="#ABD641"/>
<path d="M54.1395 67.9856C53.5289 66.4377 54.3236 64.6224 54.7182 63.8745C54.8276 63.667 55.0726 63.5701 55.2927 63.6509C56.0939 63.9448 57.9454 64.7734 58.5588 66.3283C59.1694 67.8762 58.3747 69.6915 57.9801 70.4395C57.8707 70.6469 57.6258 70.7438 57.4056 70.6631C56.6044 70.3692 54.7529 69.5405 54.1395 67.9856Z" fill="#B7E546"/>
<path d="M58.4454 69.3707C58.3158 69.7422 58.1604 70.0975 57.979 70.4406C57.87 70.6456 57.6286 70.7417 57.4106 70.6656C56.1081 70.1725 54.6949 69.3479 54.1388 67.9856C53.9631 67.5403 53.9033 67.0727 53.9185 66.6157C53.9509 65.651 54.2861 64.7015 54.7236 63.8642C54.7681 63.7857 54.8326 63.7236 54.9064 63.6826C54.6287 64.5333 54.4599 65.6091 54.8419 66.5794C55.579 68.4461 58.0997 69.2664 58.4454 69.3707Z" fill="#ABD641"/>
<path d="M99.277 67.4141C95.4849 59.9564 90.5674 53.1741 84.6611 47.2558C78.7547 41.3371 71.9861 36.4094 64.5438 32.6096C63.2226 31.9352 61.7182 31.8159 60.3074 32.2744C58.8949 32.7334 57.7458 33.7161 57.0718 35.0417C56.2007 36.755 56.3039 38.7131 57.1737 40.2791L55.2267 45.7094C55.2263 45.7104 55.2258 45.7114 55.2254 45.7123L54.3529 48.1464L45.8256 71.9292C45.8254 71.9298 45.8251 71.9303 45.8249 71.9309L44.8759 74.5778L40.3821 87.1116C39.8484 88.4406 40.1378 89.9 41.1395 90.925C42.145 91.9577 43.6148 92.2664 44.9316 91.764L61.6449 85.7691C62.1018 85.6053 62.3393 85.102 62.1754 84.6451C62.0114 84.1882 61.5083 83.951 61.0513 84.1146L44.3302 90.1124C43.6408 90.3817 42.9143 90.227 42.3967 89.6963C41.8795 89.1673 41.7378 88.4422 42.0172 87.7564C42.022 87.7448 42.0265 87.7331 42.0307 87.7213L43.4654 83.7198C44.7743 84.8859 46.4815 85.5549 48.2635 85.5549C52.2373 85.5549 55.4703 82.3219 55.4703 78.3481C55.4703 74.3743 52.2373 71.1413 48.2635 71.1413C48.1665 71.1413 48.0698 71.1438 47.9731 71.1477L52.7531 57.8164C54.0246 58.8483 55.6146 59.4229 57.2867 59.4229C61.2605 59.4229 64.4935 56.1899 64.4935 52.216C64.4935 48.2615 61.2917 45.042 57.3446 45.0106L58.4776 41.8504C61.1919 43.5805 64.2008 44.9499 66.8086 46.8383C67.2105 47.1101 67.7571 47.0049 68.0291 46.6028C68.301 46.2007 68.1956 45.6543 67.7936 45.3824C65.4073 43.7681 62.8855 42.2796 60.2984 40.9587C58.4323 40.0059 57.6877 37.7088 58.6387 35.838C59.0997 34.9316 59.8852 34.2596 60.8507 33.9459C61.8144 33.633 62.842 33.7142 63.7446 34.175C71.0223 37.8908 77.6411 42.7095 83.4171 48.4973C89.193 54.2852 94.0018 60.9177 97.7103 68.2108C98.6614 70.0816 97.917 72.3786 96.0507 73.3316C94.2101 74.3011 91.8474 73.5062 90.9449 71.6684C86.1394 62.2178 79.4844 54.1912 71.1645 47.8118C70.7795 47.5166 70.2278 47.5893 69.9324 47.9746C69.6369 48.3597 69.7098 48.9114 70.095 49.2069C78.7508 55.6233 85.0109 64.2156 90.1971 73.6604L64.9123 82.7298C64.4554 82.8937 64.2179 83.397 64.3818 83.8539C64.5451 84.3152 65.061 84.5475 65.5058 84.3844L91.8652 74.9295C93.4322 75.7082 95.2746 75.7022 96.8501 74.8971C99.5781 73.5042 100.667 70.1474 99.277 67.4141ZM48.2635 72.899C51.2681 72.899 53.7126 75.3434 53.7126 78.3481C53.7126 81.3528 51.2681 83.7971 48.2635 83.7971C46.6694 83.7971 45.1525 83.0913 44.1221 81.8893L46.5161 75.2115L47.3158 72.9809C47.6265 72.9264 47.9437 72.899 48.2635 72.899ZM57.2867 46.767C60.2913 46.767 62.7357 49.2113 62.7357 52.216C62.7357 55.2208 60.2913 57.6651 57.2867 57.6651C55.8102 57.6651 54.4167 57.0744 53.3944 56.0294L55.7418 49.4807L56.7038 46.7977C56.896 46.7773 57.0909 46.767 57.2867 46.767Z" fill="black"/>
<path d="M62.2341 70.9666C61.7526 70.9509 61.3451 71.3367 61.3321 71.8218C61.2152 75.8627 64.4932 79.2336 68.5364 79.2269C72.5102 79.2269 75.7432 75.9939 75.7432 72.0201C75.7432 68.0463 72.5102 64.8133 68.5364 64.8133C66.3729 64.8133 64.3432 65.7725 62.9677 67.4451C62.6594 67.82 62.7134 68.3739 63.0883 68.6822C63.4632 68.9908 64.0171 68.9367 64.3254 68.5616C65.3656 67.2966 66.9005 66.5711 68.5364 66.5711C71.541 66.5711 73.9854 69.0155 73.9854 72.0202C73.9854 75.0249 71.541 77.4693 68.5364 77.4693C65.4788 77.4743 62.9998 74.9244 63.0894 71.8686C63.1023 71.3832 62.7194 70.9794 62.2341 70.9666Z" fill="black"/>
<path d="M67.826 61.5733C67.9102 61.5733 67.9954 61.5612 68.0791 61.5361C68.2119 61.496 71.3417 60.5293 72.1952 58.0723C73.0448 55.6267 71.2279 52.8589 71.1501 52.7423C70.9356 52.4207 70.5358 52.2774 70.1658 52.3882C70.033 52.4283 66.9031 53.3949 66.0497 55.8519C65.2001 58.2976 67.0169 61.0653 67.0947 61.1819C67.2608 61.4308 67.5376 61.5733 67.826 61.5733ZM67.7101 56.4285C68.062 55.4154 69.207 54.6976 70.028 54.3223C70.4375 55.1527 70.891 56.4701 70.5348 57.4954C70.183 58.5085 69.0379 59.2264 68.2169 59.6016C67.8073 58.7713 67.3538 57.4538 67.7101 56.4285Z" fill="black"/>
<path d="M78.7241 63.6742C79.1801 63.8413 79.6847 63.607 79.8515 63.151C80.0184 62.6952 79.7842 62.1904 79.3283 62.0236C77.9285 61.5111 76.525 61.5355 76.4656 61.5364C76.079 61.5448 75.7433 61.8048 75.6385 62.177C75.6012 62.3096 74.7428 65.4477 76.3474 67.4735C77.896 69.3907 80.8072 69.435 81.3716 69.4394C81.7582 69.4312 82.094 69.1711 82.1987 68.7989C82.2141 68.7443 82.5734 67.4456 82.4295 66.0062C82.3812 65.5233 81.9502 65.1704 81.4675 65.2191C80.9845 65.2673 80.6321 65.6981 80.6804 66.181C80.7345 66.7225 80.6936 67.2486 80.6381 67.6438C79.7263 67.5435 78.3905 67.2215 77.7253 66.3819C77.0684 65.5523 77.075 64.2201 77.1967 63.3342C77.6182 63.3796 78.1789 63.4747 78.7241 63.6742Z" fill="black"/>
<path d="M55.1533 62.679C54.7808 62.5747 54.3842 62.7263 54.176 63.0522C54.1022 63.1679 52.377 65.9126 53.322 68.3082C54.2626 70.6927 57.4115 71.5976 57.5451 71.635C57.9108 71.7391 58.3144 71.5895 58.5224 71.2618C58.5962 71.1461 60.3214 68.4014 59.3764 66.0058C58.4358 63.6213 55.2869 62.7164 55.1533 62.679ZM57.3672 69.7011C56.5975 69.3741 55.3693 68.7078 54.9572 67.6631C54.5716 66.6856 54.9604 65.4215 55.3313 64.6128C56.101 64.9398 57.3292 65.6061 57.7413 66.6508C58.1269 67.6283 57.7381 68.8924 57.3672 69.7011Z" fill="black"/>
</g>
<defs>
<filter id="filter0_d_11_306" x="0" y="0" width="140" height="140" filterUnits="userSpaceOnUse" color-interpolation-filters="sRGB">
<feFlood flood-opacity="0" result="BackgroundImageFix"/>
<feColorMatrix in="SourceAlpha" type="matrix" values="0 0 0 0 0 0 0 0 0 0 0 0 0 0 0 0 0 0 127 0" result="hardAlpha"/>
<feOffset dy="8"/>
<feGaussianBlur stdDeviation="10"/>
<feColorMatrix type="matrix" values="0 0 0 0 0 0 0 0 0 0 0 0 0 0 0 0 0 0 0.1 0"/>
<feBlend mode="normal" in2="BackgroundImageFix" result="effect1_dropShadow_11_306"/>
<feBlend mode="normal" in="SourceGraphic" in2="effect1_dropShadow_11_306" result="shape"/>
</filter>
<clipPath id="clip0_11_306">
<rect width="60" height="60" fill="white" transform="translate(40 32)"/>
</clipPath>
</defs>
</svg>
