<svg width="18" height="18" viewBox="0 0 18 18" fill="none" xmlns="http://www.w3.org/2000/svg">
<path fill-rule="evenodd" clip-rule="evenodd" d="M17.232 2.15677L9.3922 10.2546C9.06218 10.5958 8.52901 10.5958 8.19814 10.2546L0.358334 2.15677C-0.119117 1.66422 -0.119117 0.86283 0.358334 0.369401C0.835786 -0.123153 1.61068 -0.123153 2.08813 0.369401L8.7956 7.29666L15.5013 0.3694C15.9797 -0.123154 16.7545 -0.123154 17.232 0.3694C17.7095 0.86283 17.7095 1.66421 17.232 2.15677Z" fill="#121212"/>
<path fill-rule="evenodd" clip-rule="evenodd" d="M0.358165 15.8432L8.19797 7.74539C8.52798 7.40419 9.06115 7.40419 9.39203 7.74539L17.2318 15.8432C17.7093 16.3358 17.7093 17.1372 17.2318 17.6306C16.7544 18.1232 15.9795 18.1232 15.502 17.6306L8.79457 10.7033L2.08882 17.6306C1.61051 18.1232 0.835615 18.1232 0.358165 17.6306C-0.119288 17.1372 -0.119288 16.3358 0.358165 15.8432Z" fill="#121212"/>
</svg>
