<svg width="25" height="25" viewBox="0 0 25 25" fill="none" xmlns="http://www.w3.org/2000/svg">
<path d="M11.4582 15.6248C9.73532 15.6248 8.33325 14.2228 8.33325 12.4999C8.33325 10.777 9.73532 9.37491 11.4582 9.37491H16.6665V2.86456C16.6665 1.28436 15.3821 0 13.8019 0H2.86456C1.28436 0 0 1.28436 0 2.86456V22.1352C0 23.7154 1.28436 24.9998 2.86456 24.9998H13.8019C15.3821 24.9998 16.6665 23.7154 16.6665 22.1352V15.6248H11.4582Z" fill="black"/>
<path d="M19.3925 17.6289C19.004 17.4675 18.7498 17.0873 18.7498 16.6664V13.5415H11.4582C10.8832 13.5415 10.4166 13.0748 10.4166 12.4998C10.4166 11.9248 10.8832 11.4582 11.4582 11.4582H18.7498V8.33321C18.7498 7.91238 19.004 7.53217 19.3925 7.37072C19.7821 7.20926 20.23 7.29884 20.5279 7.59676L24.6945 11.7634C25.1018 12.1707 25.1018 12.829 24.6945 13.2363L20.5279 17.4029C20.23 17.7008 19.7821 17.7904 19.3925 17.6289Z" fill="black"/>
</svg>
