<svg width="31" height="15" viewBox="0 0 31 15" fill="none" xmlns="http://www.w3.org/2000/svg">
<path d="M29.7581 6.29032H4.13967L8.38346 2.06709C8.85699 1.5958 8.8588 0.829895 8.38751 0.356367C7.91622 -0.117222 7.15025 -0.118976 6.67672 0.352254L0.35591 6.64258L0.354822 6.64373C-0.117497 7.11502 -0.119009 7.88341 0.354701 8.35627L0.35579 8.35742L6.6766 14.6477C7.15007 15.1189 7.91604 15.1173 8.38739 14.6436C8.85868 14.1701 8.85687 13.4042 8.38334 12.9329L4.13967 8.70968H29.7581C30.4262 8.70968 30.9678 8.16811 30.9678 7.5C30.9678 6.8319 30.4262 6.29032 29.7581 6.29032Z" fill="black"/>
</svg>
